<!-- 
    material-icon.svg

    has svg files for icons. Sorted by pages where icon is used
 -->

<svg xmlns="http://www.w3.org/2000/svg">

<!-- General -->
        <!-- error -->
        <symbol id="icon-error" viewBox="0 0 24 24" fill="none" stroke="currentColor" stroke-width="1.5" stroke-linecap="round" stroke-linejoin="round" class="feather feather-alert-circle"><circle cx="12" cy="12" r="10"/><line x1="12" y1="8" x2="12" y2="12"/><line x1="12" y1="16" x2="12.01" y2="16"/></symbol>

        <!-- warning -->
        <symbol id="icon-warning" viewBox="0 0 24 24" fill="none" stroke="currentColor" stroke-width="1.5" stroke-linecap="round" stroke-linejoin="round" class="feather feather-alert-triangle"><path d="M10.29 3.86L1.82 18a2 2 0 0 0 1.71 3h16.94a2 2 0 0 0 1.71-3L13.71 3.86a2 2 0 0 0-3.42 0z"/><line x1="12" y1="9" x2="12" y2="13"/><line x1="12" y1="17" x2="12.01" y2="17"/></symbol>

        <!-- refresh -->
        <symbol id="icon-refresh" viewBox="0 0 24 24" fill="none" stroke="currentColor" stroke-width="1.5" stroke-linecap="round" stroke-linejoin="round" class="feather feather-refresh-cw"><polyline points="23 4 23 10 17 10"/><polyline points="1 20 1 14 7 14"/><path d="M3.51 9a9 9 0 0 1 14.85-3.36L23 10M1 14l4.64 4.36A9 9 0 0 0 20.49 15"/></symbol>

        <!-- arrow -->
        <symbol id="icon-arrow-left" viewBox="0 0 24 24" fill="none" stroke="currentColor" stroke-width="1.5" stroke-linecap="round" stroke-linejoin="round" class="feather feather-arrow-left"><line x1="19" y1="12" x2="5" y2="12"/><polyline points="12 19 5 12 12 5"/></symbol>
        <symbol id="icon-arrow-right" viewBox="0 0 24 24" fill="none" stroke="currentColor" stroke-width="1.5" stroke-linecap="round" stroke-linejoin="round" class="feather feather-arrow-right"><line x1="5" y1="12" x2="19" y2="12"/><polyline points="12 5 19 12 12 19"/></symbol>
        <symbol id="icon-arrow-left-circle" viewBox="0 0 24 24" fill="none" stroke="currentColor" stroke-width="1.5" stroke-linecap="round" stroke-linejoin="round" class="feather feather-arrow-left-circle"><circle cx="12" cy="12" r="10"/><polyline points="12 8 8 12 12 16"/><line x1="16" y1="12" x2="8" y2="12"/></symbol>
        <symbol id="icon-arrow-right-circle" viewBox="0 0 24 24" fill="none" stroke="currentColor" stroke-width="1.5" stroke-linecap="round" stroke-linejoin="round" class="feather feather-arrow-right-circle"><circle cx="12" cy="12" r="10"/><polyline points="12 16 16 12 12 8"/><line x1="8" y1="12" x2="16" y2="12"/></symbol>
        <symbol id="icon-chevron-left" viewBox="0 0 24 24" fill="none" stroke="currentColor" stroke-width="1.5" stroke-linecap="round" stroke-linejoin="round" class="feather feather-chevron-left"><polyline points="15 18 9 12 15 6"/></symbol>
        <symbol id="icon-chevron-right" viewBox="0 0 24 24" fill="none" stroke="currentColor" stroke-width="1.5" stroke-linecap="round" stroke-linejoin="round" class="feather feather-chevron-right"><polyline points="9 18 15 12 9 6"/></symbol>
        <symbol id="icon-arrow-drop-down" viewBox="0 -960 960 960">
                <path d="M480-360 280-560h400L480-360Z"/>
        </symbol>
        <symbol id="icon-arrow-drop-up" viewBox="0 -960 960 960">
                <path d="m280-400 200-200 200 200H280Z"/>
        </symbol>

        <!-- copy -->
        <symbol id="icon-copy" viewBox="0 0 24 24" fill="none" stroke="currentColor" stroke-width="1.5" stroke-linecap="round" stroke-linejoin="round" class="feather feather-copy"><rect x="9" y="9" width="13" height="13" rx="2" ry="2"/><path d="M5 15H4a2 2 0 0 1-2-2V4a2 2 0 0 1 2-2h9a2 2 0 0 1 2 2v1"/></symbol>
        
        <!-- plus -->
        <symbol id="icon-plus" viewBox="0 0 24 24" fill="none" stroke="currentColor" stroke-width="1.5" stroke-linecap="round" stroke-linejoin="round" class="feather feather-plus"><line x1="12" y1="5" x2="12" y2="19"/><line x1="5" y1="12" x2="19" y2="12"/></symbol>

        <!-- delete -->
        <symbol id="icon-delete" viewBox="0 0 24 24" fill="none" stroke="currentColor" stroke-width="1.5" stroke-linecap="round" stroke-linejoin="round" class="feather feather-trash-2"><polyline points="3 6 5 6 21 6"/><path d="M19 6v14a2 2 0 0 1-2 2H7a2 2 0 0 1-2-2V6m3 0V4a2 2 0 0 1 2-2h4a2 2 0 0 1 2 2v2"/><line x1="10" y1="11" x2="10" y2="17"/><line x1="14" y1="11" x2="14" y2="17"/></symbol>

        <!-- close -->
        <symbol id="icon-x" viewBox="0 0 24 24" fill="none" stroke="currentColor" stroke-width="1.5" stroke-linecap="round" stroke-linejoin="round" class="feather feather-x"><line x1="18" y1="6" x2="6" y2="18"/><line x1="6" y1="6" x2="18" y2="18"/></symbol>

        <!-- check -->
        <symbol id="icon-check" viewBox="0 0 24 24" fill="none" stroke="currentColor" stroke-width="1.5" stroke-linecap="round" stroke-linejoin="round" class="feather feather-check"><polyline points="20 6 9 17 4 12"/></symbol>
        <symbol id="icon-check-circle" viewBox="0 0 24 24" fill="none" stroke="currentColor" stroke-width="1.5" stroke-linecap="round" stroke-linejoin="round" class="feather feather-check-circle"><path d="M22 11.08V12a10 10 0 1 1-5.93-9.14"/><polyline points="22 4 12 14.01 9 11.01"/></symbol>
        <symbol id="icon-circle" viewBox="0 0 24 24" fill="none" stroke="currentColor" stroke-width="1.5" stroke-linecap="round" stroke-linejoin="round" class="feather feather-circle"><circle cx="12" cy="12" r="10"/></symbol>

        <!-- checkbox -->
        <symbol id="icon-square" viewBox="0 0 24 24" fill="none" stroke="currentColor" stroke-width="1.5" stroke-linecap="round" stroke-linejoin="round" class="feather feather-square"><rect x="3" y="3" width="18" height="18" rx="2" ry="2"/></symbol>
        <symbol id="icon-check-square" viewBox="0 0 24 24" fill="none" stroke="currentColor" stroke-width="1.5" stroke-linecap="round" stroke-linejoin="round" class="feather feather-check-square"><polyline points="9 11 12 14 22 4"/><path d="M21 12v7a2 2 0 0 1-2 2H5a2 2 0 0 1-2-2V5a2 2 0 0 1 2-2h11"/></symbol>
        <symbol id="icon-minus-square" viewBox="0 0 24 24" fill="none" stroke="currentColor" stroke-width="1.5" stroke-linecap="round" stroke-linejoin="round" class="feather feather-minus-square"><rect x="3" y="3" width="18" height="18" rx="2" ry="2"/><line x1="8" y1="12" x2="16" y2="12"/></symbol>

        <!-- info -->
        <symbol id="icon-info" viewBox="0 0 24 24" fill="none" stroke="currentColor" stroke-width="1.5" stroke-linecap="round" stroke-linejoin="round" class="feather feather-info"><circle cx="12" cy="12" r="10"/><line x1="12" y1="16" x2="12" y2="12"/><line x1="12" y1="8" x2="12.01" y2="8"/></symbol>

        <!-- columns -->
        <symbol id="icon-columns" viewBox="0 0 24 24" fill="none" stroke="currentColor" stroke-width="1.5" stroke-linecap="round" stroke-linejoin="round" class="feather feather-columns"><path d="M12 3h7a2 2 0 0 1 2 2v14a2 2 0 0 1-2 2h-7m0-18H5a2 2 0 0 0-2 2v14a2 2 0 0 0 2 2h7m0-18v18"/></symbol>

        <!-- search -->
        <symbol id="icon-x-circle" viewBox="0 0 24 24" fill="none" stroke="currentColor" stroke-width="1.5" stroke-linecap="round" stroke-linejoin="round" class="feather feather-x-circle"><circle cx="12" cy="12" r="10"/><line x1="15" y1="9" x2="9" y2="15"/><line x1="9" y1="9" x2="15" y2="15"/></symbol>
        <symbol id="icon-search" viewBox="0 0 24 24" fill="none" stroke="currentColor" stroke-width="1.5" stroke-linecap="round" stroke-linejoin="round" class="feather feather-search"><circle cx="11" cy="11" r="8"/><line x1="21" y1="21" x2="16.65" y2="16.65"/></symbol>

        <!-- edit -->
        <symbol id="icon-edit" viewBox="0 0 24 24" fill="none" stroke="currentColor" stroke-width="1.5" stroke-linecap="round" stroke-linejoin="round" class="feather feather-edit-2"><path d="M17 3a2.828 2.828 0 1 1 4 4L7.5 20.5 2 22l1.5-5.5L17 3z"/></symbol>

        <!-- password -->
        <symbol id="icon-eye" viewBox="0 0 24 24" fill="none" stroke="currentColor" stroke-width="1.5" stroke-linecap="round" stroke-linejoin="round" class="feather feather-eye"><path d="M1 12s4-8 11-8 11 8 11 8-4 8-11 8-11-8-11-8z"/><circle cx="12" cy="12" r="3"/></symbol>
        <symbol id="icon-eye-off" viewBox="0 0 24 24" fill="none" stroke="currentColor" stroke-width="1.5" stroke-linecap="round" stroke-linejoin="round" class="feather feather-eye-off"><path d="M17.94 17.94A10.07 10.07 0 0 1 12 20c-7 0-11-8-11-8a18.45 18.45 0 0 1 5.06-5.94M9.9 4.24A9.12 9.12 0 0 1 12 4c7 0 11 8 11 8a18.5 18.5 0 0 1-2.16 3.19m-6.72-1.07a3 3 0 1 1-4.24-4.24"/><line x1="1" y1="1" x2="23" y2="23"/></symbol>

        <!-- help -->
        <symbol id="icon-help-circle" viewBox="0 0 24 24" fill="none" stroke="currentColor" stroke-width="1.5" stroke-linecap="round" stroke-linejoin="round" class="feather feather-help-circle"><circle cx="12" cy="12" r="10"/><path d="M9.09 9a3 3 0 0 1 5.83 1c0 2-3 3-3 3"/><line x1="12" y1="17" x2="12.01" y2="17"/></symbol>

<!-- Users -->
        <!-- more vertical -->
        <svg id="icon-more-vertical" viewBox="0 0 24 24" fill="none" stroke="currentColor" stroke-width="1.5" stroke-linecap="round" stroke-linejoin="round" class="feather feather-more-vertical"><circle cx="12" cy="12" r="1"/><circle cx="12" cy="5" r="1"/><circle cx="12" cy="19" r="1"/></svg>
        <!-- add user -->
        <symbol id="icon-user-plus" viewBox="0 0 24 24" fill="none" stroke="currentColor" stroke-width="1.5" stroke-linecap="round" stroke-linejoin="round" class="feather feather-user-plus"><path d="M16 21v-2a4 4 0 0 0-4-4H5a4 4 0 0 0-4 4v2"/><circle cx="8.5" cy="7" r="4"/><line x1="20" y1="8" x2="20" y2="14"/><line x1="23" y1="11" x2="17" y2="11"/></symbol>
        <!-- invite -->
        <symbol id="icon-mail" viewBox="0 0 24 24" fill="none" stroke="currentColor" stroke-width="1.5" stroke-linecap="round" stroke-linejoin="round" class="feather feather-mail"><path d="M4 4h16c1.1 0 2 .9 2 2v12c0 1.1-.9 2-2 2H4c-1.1 0-2-.9-2-2V6c0-1.1.9-2 2-2z"/><polyline points="22,6 12,13 2,6"/></symbol>
        <!-- block -->
        <symbol id="icon-user-x" viewBox="0 0 24 24" fill="none" stroke="currentColor" stroke-width="1.5" stroke-linecap="round" stroke-linejoin="round" class="feather feather-user-x"><path d="M16 21v-2a4 4 0 0 0-4-4H5a4 4 0 0 0-4 4v2"/><circle cx="8.5" cy="7" r="4"/><line x1="18" y1="8" x2="23" y2="13"/><line x1="23" y1="8" x2="18" y2="13"/></symbol>
        <!-- unblock -->
        <symbol id="icon-user" viewBox="0 0 24 24" fill="none" stroke="currentColor" stroke-width="1.5" stroke-linecap="round" stroke-linejoin="round" class="feather feather-user"><path d="M20 21v-2a4 4 0 0 0-4-4H8a4 4 0 0 0-4 4v2"/><circle cx="12" cy="7" r="4"/></symbol>
        <!-- grant access -->
        <symbol id="icon-users" viewBox="0 0 24 24" fill="none" stroke="currentColor" stroke-width="1.5" stroke-linecap="round" stroke-linejoin="round" class="feather feather-users"><path d="M17 21v-2a4 4 0 0 0-4-4H5a4 4 0 0 0-4 4v2"/><circle cx="9" cy="7" r="4"/><path d="M23 21v-2a4 4 0 0 0-3-3.87"/><path d="M16 3.13a4 4 0 0 1 0 7.75"/></symbol>
        <!-- calendar -->
        <symbol id="icon-calendar" viewBox="0 0 24 24" fill="none" stroke="currentColor" stroke-width="1.5" stroke-linecap="round" stroke-linejoin="round" class="feather feather-calendar"><rect x="3" y="4" width="18" height="18" rx="2" ry="2"/><line x1="16" y1="2" x2="16" y2="6"/><line x1="8" y1="2" x2="8" y2="6"/><line x1="3" y1="10" x2="21" y2="10"/></symbol>

<!-- Homepage -->
        <!-- mark -->
        <symbol id="icon-card-mark" viewBox="0 0 83 83">
            <g clip-path="url(#clip0_116_5159)">
                <path d="M65.999 0C75.3879 0 82.999 7.61116 82.999 17V82.999L0 0H65.999Z"/>
            </g>
            <defs>
                <clipPath id="clip0_116_5159">
                    <rect width="83" height="83" fill="white"/>
                </clipPath>
            </defs>
        </symbol>

<!-- Database -->
        <!-- globe -->
        <symbol id="icon-globe" viewBox="0 0 24 24" fill="none" stroke="currentColor" stroke-width="1.5" stroke-linecap="round" stroke-linejoin="round" class="feather feather-globe"><circle cx="12" cy="12" r="10"/><line x1="2" y1="12" x2="22" y2="12"/><path d="M12 2a15.3 15.3 0 0 1 4 10 15.3 15.3 0 0 1-4 10 15.3 15.3 0 0 1-4-10 15.3 15.3 0 0 1 4-10z"/></symbol>
        
        <!-- key -->
        <symbol id="icon-key" viewBox="0 0 24 24" fill="none" stroke="currentColor" stroke-width="1.5" stroke-linecap="round" stroke-linejoin="round" class="feather feather-key"><path d="M21 2l-2 2m-7.61 7.61a5.5 5.5 0 1 1-7.778 7.778 5.5 5.5 0 0 1 7.777-7.777zm0 0L15.5 7.5m0 0l3 3L22 7l-3-3m-3.5 3.5L19 4"/></symbol>         

<!-- Automated Email -->
        <!-- preview -->
        <symbol id="icon-preview" viewBox="0 0 24 24" fill="none" stroke="currentColor" stroke-width="1.5" stroke-linecap="round" stroke-linejoin="round" class="feather feather-credit-card"><rect x="1" y="4" width="22" height="16" rx="2" ry="2"/><line x1="1" y1="10" x2="23" y2="10"/></symbol>

        <!-- send -->
        <symbol id="icon-send" viewBox="0 0 24 24" fill="none" stroke="currentColor" stroke-width="1.5" stroke-linecap="round" stroke-linejoin="round" class="feather feather-send"><line x1="22" y1="2" x2="11" y2="13"/><polygon points="22 2 15 22 11 13 2 9 22 2"/></symbol>

<!-- Hosting -->
        <!-- add file -->
        <symbol id="icon-file-plus" viewBox="0 0 24 24" fill="none" stroke="currentColor" stroke-width="1.5" stroke-linecap="round" stroke-linejoin="round" class="feather feather-file-plus"><path d="M14 2H6a2 2 0 0 0-2 2v16a2 2 0 0 0 2 2h12a2 2 0 0 0 2-2V8z"/><polyline points="14 2 14 8 20 8"/><line x1="12" y1="18" x2="12" y2="12"/><line x1="9" y1="15" x2="15" y2="15"/></symbol>

        <!-- add folder -->
        <symbol id="icon-folder-plus" viewBox="0 0 24 24" fill="none" stroke="currentColor" stroke-width="1.5" stroke-linecap="round" stroke-linejoin="round" class="feather feather-folder-plus"><path d="M22 19a2 2 0 0 1-2 2H4a2 2 0 0 1-2-2V5a2 2 0 0 1 2-2h5l2 3h9a2 2 0 0 1 2 2z"/><line x1="12" y1="11" x2="12" y2="17"/><line x1="9" y1="14" x2="15" y2="14"/></symbol>

        <!-- upload -->
        <symbol id="icon-upload" xmlns="http://www.w3.org/2000/svg" width="24" height="24" viewBox="0 0 24 24" fill="none" stroke="currentColor" stroke-width="1.5" stroke-linecap="round" stroke-linejoin="round" class="feather feather-upload"><path d="M21 15v4a2 2 0 0 1-2 2H5a2 2 0 0 1-2-2v-4"/><polyline points="17 8 12 3 7 8"/><line x1="12" y1="3" x2="12" y2="15"/></symbol>

        <!-- upload cloud -->
        <svg id="icon-upload-cloud" viewBox="0 0 24 24" fill="none" stroke="currentColor" stroke-width="1.5" stroke-linecap="round" stroke-linejoin="round" class="feather feather-upload-cloud"><polyline points="16 16 12 12 8 16"/><line x1="12" y1="12" x2="12" y2="21"/><path d="M20.39 18.39A5 5 0 0 0 18 9h-1.26A8 8 0 1 0 3 16.3"/><polyline points="16 16 12 12 8 16"/></svg>

        <!-- open folder -->
        <symbol id="icon-folder-open-fill" viewBox="0 -960 960 960">
                <path d="M160-160q-33 0-56.5-23.5T80-240v-480q0-33 23.5-56.5T160-800h240l80 80h320q33 0 56.5 23.5T880-640H160v400l96-320h684L837-217q-8 26-29.5 41.5T760-160H160Z"/>
        </symbol>

        <!-- closed folder -->
        <symbol id="icon-folder-fill" viewBox="0 -960 960 960">
                <path d="M160-160q-33 0-56.5-23.5T80-240v-480q0-33 23.5-56.5T160-800h240l80 80h320q33 0 56.5 23.5T880-640v400q0 33-23.5 56.5T800-160H160Z"/>
        </symbol>

<!-- Side Nav -->
        <!-- database -->
        <symbol id="icon-nav-database" viewBox="0 0 18 18">
            <path d="M3.24255 10.7295C3.57377 10.935 3.97824 11.1141 4.43103 11.2637C5.61647 11.655 7.23016 11.8886 9.00134 11.8887C10.7725 11.8887 12.3862 11.655 13.5717 11.2637C14.0231 11.1146 14.4266 10.9361 14.7572 10.7314V13.3516C14.7571 13.7911 14.5036 14.1487 14.183 14.416C13.8601 14.685 13.4183 14.9079 12.9115 15.0859C11.8933 15.4433 10.512 15.6562 9.00037 15.6562C7.48848 15.6561 6.10634 15.4435 5.08826 15.0859C4.58167 14.9078 4.13938 14.685 3.81677 14.416C3.49663 14.1487 3.24262 13.7906 3.24255 13.3516V10.7295ZM5.1947 12.4932C4.83021 12.4932 4.5347 12.7889 4.53455 13.1533C4.53455 13.5179 4.83011 13.8135 5.1947 13.8135C5.55915 13.8133 5.85486 13.5178 5.85486 13.1533C5.8547 12.789 5.55905 12.4933 5.1947 12.4932ZM3.24255 5.91602C3.5737 6.12152 3.97836 6.29972 4.43103 6.44922C5.61647 6.84055 7.23016 7.07417 9.00134 7.07422C10.7726 7.07421 12.3861 6.84056 13.5717 6.44922C14.023 6.30018 14.4266 6.12264 14.7572 5.91797V9.57129C14.7101 9.64792 14.6301 9.73953 14.4984 9.84277C14.2387 10.0462 13.8343 10.2498 13.2953 10.4277C12.2213 10.7822 10.7055 11.0088 9.00134 11.0088C7.29671 11.0087 5.78041 10.7823 4.70642 10.4277C4.16733 10.2497 3.76392 10.0462 3.50427 9.84277C3.3684 9.73625 3.28896 9.64156 3.24255 9.56348V5.91602ZM5.1947 7.73535C4.83011 7.73535 4.53455 8.03092 4.53455 8.39551C4.53478 8.7599 4.83025 9.05566 5.1947 9.05566C5.55901 9.05549 5.85463 8.7598 5.85486 8.39551C5.85486 8.03102 5.55915 7.73552 5.1947 7.73535ZM9.00037 2.34375C10.5039 2.34379 11.8856 2.55748 12.9056 2.91504C13.4131 3.09308 13.8561 3.3156 14.1801 3.58398C14.5005 3.8497 14.7547 4.20671 14.7562 4.64551L14.7572 4.64844V4.75781C14.7101 4.8344 14.63 4.92515 14.4984 5.02832C14.2387 5.23182 13.8345 5.43524 13.2953 5.61328C12.2213 5.96776 10.7057 6.19432 9.00134 6.19434C7.29671 6.19429 5.78041 5.96789 4.70642 5.61328C4.16742 5.43525 3.76388 5.23177 3.50427 5.02832C3.36866 4.92196 3.28892 4.828 3.24255 4.75V4.64551C3.24406 4.2072 3.49978 3.84961 3.8197 3.58398C4.14347 3.31552 4.58766 3.09315 5.09509 2.91504C6.11495 2.5574 7.49687 2.34389 9.00037 2.34375Z"/>
        </symbol>
        <!-- home -->
        <symbol id="icon-nav-home" viewBox="0 0 18 18">
            <path fill-rule="evenodd" clip-rule="evenodd" d="M8.99995 2.37744L2.78845 7.31694V14.2499C2.78845 14.9324 3.34345 15.4874 4.02595 15.4874H8.62495V14.9999V14.5124V12.5894H9.37495V14.5124V14.9999V15.4874H13.974C14.6565 15.4874 15.2115 14.9324 15.2115 14.2499V7.31694L8.99995 2.37744Z"/>
        </symbol>
        <!-- hosting -->
        <symbol id="icon-nav-hosting" viewBox="0 0 18 18">
            <path fill-rule="evenodd" clip-rule="evenodd" d="M10.9526 14.0566C11.2946 13.3614 11.5458 12.4816 11.7026 11.5179H13.8483C13.2311 12.6826 12.1998 13.5916 10.9526 14.0566ZM4.30159 11.5179H6.44734C6.60484 12.4816 6.85609 13.3614 7.19734 14.0566C5.95009 13.5916 4.91884 12.6826 4.30159 11.5179ZM7.19734 3.94365C6.85534 4.6389 6.60484 5.51865 6.44734 6.48315H4.30084C4.91809 5.3184 5.94934 4.40865 7.19734 3.94365ZM13.8491 6.48315H11.7026C11.5458 5.51865 11.2946 4.6389 10.9526 3.94365C12.2006 4.40865 13.2326 5.3184 13.8491 6.48315ZM11.8481 7.68315H14.3058C14.4123 8.1054 14.4753 8.5449 14.4753 9.00015C14.4753 9.4554 14.4123 9.89565 14.3058 10.3186H11.8473C11.8826 9.88365 11.9021 9.4419 11.9021 9.00015C11.9021 8.55915 11.8826 8.1174 11.8481 7.68315ZM9.07534 3.60015C9.47509 3.60015 10.1471 4.6044 10.4883 6.48315H7.66159C8.00284 4.6044 8.67484 3.60015 9.07534 3.60015ZM3.67459 9.00015C3.67459 8.5449 3.73759 8.1054 3.84409 7.68315H6.30184C6.26734 8.1174 6.24859 8.55915 6.24859 9.00015C6.24859 9.4419 6.26734 9.88365 6.30259 10.3186H3.84409C3.73759 9.89565 3.67459 9.4554 3.67459 9.00015ZM7.50334 10.3186C7.46809 9.90765 7.44784 9.4689 7.44784 9.00015C7.44784 8.5314 7.46809 8.09415 7.50334 7.68315H10.6466C10.6818 8.09415 10.7021 8.5314 10.7021 9.00015C10.7021 9.4689 10.6818 9.90765 10.6466 10.3186H7.50334ZM9.07534 14.4001C8.67484 14.4001 8.00284 13.3959 7.66159 11.5179H10.4883C10.1471 13.3959 9.47509 14.4001 9.07534 14.4001ZM9.07534 2.40015C5.43559 2.40015 2.47534 5.3604 2.47534 9.00015C2.47534 12.6391 5.43559 15.6001 9.07534 15.6001C12.7143 15.6001 15.6746 12.6391 15.6746 9.00015C15.6746 5.3604 12.7143 2.40015 9.07534 2.40015Z"/>
        </symbol>
        <!-- lock -->
        <symbol id="icon-nav-lock" viewBox="0 0 18 18">
            <path fill-rule="evenodd" clip-rule="evenodd" d="M6.6427 4.89956C6.6427 3.61856 7.6852 2.57606 8.9662 2.57606C10.2472 2.57606 11.289 3.61856 11.289 4.89956V5.88506H6.6427V4.89956ZM8.1157 9.99431C8.1157 9.50606 8.5117 9.11081 8.99995 9.11081C9.4882 9.11081 9.8842 9.50606 9.8842 9.99431C9.8842 10.3468 9.6742 10.6461 9.37495 10.7878V12.3906H8.62495V10.7878C8.32645 10.6461 8.1157 10.3468 8.1157 9.99431ZM13.875 5.88506H12.264V4.89956C12.264 3.08081 10.7842 1.60181 8.9662 1.60181C7.14745 1.60181 5.6677 3.08081 5.6677 4.89956V5.88506H4.12495C3.44245 5.88506 2.88745 6.44081 2.88745 7.12256V14.4111C2.88745 15.0936 3.44245 15.6486 4.12495 15.6486H13.875C14.5575 15.6486 15.1125 15.0936 15.1125 14.4111V7.12256C15.1125 6.44081 14.5575 5.88506 13.875 5.88506Z"/>
        </symbol>
        <!-- mail -->
        <symbol id="icon-nav-mail" viewBox="0 0 18 18">
            <path fill-rule="evenodd" clip-rule="evenodd" d="M13.9073 5.76568L9.00003 9.88318L4.09278 5.76568C3.93378 5.63218 3.91353 5.39668 4.04703 5.23768C4.17903 5.07943 4.41678 5.05843 4.57503 5.19118L9.00003 8.90518L13.425 5.19118C13.5833 5.05693 13.8203 5.07868 13.9538 5.23768C14.0865 5.39668 14.0663 5.63218 13.9073 5.76568ZM14.0235 3.39868H3.97653C3.08703 3.39868 2.36328 4.12243 2.36328 5.01118V12.9799C2.36328 13.8694 3.08703 14.5932 3.97653 14.5932H14.0235C14.913 14.5932 15.6368 13.8694 15.6368 12.9799V5.01118C15.6368 4.12243 14.913 3.39868 14.0235 3.39868Z"/>
        </symbol>
        <!-- bulk mail -->
        <symbol id="icon-nav-bulk-mail" viewBox="0 0 18 18">
            <path fill-rule="evenodd" clip-rule="evenodd" d="M11.9394 4.87256L7.8683 8.28845L3.79723 4.87256C3.66533 4.76181 3.64853 4.56644 3.75928 4.43453C3.86879 4.30325 4.06603 4.28583 4.19731 4.39596L7.8683 7.4771L11.5393 4.39596C11.6706 4.28458 11.8672 4.30263 11.9779 4.43453C12.0881 4.56644 12.0713 4.76181 11.9394 4.87256ZM12.0366 2.90894H3.70164C2.96371 2.90894 2.36328 3.50936 2.36328 4.24667V10.8576C2.36328 11.5955 2.96371 12.1959 3.70164 12.1959H12.0366C12.7746 12.1959 13.375 11.5955 13.375 10.8576V4.24667C13.375 3.50936 12.7746 2.90894 12.0366 2.90894Z"/>
            <path d="M14.5059 3.98096V11.9C14.5059 12.6456 13.9014 13.25 13.1559 13.25H3.49414" stroke="white" stroke-width="0.6"/>
            <path d="M15.6875 5.19971V13.1188C15.6875 13.8643 15.0831 14.4688 14.3375 14.4688H4.67578" stroke="white" stroke-width="0.6"/>
        </symbol>
        <!-- setting -->
        <symbol id="icon-nav-setting" viewBox="0 0 18 18">
            <path fill-rule="evenodd" clip-rule="evenodd" d="M9.00003 10.8237C7.99428 10.8237 7.17603 10.0054 7.17603 8.99966C7.17603 7.99466 7.99428 7.17641 9.00003 7.17641C10.0058 7.17641 10.824 7.99466 10.824 8.99966C10.824 10.0054 10.0058 10.8237 9.00003 10.8237ZM15.6008 11.0959L14.1653 9.97541L14.205 9.63491C14.2328 9.42266 14.2455 9.21041 14.2455 8.99966C14.2455 8.77916 14.2313 8.55791 14.2028 8.33816L14.1578 7.99241L15.585 6.87716C15.7763 6.72716 15.828 6.45941 15.7065 6.24866L14.7195 4.54016C14.598 4.32866 14.3385 4.24091 14.1143 4.33241L12.426 5.01566L12.1508 4.80791C11.802 4.54541 11.4233 4.32791 11.0258 4.16141L10.7048 4.02716L10.4543 2.23616C10.4213 1.99541 10.215 1.81616 9.97203 1.81616H7.99803C7.75503 1.81616 7.54878 1.99541 7.51578 2.23616L7.26378 4.03916L6.94578 4.17416C6.54753 4.34291 6.17178 4.56191 5.82453 4.82591L5.54928 5.03741L3.87003 4.35716C3.64353 4.26716 3.38628 4.35491 3.26478 4.56566L2.27778 6.27641C2.15703 6.48641 2.20878 6.75416 2.40003 6.90341L3.83328 8.02391L3.79353 8.36366C3.76728 8.57591 3.75453 8.78966 3.75453 8.99966C3.75453 9.22091 3.76953 9.44366 3.79728 9.66491L3.84153 10.0084L2.41503 11.1229C2.22378 11.2722 2.17203 11.5407 2.29353 11.7507L3.27978 13.4599C3.40053 13.6699 3.65853 13.7584 3.88503 13.6677L5.57403 12.9844L5.84928 13.1914C6.19578 13.4532 6.57453 13.6707 6.97428 13.8387L7.29453 13.9729L7.54578 15.7639C7.57878 16.0047 7.78503 16.1839 8.02803 16.1839H10.002C10.245 16.1839 10.4513 16.0047 10.4843 15.7639L10.7363 13.9609L11.0543 13.8259C11.4503 13.6587 11.8268 13.4397 12.1755 13.1734L12.4508 12.9627L14.13 13.6414C14.3558 13.7322 14.613 13.6444 14.7345 13.4337L15.7223 11.7244C15.8438 11.5137 15.792 11.2452 15.6008 11.0959Z"/>
        </symbol>
        <!-- user shield -->
        <symbol id="icon-nav-user-shield" viewBox="0 0 18 18">
            <path fill-rule="evenodd" clip-rule="evenodd" d="M7.675 10.0569C7.5025 9.7847 7.31275 9.47345 7.0345 8.95595C6.964 8.9147 6.68875 8.74145 6.604 8.1662C6.565 7.89545 6.67525 7.70495 6.73975 7.61945C6.73975 7.61195 6.739 7.60595 6.739 7.5992C6.739 6.16745 7.726 5.17145 9.01075 5.17145C10.2955 5.17145 11.2833 6.16745 11.2833 7.5992C11.2833 7.60595 11.2825 7.61195 11.2825 7.61945C11.347 7.70495 11.4573 7.89545 11.4175 8.1662C11.3335 8.74145 11.0583 8.9147 10.987 8.95595C10.7095 9.47345 10.5198 9.7847 10.3473 10.0569C10.1455 10.3757 10.1088 10.9389 10.4808 11.1999C10.7283 11.3739 11.863 12.1547 12.661 12.7037C11.6358 13.6524 10.273 14.5209 9.01675 15.1599C7.741 14.5097 6.382 13.6434 5.36275 12.7022C6.16075 12.1532 7.29325 11.3739 7.54075 11.1999C7.91275 10.9389 7.87675 10.3757 7.675 10.0569ZM15.2365 3.3227C15.2358 3.1022 15.0858 2.9087 14.872 2.8532C14.0478 2.63795 11.827 2.1377 9.01075 2.1377C5.84575 2.1377 3.5455 2.7617 3.11725 2.88695C2.9095 2.9477 2.7655 3.1382 2.7655 3.35495V9.96469C2.7655 12.9204 7.36525 15.4307 8.7775 16.1304C8.84575 16.1649 8.93575 16.1867 9.01075 16.1867C9.0565 16.1867 9.1165 16.1754 9.16 16.1634C9.18925 16.1552 9.21625 16.1439 9.24325 16.1312C10.654 15.4322 15.256 12.9212 15.256 9.9632L15.2365 3.3227Z"/>
        </symbol>
        <!-- users -->
        <symbol id="icon-nav-users" viewBox="0 0 18 18">
            <path fill-rule="evenodd" clip-rule="evenodd" d="M15.2352 12.2157C15.2352 12.2157 12.8149 10.6549 12.2209 10.2597C11.9307 10.0662 12.1099 9.46765 12.2262 9.2734C12.3432 9.0799 12.4752 8.80765 12.6297 8.4874C12.7047 8.3329 12.7849 8.1664 12.8727 7.99165C13.0947 7.8589 13.3429 7.5964 13.4284 6.97765C13.4772 6.62515 13.3857 6.3469 13.2889 6.1639C13.2454 4.34065 12.1324 3.0769 10.5544 3.0769C10.2289 3.0769 9.92967 3.1429 9.64917 3.24415C9.78192 3.3619 9.90567 3.4909 10.0189 3.6319C10.1307 3.77065 10.2349 3.91615 10.3272 4.0759C10.6384 4.61965 10.8357 5.2699 10.8724 6.00865C11.0119 6.33565 11.0614 6.6994 11.0112 7.0639C10.9272 7.66915 10.6962 8.12215 10.3234 8.4184C10.2642 8.53915 10.2087 8.65465 10.1554 8.7649C10.0707 8.9389 9.99342 9.0979 9.91992 9.24115C9.84942 9.37915 9.78417 9.5014 9.72342 9.60265C9.69567 9.65065 9.66867 9.74215 9.65742 9.8164C9.75417 9.88015 9.87492 9.9589 10.0092 10.0467C10.9227 10.6422 12.5322 11.6802 12.5322 11.6802C13.2349 12.1617 13.6392 12.9387 13.6392 13.7757V15.4954H16.0512V13.7757C16.0512 13.1487 15.7504 12.5682 15.2352 12.2157Z"/>
            <path fill-rule="evenodd" clip-rule="evenodd" d="M12.186 12.2157C12.186 12.2157 10.7333 11.2789 9.80329 10.6737C9.64879 10.5732 9.51154 10.4824 9.39454 10.4067C9.30754 10.3489 9.22954 10.2979 9.17179 10.2597C9.09079 10.2057 9.04879 10.1194 9.02929 10.0204C9.0473 9.92815 9.04579 9.8254 9.02929 9.7234C9.0578 9.5404 9.12304 9.3634 9.17704 9.2734C9.21754 9.20665 9.26254 9.11965 9.30604 9.03565C9.38854 8.87965 9.4748 8.7064 9.57305 8.50315C9.57605 8.4979 9.57754 8.4934 9.58054 8.4874C9.65554 8.3329 9.7358 8.1664 9.82354 7.99165C10.0455 7.8589 10.2938 7.5964 10.3793 6.97765C10.428 6.62515 10.3365 6.3469 10.2398 6.1639C10.2225 5.43115 10.0253 4.79515 9.70129 4.2889C9.61204 4.1494 9.51604 4.0174 9.40729 3.89965C9.29179 3.77365 9.16655 3.6589 9.03005 3.55915C8.6048 3.2509 8.0873 3.0769 7.50529 3.0769C5.9333 3.0769 4.82479 4.32865 4.77229 6.1594C4.67479 6.34315 4.58179 6.6229 4.63129 6.9784C4.71829 7.6069 4.97404 7.8679 5.18704 7.99165C5.27404 8.1664 5.35504 8.3329 5.42929 8.4874C5.58379 8.80765 5.71654 9.0799 5.83205 9.2734C5.9498 9.46765 6.12905 10.0662 5.83804 10.2597C5.24404 10.6549 2.82529 12.2157 2.81329 12.2232C2.30929 12.5682 2.00854 13.1487 2.00854 13.7757V15.4954H5.05729H13.002V13.7757C13.002 13.1487 12.7013 12.5682 12.186 12.2157Z"/>
        </symbol>
</svg>