<svg width="18" height="18" viewBox="0 0 18 18" fill="none" xmlns="http://www.w3.org/2000/svg">
<g opacity="0.01">
<path fill-rule="evenodd" clip-rule="evenodd" d="M0 18H18V0H0V18Z" fill="white"/>
<path fill-rule="evenodd" clip-rule="evenodd" d="M1.5 16.5H16.5V1.5H1.5V16.5Z" fill="white"/>
</g>
<path fill-rule="evenodd" clip-rule="evenodd" d="M10.9526 14.0566C11.2946 13.3614 11.5458 12.4816 11.7026 11.5179H13.8483C13.2311 12.6826 12.1998 13.5916 10.9526 14.0566ZM4.30159 11.5179H6.44734C6.60484 12.4816 6.85609 13.3614 7.19734 14.0566C5.95009 13.5916 4.91884 12.6826 4.30159 11.5179ZM7.19734 3.94365C6.85534 4.6389 6.60484 5.51865 6.44734 6.48315H4.30084C4.91809 5.3184 5.94934 4.40865 7.19734 3.94365ZM13.8491 6.48315H11.7026C11.5458 5.51865 11.2946 4.6389 10.9526 3.94365C12.2006 4.40865 13.2326 5.3184 13.8491 6.48315ZM11.8481 7.68315H14.3058C14.4123 8.1054 14.4753 8.5449 14.4753 9.00015C14.4753 9.4554 14.4123 9.89565 14.3058 10.3186H11.8473C11.8826 9.88365 11.9021 9.4419 11.9021 9.00015C11.9021 8.55915 11.8826 8.1174 11.8481 7.68315ZM9.07534 3.60015C9.47509 3.60015 10.1471 4.6044 10.4883 6.48315H7.66159C8.00284 4.6044 8.67484 3.60015 9.07534 3.60015ZM3.67459 9.00015C3.67459 8.5449 3.73759 8.1054 3.84409 7.68315H6.30184C6.26734 8.1174 6.24859 8.55915 6.24859 9.00015C6.24859 9.4419 6.26734 9.88365 6.30259 10.3186H3.84409C3.73759 9.89565 3.67459 9.4554 3.67459 9.00015ZM7.50334 10.3186C7.46809 9.90765 7.44784 9.4689 7.44784 9.00015C7.44784 8.5314 7.46809 8.09415 7.50334 7.68315H10.6466C10.6818 8.09415 10.7021 8.5314 10.7021 9.00015C10.7021 9.4689 10.6818 9.90765 10.6466 10.3186H7.50334ZM9.07534 14.4001C8.67484 14.4001 8.00284 13.3959 7.66159 11.5179H10.4883C10.1471 13.3959 9.47509 14.4001 9.07534 14.4001ZM9.07534 2.40015C5.43559 2.40015 2.47534 5.3604 2.47534 9.00015C2.47534 12.6391 5.43559 15.6001 9.07534 15.6001C12.7143 15.6001 15.6746 12.6391 15.6746 9.00015C15.6746 5.3604 12.7143 2.40015 9.07534 2.40015Z" fill="#F5F5F5"/>
</svg>
