<svg width="18" height="18" viewBox="0 0 18 18" fill="none" xmlns="http://www.w3.org/2000/svg">
<g opacity="0.01">
<rect width="18" height="18" fill="white"/>
<rect opacity="0.7" x="1.5" y="1.5" width="15" height="15" fill="white"/>
</g>
<path fill-rule="evenodd" clip-rule="evenodd" d="M6.6427 4.89956C6.6427 3.61856 7.6852 2.57606 8.9662 2.57606C10.2472 2.57606 11.289 3.61856 11.289 4.89956V5.88506H6.6427V4.89956ZM8.1157 9.99431C8.1157 9.50606 8.5117 9.11081 8.99995 9.11081C9.4882 9.11081 9.8842 9.50606 9.8842 9.99431C9.8842 10.3468 9.6742 10.6461 9.37495 10.7878V12.3906H8.62495V10.7878C8.32645 10.6461 8.1157 10.3468 8.1157 9.99431ZM13.875 5.88506H12.264V4.89956C12.264 3.08081 10.7842 1.60181 8.9662 1.60181C7.14745 1.60181 5.6677 3.08081 5.6677 4.89956V5.88506H4.12495C3.44245 5.88506 2.88745 6.44081 2.88745 7.12256V14.4111C2.88745 15.0936 3.44245 15.6486 4.12495 15.6486H13.875C14.5575 15.6486 15.1125 15.0936 15.1125 14.4111V7.12256C15.1125 6.44081 14.5575 5.88506 13.875 5.88506Z" fill="#F5F5F5"/>
</svg>
