<svg width="18" height="18" viewBox="0 0 18 18" fill="none" xmlns="http://www.w3.org/2000/svg">
<g opacity="0.01">
<rect width="18" height="18" fill="white"/>
<rect opacity="0.7" x="1.5" y="1.5" width="15" height="15" fill="white"/>
</g>
<path fill-rule="evenodd" clip-rule="evenodd" d="M13.9073 5.76568L9.00003 9.88318L4.09278 5.76568C3.93378 5.63218 3.91353 5.39668 4.04703 5.23768C4.17903 5.07943 4.41678 5.05843 4.57503 5.19118L9.00003 8.90518L13.425 5.19118C13.5833 5.05693 13.8203 5.07868 13.9538 5.23768C14.0865 5.39668 14.0663 5.63218 13.9073 5.76568ZM14.0235 3.39868H3.97653C3.08703 3.39868 2.36328 4.12243 2.36328 5.01118V12.9799C2.36328 13.8694 3.08703 14.5932 3.97653 14.5932H14.0235C14.913 14.5932 15.6368 13.8694 15.6368 12.9799V5.01118C15.6368 4.12243 14.913 3.39868 14.0235 3.39868Z" fill="#F5F5F5"/>
</svg>
