<svg width="18" height="18" viewBox="0 0 18 18" fill="none" xmlns="http://www.w3.org/2000/svg">
<g opacity="0.01">
<rect width="18" height="18" fill="white"/>
<rect opacity="0.7" x="1.5" y="1.5" width="15" height="15" fill="white"/>
</g>
<path fill-rule="evenodd" clip-rule="evenodd" d="M9.00003 10.8237C7.99428 10.8237 7.17603 10.0054 7.17603 8.99966C7.17603 7.99466 7.99428 7.17641 9.00003 7.17641C10.0058 7.17641 10.824 7.99466 10.824 8.99966C10.824 10.0054 10.0058 10.8237 9.00003 10.8237ZM15.6008 11.0959L14.1653 9.97541L14.205 9.63491C14.2328 9.42266 14.2455 9.21041 14.2455 8.99966C14.2455 8.77916 14.2313 8.55791 14.2028 8.33816L14.1578 7.99241L15.585 6.87716C15.7763 6.72716 15.828 6.45941 15.7065 6.24866L14.7195 4.54016C14.598 4.32866 14.3385 4.24091 14.1143 4.33241L12.426 5.01566L12.1508 4.80791C11.802 4.54541 11.4233 4.32791 11.0258 4.16141L10.7048 4.02716L10.4543 2.23616C10.4213 1.99541 10.215 1.81616 9.97203 1.81616H7.99803C7.75503 1.81616 7.54878 1.99541 7.51578 2.23616L7.26378 4.03916L6.94578 4.17416C6.54753 4.34291 6.17178 4.56191 5.82453 4.82591L5.54928 5.03741L3.87003 4.35716C3.64353 4.26716 3.38628 4.35491 3.26478 4.56566L2.27778 6.27641C2.15703 6.48641 2.20878 6.75416 2.40003 6.90341L3.83328 8.02391L3.79353 8.36366C3.76728 8.57591 3.75453 8.78966 3.75453 8.99966C3.75453 9.22091 3.76953 9.44366 3.79728 9.66491L3.84153 10.0084L2.41503 11.1229C2.22378 11.2722 2.17203 11.5407 2.29353 11.7507L3.27978 13.4599C3.40053 13.6699 3.65853 13.7584 3.88503 13.6677L5.57403 12.9844L5.84928 13.1914C6.19578 13.4532 6.57453 13.6707 6.97428 13.8387L7.29453 13.9729L7.54578 15.7639C7.57878 16.0047 7.78503 16.1839 8.02803 16.1839H10.002C10.245 16.1839 10.4513 16.0047 10.4843 15.7639L10.7363 13.9609L11.0543 13.8259C11.4503 13.6587 11.8268 13.4397 12.1755 13.1734L12.4508 12.9627L14.13 13.6414C14.3558 13.7322 14.613 13.6444 14.7345 13.4337L15.7223 11.7244C15.8438 11.5137 15.792 11.2452 15.6008 11.0959Z" fill="#F5F5F5"/>
</svg>
