<svg width="18" height="18" viewBox="0 0 18 18" fill="none" xmlns="http://www.w3.org/2000/svg">
<g opacity="0.01">
<rect width="18" height="18" fill="white"/>
<rect opacity="0.7" x="1.5" y="1.5" width="15" height="15" fill="white"/>
</g>
<path fill-rule="evenodd" clip-rule="evenodd" d="M15.2352 12.2157C15.2352 12.2157 12.8149 10.6549 12.2209 10.2597C11.9307 10.0662 12.1099 9.46765 12.2262 9.2734C12.3432 9.0799 12.4752 8.80765 12.6297 8.4874C12.7047 8.3329 12.7849 8.1664 12.8727 7.99165C13.0947 7.8589 13.3429 7.5964 13.4284 6.97765C13.4772 6.62515 13.3857 6.3469 13.2889 6.1639C13.2454 4.34065 12.1324 3.0769 10.5544 3.0769C10.2289 3.0769 9.92967 3.1429 9.64917 3.24415C9.78192 3.3619 9.90567 3.4909 10.0189 3.6319C10.1307 3.77065 10.2349 3.91615 10.3272 4.0759C10.6384 4.61965 10.8357 5.2699 10.8724 6.00865C11.0119 6.33565 11.0614 6.6994 11.0112 7.0639C10.9272 7.66915 10.6962 8.12215 10.3234 8.4184C10.2642 8.53915 10.2087 8.65465 10.1554 8.7649C10.0707 8.9389 9.99342 9.0979 9.91992 9.24115C9.84942 9.37915 9.78417 9.5014 9.72342 9.60265C9.69567 9.65065 9.66867 9.74215 9.65742 9.8164C9.75417 9.88015 9.87492 9.9589 10.0092 10.0467C10.9227 10.6422 12.5322 11.6802 12.5322 11.6802C13.2349 12.1617 13.6392 12.9387 13.6392 13.7757V15.4954H16.0512V13.7757C16.0512 13.1487 15.7504 12.5682 15.2352 12.2157Z" fill="#F5F5F5"/>
<path fill-rule="evenodd" clip-rule="evenodd" d="M12.186 12.2157C12.186 12.2157 10.7333 11.2789 9.80329 10.6737C9.64879 10.5732 9.51154 10.4824 9.39454 10.4067C9.30754 10.3489 9.22954 10.2979 9.17179 10.2597C9.09079 10.2057 9.04879 10.1194 9.02929 10.0204C9.0473 9.92815 9.04579 9.8254 9.02929 9.7234C9.0578 9.5404 9.12304 9.3634 9.17704 9.2734C9.21754 9.20665 9.26254 9.11965 9.30604 9.03565C9.38854 8.87965 9.4748 8.7064 9.57305 8.50315C9.57605 8.4979 9.57754 8.4934 9.58054 8.4874C9.65554 8.3329 9.7358 8.1664 9.82354 7.99165C10.0455 7.8589 10.2938 7.5964 10.3793 6.97765C10.428 6.62515 10.3365 6.3469 10.2398 6.1639C10.2225 5.43115 10.0253 4.79515 9.70129 4.2889C9.61204 4.1494 9.51604 4.0174 9.40729 3.89965C9.29179 3.77365 9.16655 3.6589 9.03005 3.55915C8.6048 3.2509 8.0873 3.0769 7.50529 3.0769C5.9333 3.0769 4.82479 4.32865 4.77229 6.1594C4.67479 6.34315 4.58179 6.6229 4.63129 6.9784C4.71829 7.6069 4.97404 7.8679 5.18704 7.99165C5.27404 8.1664 5.35504 8.3329 5.42929 8.4874C5.58379 8.80765 5.71654 9.0799 5.83205 9.2734C5.9498 9.46765 6.12905 10.0662 5.83804 10.2597C5.24404 10.6549 2.82529 12.2157 2.81329 12.2232C2.30929 12.5682 2.00854 13.1487 2.00854 13.7757V15.4954H5.05729H13.002V13.7757C13.002 13.1487 12.7013 12.5682 12.186 12.2157Z" fill="#F5F5F5"/>
</svg>
