<svg width="18" height="18" viewBox="0 0 18 18" fill="none" xmlns="http://www.w3.org/2000/svg">
<g opacity="0.01">
<path fill-rule="evenodd" clip-rule="evenodd" d="M0 18H18V0H0V18Z" fill="white"/>
<path fill-rule="evenodd" clip-rule="evenodd" d="M1.5 16.5H16.5V1.5H1.5V16.5Z" fill="white"/>
</g>
<path fill-rule="evenodd" clip-rule="evenodd" d="M7.675 10.0569C7.5025 9.7847 7.31275 9.47345 7.0345 8.95595C6.964 8.9147 6.68875 8.74145 6.604 8.1662C6.565 7.89545 6.67525 7.70495 6.73975 7.61945C6.73975 7.61195 6.739 7.60595 6.739 7.5992C6.739 6.16745 7.726 5.17145 9.01075 5.17145C10.2955 5.17145 11.2833 6.16745 11.2833 7.5992C11.2833 7.60595 11.2825 7.61195 11.2825 7.61945C11.347 7.70495 11.4573 7.89545 11.4175 8.1662C11.3335 8.74145 11.0583 8.9147 10.987 8.95595C10.7095 9.47345 10.5198 9.7847 10.3473 10.0569C10.1455 10.3757 10.1088 10.9389 10.4808 11.1999C10.7283 11.3739 11.863 12.1547 12.661 12.7037C11.6358 13.6524 10.273 14.5209 9.01675 15.1599C7.741 14.5097 6.382 13.6434 5.36275 12.7022C6.16075 12.1532 7.29325 11.3739 7.54075 11.1999C7.91275 10.9389 7.87675 10.3757 7.675 10.0569ZM15.2365 3.3227C15.2358 3.1022 15.0858 2.9087 14.872 2.8532C14.0478 2.63795 11.827 2.1377 9.01075 2.1377C5.84575 2.1377 3.5455 2.7617 3.11725 2.88695C2.9095 2.9477 2.7655 3.1382 2.7655 3.35495V9.96469C2.7655 12.9204 7.36525 15.4307 8.7775 16.1304C8.84575 16.1649 8.93575 16.1867 9.01075 16.1867C9.0565 16.1867 9.1165 16.1754 9.16 16.1634C9.18925 16.1552 9.21625 16.1439 9.24325 16.1312C10.654 15.4322 15.256 12.9212 15.256 9.9632L15.2365 3.3227Z" fill="#F5F5F5"/>
</svg>
