<svg width="18" height="18" viewBox="0 0 18 18" fill="none" xmlns="http://www.w3.org/2000/svg">
<g opacity="0.01">
<rect width="18" height="18" fill="white"/>
<rect opacity="0.7" x="1.5" y="1.5" width="15" height="15" fill="white"/>
</g>
<path fill-rule="evenodd" clip-rule="evenodd" d="M11.9394 4.87256L7.8683 8.28845L3.79723 4.87256C3.66533 4.76181 3.64853 4.56644 3.75928 4.43453C3.86879 4.30325 4.06603 4.28583 4.19731 4.39596L7.8683 7.4771L11.5393 4.39596C11.6706 4.28458 11.8672 4.30263 11.9779 4.43453C12.0881 4.56644 12.0713 4.76181 11.9394 4.87256ZM12.0366 2.90894H3.70164C2.96371 2.90894 2.36328 3.50936 2.36328 4.24667V10.8576C2.36328 11.5955 2.96371 12.1959 3.70164 12.1959H12.0366C12.7746 12.1959 13.375 11.5955 13.375 10.8576V4.24667C13.375 3.50936 12.7746 2.90894 12.0366 2.90894Z" fill="#F5F5F5"/>
<path d="M14.5059 3.98096V11.9C14.5059 12.6456 13.9014 13.25 13.1559 13.25H3.49414" stroke="white" stroke-width="0.6"/>
<path d="M15.6875 5.19971V13.1188C15.6875 13.8643 15.0831 14.4688 14.3375 14.4688H4.67578" stroke="white" stroke-width="0.6"/>
</svg>
