<svg width="20" height="20" viewBox="0 0 20 20" fill="none" xmlns="http://www.w3.org/2000/svg">
<g opacity="0.01">
<rect x="-0.000976562" width="20" height="20" fill="white" fill-opacity="0.5"/>
<rect opacity="0.7" x="1.66577" y="1.66675" width="16.6667" height="16.6667" fill="white" fill-opacity="0.5"/>
</g>
<path fill-rule="evenodd" clip-rule="evenodd" d="M7.37976 5.44415C7.37976 4.02081 8.5381 2.86248 9.96143 2.86248C11.3848 2.86248 12.5423 4.02081 12.5423 5.44415V6.53914H7.37976V5.44415ZM9.01645 11.1048C9.01645 10.5623 9.45645 10.1231 9.99895 10.1231C10.5414 10.1231 10.9814 10.5623 10.9814 11.1048C10.9814 11.4965 10.7481 11.829 10.4156 11.9865V13.7673H9.58228V11.9865C9.25062 11.829 9.01645 11.4965 9.01645 11.1048ZM15.4156 6.53895H13.6256V5.44395C13.6256 3.42312 11.9814 1.77979 9.96144 1.77979C7.94061 1.77979 6.29644 3.42312 6.29644 5.44395V6.53895H4.58228C3.82394 6.53895 3.20728 7.15645 3.20728 7.91395V16.0123C3.20728 16.7706 3.82394 17.3873 4.58228 17.3873H15.4156C16.1739 17.3873 16.7906 16.7706 16.7906 16.0123V7.91395C16.7906 7.15645 16.1739 6.53895 15.4156 6.53895Z" fill="white" fill-opacity="0.5"/>
</svg>
