<svg width="200" height="120" viewBox="0 0 200 120" fill="none" xmlns="http://www.w3.org/2000/svg">
<rect x="31.8379" y="45.8994" width="61" height="61" rx="30.5" fill="#282A31"/>
<g clip-path="url(#clip0_60_5839)">
<path d="M67.0224 61.9873L62.5794 69.7627L58.1363 61.9873H43.1914L62.5794 95.6133L81.9673 61.9873H67.0224Z" fill="#68B587"/>
<path d="M67.0224 61.9873L62.5794 69.7627L58.1363 61.9873H50.9668L62.5794 82.1831L74.192 61.9873H67.0224Z" fill="#314356"/>
</g>
<path d="M157.309 45.6672C157.928 45.3099 158.69 45.3099 159.309 45.6672L184.424 60.1671C185.042 60.5243 185.424 61.1846 185.424 61.8991V90.8989C185.424 91.6134 185.042 92.2737 184.424 92.6309L159.309 107.131C158.69 107.488 157.928 107.488 157.309 107.131L132.195 92.6309C131.576 92.2737 131.195 91.6134 131.195 90.8989V61.8991C131.195 61.1846 131.576 60.5243 132.195 60.1671L157.309 45.6672Z" fill="#282A31"/>
<g clip-path="url(#clip1_60_5839)">
<path d="M177.593 76.4033C177.593 73.8435 174.393 71.4175 169.487 69.9131C170.619 64.9038 170.116 60.9183 167.899 59.6423C167.388 59.343 166.79 59.2012 166.138 59.2012V60.9577C166.499 60.9577 166.79 61.0286 167.034 61.1625C168.103 61.7768 168.567 64.1161 168.205 67.1249C168.119 67.8653 167.977 68.645 167.804 69.4406C166.263 69.0625 164.581 68.7711 162.812 68.582C161.751 67.1249 160.65 65.8017 159.541 64.6438C162.104 62.2573 164.51 60.9498 166.146 60.9498V59.1934C163.983 59.1934 161.153 60.7371 158.291 63.4151C155.43 60.7529 152.599 59.2249 150.437 59.2249V60.9813C152.065 60.9813 154.478 62.2809 157.041 64.6517C155.941 65.8095 154.84 67.1249 153.794 68.582C152.017 68.7711 150.335 69.0625 148.794 69.4484C148.613 68.6608 148.48 67.8968 148.385 67.1643C148.016 64.1555 148.472 61.8162 149.533 61.194C149.769 61.0522 150.076 60.9892 150.437 60.9892V59.2327C149.777 59.2327 149.179 59.3745 148.66 59.6738C146.451 60.9498 145.956 64.9274 147.096 69.921C142.206 71.4333 139.021 73.8513 139.021 76.4033C139.021 78.9631 142.221 81.3891 147.127 82.8935C145.995 87.9028 146.498 91.8883 148.715 93.1643C149.226 93.4636 149.824 93.6054 150.484 93.6054C152.646 93.6054 155.477 92.0616 158.339 89.3836C161.2 92.0458 164.031 93.5739 166.193 93.5739C166.853 93.5739 167.451 93.4321 167.97 93.1328C170.179 91.8568 170.674 87.8792 169.534 82.8856C174.409 81.3812 177.593 78.9553 177.593 76.4033ZM167.356 71.1497C167.065 72.1658 166.704 73.2134 166.295 74.2609C165.973 73.6308 165.635 73.0007 165.265 72.3706C164.903 71.7405 164.518 71.1261 164.133 70.5275C165.249 70.6929 166.326 70.8977 167.356 71.1497ZM163.755 79.5381C163.142 80.6014 162.513 81.6096 161.861 82.5469C160.689 82.6493 159.502 82.7044 158.307 82.7044C157.12 82.7044 155.933 82.6493 154.769 82.5548C154.117 81.6175 153.48 80.6172 152.867 79.5617C152.269 78.5299 151.727 77.4824 151.231 76.4269C151.719 75.3715 152.269 74.3161 152.859 73.2842C153.472 72.2209 154.101 71.2127 154.753 70.2755C155.925 70.1731 157.112 70.1179 158.307 70.1179C159.494 70.1179 160.681 70.1731 161.845 70.2676C162.498 71.2049 163.134 72.2052 163.748 73.2606C164.345 74.2924 164.888 75.34 165.383 76.3954C164.888 77.4509 164.345 78.5063 163.755 79.5381ZM166.295 78.5142C166.719 79.5696 167.081 80.6251 167.38 81.649C166.35 81.901 165.265 82.1137 164.141 82.2791C164.526 81.6726 164.911 81.0504 165.273 80.4124C165.635 79.7823 165.973 79.1443 166.295 78.5142ZM158.323 86.9183C157.592 86.1622 156.86 85.3194 156.137 84.3978C156.845 84.4294 157.568 84.453 158.299 84.453C159.038 84.453 159.769 84.4372 160.485 84.3978C159.777 85.3194 159.046 86.1622 158.323 86.9183ZM152.473 82.2791C151.357 82.1137 150.28 81.9089 149.25 81.6569C149.541 80.6408 149.903 79.5932 150.311 78.5457C150.634 79.1758 150.972 79.8059 151.341 80.436C151.711 81.0661 152.088 81.6805 152.473 82.2791ZM158.283 65.8883C159.015 66.6444 159.746 67.4872 160.469 68.4088C159.762 68.3772 159.038 68.3536 158.307 68.3536C157.568 68.3536 156.837 68.3694 156.121 68.4088C156.829 67.4872 157.56 66.6444 158.283 65.8883ZM152.466 70.5275C152.08 71.134 151.695 71.7562 151.333 72.3942C150.972 73.0243 150.634 73.6544 150.311 74.2845C149.887 73.2291 149.525 72.1737 149.226 71.1497C150.256 70.9056 151.341 70.6929 152.466 70.5275ZM145.35 80.3888C142.567 79.1994 140.767 77.6399 140.767 76.4033C140.767 75.1667 142.567 73.5993 145.35 72.4178C146.027 72.1264 146.766 71.8665 147.528 71.6223C147.976 73.1661 148.566 74.7729 149.297 76.4191C148.574 78.0573 147.992 79.6563 147.552 81.1922C146.773 80.948 146.034 80.6802 145.35 80.3888ZM149.58 91.6441C148.511 91.0298 148.047 88.6905 148.409 85.6817C148.495 84.9413 148.637 84.1616 148.81 83.366C150.351 83.7441 152.033 84.0355 153.802 84.2246C154.864 85.6817 155.964 87.0049 157.073 88.1628C154.51 90.5493 152.104 91.8568 150.469 91.8568C150.115 91.8489 149.816 91.778 149.58 91.6441ZM168.229 85.6423C168.598 88.6511 168.142 90.9904 167.081 91.6126C166.845 91.7544 166.539 91.8174 166.177 91.8174C164.55 91.8174 162.136 90.5178 159.573 88.147C160.674 86.9892 161.774 85.6738 162.82 84.2167C164.597 84.0277 166.279 83.7362 167.82 83.3503C168.001 84.1458 168.142 84.9098 168.229 85.6423ZM171.256 80.3888C170.58 80.6802 169.841 80.9401 169.078 81.1843C168.63 79.6405 168.04 78.0337 167.309 76.3875C168.032 74.7493 168.614 73.1503 169.054 71.6144C169.833 71.8586 170.572 72.1264 171.264 72.4178C174.047 73.6072 175.847 75.1667 175.847 76.4033C175.839 77.6399 174.039 79.2073 171.256 80.3888Z" fill="#61DAFB"/>
<path d="M158.3 80.0027C160.284 80.0027 161.893 78.3912 161.893 76.4032C161.893 74.4153 160.284 72.8037 158.3 72.8037C156.316 72.8037 154.707 74.4153 154.707 76.4032C154.707 78.3912 156.316 80.0027 158.3 80.0027Z" fill="#61DAFB"/>
</g>
<g filter="url(#filter0_d_60_5839)">
<circle cx="109.05" cy="42.8966" r="36.1027" fill="#282A31"/>
<circle cx="109.05" cy="42.8966" r="36.1027" stroke="#131315" stroke-width="4"/>
</g>
<g clip-path="url(#clip2_60_5839)">
<path d="M93.0982 61.2901L90 22.8662L127 22.9434L123.724 61.2901L108.64 65.7226L93.0982 61.2901Z" fill="#E34F26"/>
<path d="M108.639 62.0115V26.5254L123.876 26.5769L121.158 58.3261L108.639 62.0115Z" fill="#EF652A"/>
<path d="M119.687 35.3906L120.119 30.7002H96.6797L97.9747 45.0803H114.151L113.517 51.2136L108.336 52.6307L103.079 51.0846L102.8 47.4252H98.1525L98.7875 54.8987L108.336 57.6046L117.96 54.8987L119.255 40.3127H102.267L101.784 35.3906H119.687Z" fill="white"/>
</g>
<defs>
<filter id="filter0_d_60_5839" x="66.9473" y="0.793945" width="84.2051" height="84.2051" filterUnits="userSpaceOnUse" color-interpolation-filters="sRGB">
<feFlood flood-opacity="0" result="BackgroundImageFix"/>
<feColorMatrix in="SourceAlpha" type="matrix" values="0 0 0 0 0 0 0 0 0 0 0 0 0 0 0 0 0 0 127 0" result="hardAlpha"/>
<feOffset/>
<feGaussianBlur stdDeviation="2"/>
<feComposite in2="hardAlpha" operator="out"/>
<feColorMatrix type="matrix" values="0 0 0 0 0 0 0 0 0 0 0 0 0 0 0 0 0 0 0.2 0"/>
<feBlend mode="normal" in2="BackgroundImageFix" result="effect1_dropShadow_60_5839"/>
<feBlend mode="normal" in="SourceGraphic" in2="effect1_dropShadow_60_5839" result="shape"/>
</filter>
<clipPath id="clip0_60_5839">
<rect width="38.7759" height="38.7759" fill="white" transform="translate(43.1914 58.6553)"/>
</clipPath>
<clipPath id="clip1_60_5839">
<rect width="38.5712" height="44.031" fill="white" transform="translate(139.021 54.3838)"/>
</clipPath>
<clipPath id="clip2_60_5839">
<rect width="37" height="43" fill="white" transform="translate(90 22.7939)"/>
</clipPath>
</defs>
</svg>
