<svg width="149" height="71" viewBox="0 0 149 71" fill="none" xmlns="http://www.w3.org/2000/svg">
<g clip-path="url(#clip0_60_6533)">
<path d="M54.3115 58.6641H54.2881C53.7259 65.3363 41.9198 70.665 27.4355 70.665C12.9515 70.6649 1.14618 65.3362 0.583984 58.6641H0.560547V10.6709H54.3115V58.6641Z" fill="#235DEA"/>
<path d="M54.3047 58.293C54.3047 62.6075 49.4479 66.4089 42.0703 68.6426V9.79199H54.3047V58.293Z" fill="#1F50C8"/>
<ellipse cx="27.432" cy="10.6718" rx="26.8754" ry="9.99893" fill="#6187F7"/>
<path d="M0.56543 24.7744C0.622623 30.2788 12.6322 34.7343 27.4395 34.7344C42.1276 34.7344 54.0623 30.3503 54.3096 24.9072V28.6592H54.3086C54.3087 28.6695 54.3096 28.6801 54.3096 28.6904C54.3091 33.6143 42.2762 37.6055 27.4336 37.6055C12.5912 37.6054 0.559108 33.6142 0.558594 28.6904C0.558594 28.6801 0.559465 28.6695 0.55957 28.6592H0.558594V24.7744H0.56543Z" fill="black"/>
<path d="M0.56543 24.7744C0.622623 30.2788 12.6322 34.7343 27.4395 34.7344C42.1276 34.7344 54.0623 30.3503 54.3096 24.9072V28.6592H54.3086C54.3087 28.6695 54.3096 28.6801 54.3096 28.6904C54.3091 33.6143 42.2762 37.6055 27.4336 37.6055C12.5912 37.6054 0.559108 33.6142 0.558594 28.6904C0.558594 28.6801 0.559465 28.6695 0.55957 28.6592H0.558594V24.7744H0.56543Z" fill="black"/>
<path d="M0.56543 43.6738C0.621241 49.1787 12.6312 53.6347 27.4395 53.6348C42.1276 53.6348 54.0623 49.2507 54.3096 43.8076V47.5586H54.3086C54.3087 47.5686 54.3096 47.5789 54.3096 47.5889C54.3091 52.5127 42.2762 56.5039 27.4336 56.5039C12.5912 56.5038 0.559108 52.5127 0.558594 47.5889C0.558594 47.5789 0.559471 47.5686 0.55957 47.5586H0.558594V43.6738H0.56543Z" fill="black"/>
<ellipse cx="46.0109" cy="24.7745" rx="2.17495" ry="2.17786" fill="black"/>
<ellipse cx="46.0109" cy="43.674" rx="2.17495" ry="2.17786" fill="black"/>
<ellipse cx="46.0109" cy="60.3204" rx="2.17495" ry="2.17786" fill="black"/>
<path d="M148.99 59.3594H148.982C148.645 65.7872 137.336 70.9492 123.434 70.9492C109.531 70.9492 98.2222 65.7872 97.8848 59.3594H97.877V27.3633H148.99V59.3594Z" fill="#235DEA"/>
<path d="M148.998 58.9443H148.98C148.681 63.1645 144.139 66.8606 137.359 69.0635V27.3643H148.998V58.9443Z" fill="#1F50C8"/>
<ellipse cx="141.719" cy="40.7741" rx="2.06825" ry="2.07102" fill="black"/>
<ellipse cx="141.719" cy="57.8708" rx="2.06825" ry="2.07102" fill="black"/>
<ellipse cx="123.434" cy="27.3629" rx="25.5569" ry="9.50838" fill="#6187F7"/>
<path d="M97.8838 40.7725C97.9372 46.0071 109.358 50.2441 123.439 50.2441C137.382 50.2441 148.716 46.0902 148.99 40.9268V44.4668H148.989C148.989 44.4764 148.99 44.4865 148.99 44.4961C148.99 49.1783 137.548 52.9736 123.434 52.9736C109.319 52.9736 97.8776 49.1783 97.877 44.4961V40.7725H97.8838Z" fill="black"/>
<path d="M70.1793 36.6849C69.1217 37.0028 68.0059 36.4024 67.6878 35.3448C67.3701 34.2873 67.9699 33.1722 69.0272 32.854L70.1793 36.6849ZM82.9336 30.2207C84.1009 31.5069 85.3403 33.0775 86.0718 34.6269L86.2109 34.9367L86.2857 35.1423C86.4329 35.6269 86.3911 36.1523 86.164 36.6109C86.1514 36.6474 86.1401 36.6845 86.1253 36.7207C86.0009 37.0239 85.8085 37.2781 85.5755 37.4777C85.0866 38.0443 84.4803 38.506 83.9739 38.8534C83.1449 39.4221 82.1806 39.9507 81.2984 40.3922C80.4075 40.838 79.5542 41.2179 78.9271 41.4852C78.6124 41.6194 78.3515 41.7258 78.1679 41.7999C78.0762 41.837 78.0032 41.8657 77.9524 41.8857C77.9271 41.8957 77.9071 41.9038 77.893 41.9093C77.886 41.912 77.8799 41.9146 77.8758 41.9162C77.8739 41.9169 77.872 41.9174 77.8708 41.9179L77.8693 41.9192C77.8691 41.9192 77.8683 41.9192 77.1475 40.0539C76.4322 38.2026 76.4266 38.188 76.4264 38.1879L76.4286 38.1874C76.4305 38.1867 76.4336 38.185 76.4379 38.1833C76.4476 38.1795 76.4636 38.1738 76.4844 38.1656C76.5259 38.1493 76.5886 38.1241 76.6698 38.0913C76.8329 38.0254 77.07 37.9276 77.3581 37.8048C77.9369 37.5581 78.712 37.2136 79.5084 36.8151C79.6643 36.7371 79.8186 36.6564 79.9718 36.5762C76.7423 35.6866 73.736 35.6159 70.1793 36.6849L69.6037 34.7685L69.0272 32.854C72.8336 31.7099 76.1592 31.6601 79.4342 32.3343C78.471 31.3275 77.5256 30.4726 76.9011 29.9683C76.0418 29.2744 75.9073 28.0155 76.601 27.1561C77.2948 26.2969 78.5537 26.1624 79.4131 26.856C80.3166 27.5856 81.66 28.8174 82.9336 30.2207ZM77.868 41.919C76.8378 42.3169 75.6804 41.8045 75.2823 40.7743C74.8843 39.7441 75.3963 38.5862 76.4264 38.1879L77.868 41.919Z" fill="#FAD459"/>
<path d="M84.133 51.6493C85.1616 51.2471 86.3222 51.7553 86.7246 52.7838C87.1267 53.8122 86.6189 54.9722 85.5908 55.3747L84.133 51.6493ZM71.9431 59.1229C70.6757 57.9353 69.3136 56.4697 68.4593 54.9846L68.2957 54.687L68.2045 54.4881C68.0195 54.019 68.0184 53.4945 68.2052 53.0207C68.2152 52.981 68.2237 52.9407 68.2363 52.9012C68.3367 52.586 68.5103 52.3149 68.7293 52.0961C69.1701 51.4949 69.7343 50.9881 70.2091 50.6024C70.9894 49.9687 71.908 49.3639 72.7517 48.8526C73.6036 48.3364 74.4235 47.8888 75.027 47.5717C75.3297 47.4127 75.5812 47.2855 75.7583 47.1967C75.8466 47.1525 75.9171 47.1179 75.9661 47.0938C75.9904 47.0819 76.0098 47.0721 76.0234 47.0655C76.0301 47.0623 76.0361 47.0592 76.04 47.0572C76.0417 47.0564 76.0437 47.0557 76.0448 47.0552L76.0462 47.0538C76.0486 47.0581 76.0916 47.1456 76.9163 48.8547C77.7787 50.6419 77.7855 50.6563 77.7857 50.6563L77.7836 50.657C77.7817 50.6579 77.7787 50.6598 77.7746 50.6618C77.7652 50.6664 77.7496 50.6735 77.7297 50.6832C77.6897 50.7029 77.6291 50.7331 77.5509 50.7723C77.3936 50.8511 77.1652 50.9678 76.888 51.1134C76.331 51.4061 75.5861 51.8121 74.8247 52.2735C74.6759 52.3637 74.5293 52.457 74.3834 52.5491C77.6733 53.1745 80.6751 53.0017 84.133 51.6493L84.8616 53.513L85.5908 55.3747C81.8892 56.8224 78.5784 57.1406 75.2597 56.733C76.3013 57.659 77.3129 58.4352 77.9762 58.8875C78.8887 59.5097 79.1244 60.7536 78.5024 61.6662C77.8802 62.5785 76.6362 62.8142 75.7237 62.1924C74.7643 61.5382 73.3258 60.4187 71.9431 59.1229ZM76.0476 47.0538C77.0423 46.5741 78.2372 46.9913 78.7172 47.986C79.197 48.9807 78.7802 50.1762 77.7857 50.6563L76.0476 47.0538Z" fill="#FAD459"/>
</g>
<defs>
<clipPath id="clip0_60_6533">
<rect width="149" height="71" fill="white"/>
</clipPath>
</defs>
</svg>
