<svg width="94" height="90" viewBox="0 0 94 90" fill="none" xmlns="http://www.w3.org/2000/svg">
<g clip-path="url(#clip0_60_6308)">
<rect x="0.556641" y="32.6338" width="74.4682" height="47.1125" transform="rotate(-0.790971 0.556641 32.6338)" fill="#28292E"/>
<path d="M75.6579 78.7101L1.20213 79.738L38.1039 55.6706L75.6579 78.7101Z" fill="#6187F7"/>
<path d="M37.9067 0.170502L75.0075 31.6025L0.546404 32.6305L37.9067 0.170502Z" fill="#3A3C45"/>
<rect x="10.2539" y="10.2783" width="52.2594" height="59.7078" fill="white"/>
<rect x="21.582" y="21.1729" width="27.4216" height="3.87713" rx="1" transform="rotate(-0.360213 21.582 21.1729)" fill="#111111" fill-opacity="0.3"/>
<rect x="21.6543" y="32.8047" width="27.4216" height="3.87713" rx="1" transform="rotate(-0.360213 21.6543 32.8047)" fill="#111111" fill-opacity="0.3"/>
<path d="M0.556641 32.6377L75.6681 78.7177L1.20701 79.7457L0.556641 32.6377Z" fill="#4B76F7"/>
<path d="M75.0098 31.6045L1.19903 79.7405L75.6601 78.7125L75.0098 31.6045Z" fill="#2F6BFF"/>
<path d="M38.2201 55.1463L38.2201 55.1473L53.6991 54.9336L75.6603 78.7128L38.3015 79.2276L1.19374 79.7399L22.4901 55.3635L38.2201 55.1463Z" fill="#6187F7"/>
<path d="M79.369 90.0004C70.4235 90.0004 61.1842 78.5822 66.0977 70.0307C67.6523 67.325 70.0089 65.1256 72.7428 63.6338C78.2647 60.6164 85.3776 60.7277 89.7137 65.733C92.1406 68.5408 93.4284 72.2489 93.4284 75.9439C93.4275 83.6745 87.1007 90.0004 79.369 90.0004Z" fill="#FAD459"/>
<path d="M79.369 90.0004C70.4235 90.0004 61.1842 78.5822 66.0977 70.0307C67.6523 67.325 70.0089 65.1256 72.7428 63.6338C78.2647 60.6164 85.3776 60.7277 89.7137 65.733C92.1406 68.5408 93.4284 72.2489 93.4284 75.9439C93.4275 83.6745 87.1007 90.0004 79.369 90.0004Z" fill="black" fill-opacity="0.3"/>
<rect x="63.8984" y="60.0049" width="28.1121" height="28.1121" rx="14.0561" fill="#FAD459"/>
<path d="M76.493 79.2931C76.1467 79.293 75.8148 79.1545 75.5711 78.9084L71.9941 75.2958C71.509 74.7833 71.5221 73.9772 72.0236 73.4808C72.5251 72.9844 73.3313 72.9795 73.8388 73.4698L76.405 76.0623L81.9859 69.2975C82.4474 68.765 83.2495 68.698 83.793 69.1465C84.3365 69.595 84.423 70.3952 83.9878 70.9494L77.4935 78.8205C77.2595 79.1025 76.9172 79.2725 76.551 79.2884L76.493 79.2931Z" fill="#215FF5" stroke="#215FF5" stroke-width="0.5"/>
</g>
<defs>
<clipPath id="clip0_60_6308">
<rect width="94" height="90" fill="white"/>
</clipPath>
</defs>
</svg>
