<svg width="200" height="120" viewBox="0 0 200 120" fill="none" xmlns="http://www.w3.org/2000/svg">
<path d="M115.892 16.6914C126.111 20.283 131.483 31.478 127.891 41.6962L122.292 57.6275C118.7 67.8457 107.505 73.2177 97.287 69.6263C87.0688 66.0348 81.6967 54.8398 85.2882 44.6216L90.8877 28.6903C94.4791 18.472 105.674 13.1 115.892 16.6914ZM113.071 24.6981C106.724 22.4677 99.7712 25.8041 97.5404 32.1506L92.643 46.0845C90.4126 52.431 93.7492 59.3842 100.095 61.6151C106.442 63.8458 113.396 60.5094 115.627 54.1629L120.524 40.229C122.755 33.8823 119.418 26.9289 113.071 24.6981Z" fill="#ABABAB"/>
<path d="M115.892 16.6914C126.111 20.283 131.483 31.478 127.891 41.6962L122.292 57.6275C118.7 67.8457 107.505 73.2177 97.287 69.6263C87.0688 66.0348 81.6967 54.8398 85.2882 44.6216L90.8877 28.6903C94.4791 18.472 105.674 13.1 115.892 16.6914ZM113.071 24.6981C106.724 22.4677 99.7712 25.8041 97.5404 32.1506L92.643 46.0845C90.4126 52.431 93.7492 59.3842 100.095 61.6151C106.442 63.8458 113.396 60.5094 115.627 54.1629L120.524 40.229C122.755 33.8823 119.418 26.9289 113.071 24.6981Z" fill="black" fill-opacity="0.2"/>
<path d="M120.69 61.1215C116.027 69.0206 106.29 72.7908 97.3081 69.6341C88.3256 66.4769 83.0887 57.444 84.3931 48.364L92.0087 51.0407C92.3615 55.7159 95.4103 59.9675 100.117 61.6219C104.824 63.2761 109.862 61.8669 113.062 58.4406L120.69 61.1215ZM115.914 16.6983C126.132 20.2899 131.504 31.4851 127.913 41.703L126.674 45.228L119.658 42.7621L120.546 40.2367C122.776 33.8901 119.439 26.9358 113.092 24.705C106.746 22.4744 99.7924 25.8118 97.5616 32.1584L96.674 34.6837L89.6702 32.222L90.9091 28.6971C94.5008 18.4791 105.696 13.1068 115.914 16.6983Z" fill="#ABABAB"/>
<circle cx="96.6089" cy="71.5451" r="31.2643" transform="rotate(19.3654 96.6089 71.5451)" fill="#235DEA"/>
<circle cx="96.6106" cy="71.5443" r="22.2458" transform="rotate(19.3654 96.6106 71.5443)" fill="#6187F7"/>
<circle cx="97.6876" cy="68.4873" r="3.62665" transform="rotate(19.3654 97.6876 68.4873)" fill="black"/>
<path d="M95.4677 68.5808L99.3589 69.9485L98.5266 79.4993L90.1414 76.552L95.4677 68.5808Z" fill="black"/>
<path d="M54.0159 36.3333C66.1751 34.4932 77.2033 40.7423 78.6483 50.291C79.3435 54.8848 77.6928 59.4041 74.4398 63.0636L76.9136 69.3985C77.0442 69.7334 76.9542 70.1147 76.6871 70.3553C76.4199 70.5956 76.0318 70.6458 75.7125 70.481L69.4277 67.2365C66.5095 69.0396 63.0489 70.3372 59.2489 70.9122C47.0898 72.7522 36.0615 66.5032 34.6165 56.9545C33.1714 47.4058 41.8569 38.1734 54.0159 36.3333Z" fill="#FACE3C"/>
<path d="M54.0159 36.3333C66.1751 34.4932 77.2033 40.7423 78.6483 50.291C79.3435 54.8848 77.6928 59.4041 74.4398 63.0636L76.9136 69.3985C77.0442 69.7334 76.9542 70.1147 76.6871 70.3553C76.4199 70.5956 76.0318 70.6458 75.7125 70.481L69.4277 67.2365C66.5095 69.0396 63.0489 70.3372 59.2489 70.9122C47.0898 72.7522 36.0615 66.5032 34.6165 56.9545C33.1714 47.4058 41.8569 38.1734 54.0159 36.3333Z" fill="black" fill-opacity="0.2"/>
<path d="M54.0316 36.431C60.1432 35.5061 65.9692 36.6249 70.436 39.1792C72.9367 41.51 74.6238 44.4526 75.1307 47.8023C76.5756 57.3509 67.8903 66.5834 55.7313 68.4235C49.6178 69.3487 43.7907 68.2278 39.3233 65.6719C36.8245 63.3416 35.1388 60.4003 34.6321 57.0522C33.1871 47.5035 41.8724 38.271 54.0316 36.431Z" fill="#FACE3C"/>
<path d="M54.9948 43.115L53.9329 43.3853C55.2607 49.2316 51.5511 53.1523 47.5122 54.2716L47.7856 55.3167C53.4853 53.8662 57.8525 58.056 58.6043 61.7413L59.6012 61.4876C58.3075 55.6788 62.4064 51.4743 66.0965 50.6506L65.8373 49.632C59.6924 50.9651 55.7196 46.5072 54.9948 43.115Z" fill="#235DEA"/>
</svg>
