<svg width="112" height="85" viewBox="0 0 112 85" fill="none" xmlns="http://www.w3.org/2000/svg">
<g clip-path="url(#clip0_60_6252)">
<rect x="0.351562" y="19.1992" width="60.0833" height="68.6468" transform="rotate(-18.6355 0.351562 19.1992)" fill="#3A3C45"/>
<rect x="14.9766" y="10.0176" width="60.3873" height="68.994" transform="rotate(-5.13307 14.9766 10.0176)" fill="#2F6BFF"/>
<rect x="30.791" y="25.6904" width="31.6864" height="4.48013" rx="1" transform="rotate(-5.13307 30.791 25.6904)" fill="white" fill-opacity="0.9"/>
<rect x="31.9941" y="39.0762" width="31.6864" height="4.48013" rx="1" transform="rotate(-5.13307 31.9941 39.0762)" fill="white" fill-opacity="0.9"/>
<rect x="33.1973" y="52.4629" width="24.8962" height="4.48013" rx="1" transform="rotate(-5.13307 33.1973 52.4629)" fill="white" fill-opacity="0.9"/>
<path d="M59.9541 67.7689C60.1284 67.243 60.8301 67.1453 61.1415 67.6035L63.9249 71.6999C64.0486 71.8819 64.2539 71.9914 64.4739 71.9927L69.4264 72.0221C69.9804 72.0253 70.2902 72.6625 69.9506 73.1002L66.9148 77.0134C66.7799 77.1872 66.7393 77.4162 66.806 77.6259L68.3085 82.3451C68.4766 82.873 67.9663 83.3645 67.4451 83.1768L62.7854 81.4988C62.5784 81.4243 62.3479 81.4564 62.1692 81.5846L58.1452 84.4719C57.6951 84.7949 57.07 84.4615 57.0874 83.9077L57.2434 78.9576C57.2503 78.7377 57.1486 78.5284 56.9713 78.3981L52.9819 75.4633C52.5356 75.135 52.6595 74.4374 53.1916 74.2829L57.9477 72.9015C58.1589 72.8402 58.3265 72.6788 58.3957 72.4699L59.9541 67.7689Z" fill="#111111"/>
<path d="M81.8037 64.7259C81.978 64.2 82.6797 64.1023 82.9911 64.5605L85.7746 68.657C85.8982 68.8389 86.1035 68.9484 86.3235 68.9497L91.276 68.9791C91.83 68.9824 92.1398 69.6195 91.8002 70.0573L88.7644 73.9704C88.6296 74.1442 88.5889 74.3733 88.6556 74.5829L90.1581 79.3021C90.3262 79.8301 89.8159 80.3216 89.2947 80.1338L84.635 78.4559C84.428 78.3813 84.1976 78.4134 84.0188 78.5417L79.9949 81.4289C79.5447 81.7519 78.9196 81.4185 78.937 80.8648L79.093 75.9146C79.0999 75.6947 78.9982 75.4855 78.821 75.3551L74.8315 72.4203C74.3852 72.092 74.5091 71.3945 75.0412 71.2399L79.7973 69.8586C80.0085 69.7972 80.1761 69.6358 80.2453 69.427L81.8037 64.7259Z" fill="#111111"/>
<path d="M103.651 61.6829C103.826 61.157 104.527 61.0593 104.839 61.5176L107.622 65.614C107.746 65.796 107.951 65.9055 108.171 65.9068L113.124 65.9361C113.678 65.9394 113.987 66.5766 113.648 67.0143L110.612 70.9274C110.477 71.1012 110.437 71.3303 110.503 71.5399L112.006 76.2592C112.174 76.7871 111.664 77.2786 111.142 77.0909L106.483 75.4129C106.276 75.3383 106.045 75.3704 105.866 75.4987L101.843 78.386C101.392 78.709 100.767 78.3756 100.785 77.8218L100.941 72.8716C100.948 72.6517 100.846 72.4425 100.669 72.3121L96.6792 69.3774C96.2329 69.049 96.3568 68.3515 96.8889 68.197L101.645 66.8156C101.856 66.7542 102.024 66.5928 102.093 66.384L103.651 61.6829Z" fill="#111111"/>
<path d="M57.7822 66.2464C57.9565 65.7205 58.6582 65.6228 58.9696 66.0811L61.7531 70.1775C61.8767 70.3595 62.082 70.4689 62.302 70.4702L67.2545 70.4996C67.8086 70.5029 68.1183 71.14 67.7787 71.5778L64.7429 75.4909C64.6081 75.6647 64.5674 75.8938 64.6341 76.1034L66.1366 80.8226C66.3047 81.3506 65.7945 81.8421 65.2732 81.6544L60.6135 79.9764C60.4065 79.9018 60.1761 79.9339 59.9973 80.0622L55.9734 82.9494C55.5232 83.2724 54.8981 82.939 54.9156 82.3853L55.0715 77.4351C55.0784 77.2152 54.9767 77.006 54.7995 76.8756L50.8101 73.9408C50.3638 73.6125 50.4877 72.915 51.0197 72.7604L55.7758 71.3791C55.9871 71.3177 56.1546 71.1563 56.2238 70.9475L57.7822 66.2464Z" fill="#FAD459"/>
<path d="M79.6318 63.2034C79.8061 62.6775 80.5078 62.5798 80.8192 63.0381L83.6027 67.1345C83.7263 67.3165 83.9316 67.426 84.1516 67.4273L89.1041 67.4566C89.6582 67.4599 89.9679 68.0971 89.6283 68.5348L86.5925 72.4479C86.4577 72.6218 86.417 72.8508 86.4837 73.0605L87.9862 77.7797C88.1543 78.3076 87.6441 78.7991 87.1228 78.6114L82.4631 76.9334C82.2561 76.8589 82.0257 76.8909 81.8469 77.0192L77.823 79.9065C77.3728 80.2295 76.7477 79.8961 76.7652 79.3423L76.9211 74.3921C76.928 74.1722 76.8263 73.963 76.6491 73.8326L72.6597 70.8979C72.2134 70.5696 72.3373 69.872 72.8693 69.7175L77.6254 68.3361C77.8367 68.2747 78.0042 68.1133 78.0735 67.9045L79.6318 63.2034Z" fill="#FAD459"/>
<path d="M101.479 60.1605C101.654 59.6346 102.355 59.5369 102.667 59.9951L105.45 64.0915C105.574 64.2735 105.779 64.383 105.999 64.3843L110.952 64.4137C111.506 64.4169 111.816 65.0541 111.476 65.4918L108.44 69.405C108.305 69.5788 108.265 69.8078 108.331 70.0175L109.834 74.7367C110.002 75.2646 109.492 75.7561 108.97 75.5684L104.311 73.8904C104.104 73.8159 103.873 73.848 103.695 73.9762L99.6706 76.8635C99.2205 77.1865 98.5954 76.8531 98.6128 76.2993L98.7688 71.3492C98.7757 71.1293 98.674 70.92 98.4967 70.7897L94.5073 67.8549C94.061 67.5266 94.1849 66.829 94.717 66.6745L99.4731 65.2931C99.6843 65.2318 99.8519 65.0704 99.9211 64.8615L101.479 60.1605Z" fill="#FAD459"/>
</g>
<defs>
<clipPath id="clip0_60_6252">
<rect width="112" height="85" fill="white"/>
</clipPath>
</defs>
</svg>
