<svg width="200" height="120" viewBox="0 0 200 120" fill="none" xmlns="http://www.w3.org/2000/svg">
<g clip-path="url(#clip0_60_6308)">
<rect x="57.5449" y="45.6338" width="74.4682" height="47.1125" transform="rotate(-0.790971 57.5449 45.6338)" fill="#28292E"/>
<path d="M132.647 91.7091L58.1924 92.737L95.0941 68.6706L132.647 91.7091Z" fill="#6187F7"/>
<path d="M94.8949 13.1705L131.996 44.6025L57.5347 45.6305L94.8949 13.1705Z" fill="#3A3C45"/>
<rect x="67.2422" y="23.2783" width="52.2594" height="59.7078" fill="white"/>
<rect x="78.5703" y="34.1729" width="27.4216" height="3.87713" rx="1" transform="rotate(-0.360213 78.5703 34.1729)" fill="#111111" fill-opacity="0.3"/>
<rect x="78.6426" y="45.8047" width="27.4216" height="3.87713" rx="1" transform="rotate(-0.360213 78.6426 45.8047)" fill="#111111" fill-opacity="0.3"/>
<path d="M57.5449 45.6377L132.656 91.7177L58.1953 92.7457L57.5449 45.6377Z" fill="#4B76F7"/>
<path d="M131.998 44.6045L58.1873 92.7405L132.648 91.7125L131.998 44.6045Z" fill="#2F6BFF"/>
<path d="M95.2084 68.1463L95.2084 68.1473L110.688 67.9336L132.65 91.7128L95.2908 92.2285L95.2908 92.2276L58.182 92.7399L79.4784 68.3635L95.2084 68.1463Z" fill="#6187F7"/>
<path d="M136.369 103C127.424 103 118.184 91.5822 123.098 83.0307C124.652 80.325 127.009 78.1256 129.743 76.6338C135.265 73.6164 142.378 73.7277 146.714 78.733C149.141 81.5408 150.428 85.2489 150.428 88.9439C150.427 96.6745 144.101 103 136.369 103Z" fill="#FAD459"/>
<path d="M136.369 103C127.424 103 118.184 91.5822 123.098 83.0307C124.652 80.325 127.009 78.1256 129.743 76.6338C135.265 73.6164 142.378 73.7277 146.714 78.733C149.141 81.5408 150.428 85.2489 150.428 88.9439C150.427 96.6745 144.101 103 136.369 103Z" fill="black" fill-opacity="0.3"/>
<rect x="120.898" y="73.0049" width="28.1121" height="28.1121" rx="14.0561" fill="#FAD459"/>
<path d="M133.493 92.2931C133.147 92.293 132.815 92.1545 132.571 91.9084L128.994 88.2958C128.509 87.7833 128.522 86.9772 129.024 86.4808C129.525 85.9844 130.331 85.9795 130.839 86.4698L133.405 89.0623L138.986 82.2975C139.447 81.765 140.249 81.698 140.793 82.1465C141.337 82.595 141.423 83.3952 140.988 83.9494L134.494 91.8205C134.259 92.1025 133.917 92.2725 133.551 92.2884L133.493 92.2931Z" fill="#215FF5" stroke="#215FF5" stroke-width="0.5"/>
</g>
<defs>
<clipPath id="clip0_60_6308">
<rect width="200" height="120" fill="white"/>
</clipPath>
</defs>
</svg>
