<svg width="168" height="80" viewBox="0 0 168 80" fill="none" xmlns="http://www.w3.org/2000/svg">
<g clip-path="url(#clip0_60_5839)">
<rect x="0.119141" y="9" width="61" height="61" rx="30.5" fill="#282A31"/>
<g clip-path="url(#clip1_60_5839)">
<path d="M35.3037 25.0879L30.8606 32.8633L26.4175 25.0879H11.4727L30.8606 58.7139L50.2486 25.0879H35.3037Z" fill="#68B587"/>
<path d="M35.3037 25.0879L30.8606 32.8633L26.4176 25.0879H19.248L30.8606 45.2837L42.4732 25.0879H35.3037Z" fill="#314356"/>
</g>
<path d="M139.44 9.37032C140.059 9.01305 140.821 9.01305 141.44 9.37032L166.555 23.8702C167.173 24.2275 167.555 24.8877 167.555 25.6022V54.602C167.555 55.3165 167.173 55.9768 166.555 56.334L141.44 70.8339C140.821 71.1912 140.059 71.1912 139.44 70.8339L114.325 56.334C113.707 55.9768 113.325 55.3165 113.325 54.602V25.6022C113.325 24.8877 113.707 24.2275 114.325 23.8702L139.44 9.37032Z" fill="#282A31"/>
<g clip-path="url(#clip2_60_5839)">
<path d="M159.724 40.1064C159.724 37.5466 156.524 35.1207 151.618 33.6163C152.75 28.6069 152.247 24.6214 150.03 23.3454C149.519 23.0461 148.921 22.9044 148.269 22.9044V24.6608C148.63 24.6608 148.921 24.7317 149.165 24.8656C150.234 25.4799 150.698 27.8192 150.336 30.828C150.25 31.5684 150.108 32.3482 149.935 33.1437C148.394 32.7656 146.712 32.4742 144.943 32.2852C143.882 30.828 142.781 29.5048 141.672 28.347C144.235 25.9604 146.641 24.6529 148.276 24.6529V22.8965C146.114 22.8965 143.284 24.4403 140.422 27.1182C137.56 24.456 134.73 22.928 132.568 22.928V24.6844C134.195 24.6844 136.609 25.984 139.172 28.3548C138.071 29.5127 136.971 30.828 135.925 32.2852C134.148 32.4742 132.466 32.7656 130.925 33.1516C130.744 32.3639 130.61 31.5999 130.516 30.8674C130.147 27.8586 130.603 25.5193 131.664 24.8971C131.9 24.7553 132.206 24.6923 132.568 24.6923V22.9359C131.908 22.9359 131.31 23.0776 130.791 23.3769C128.582 24.6529 128.087 28.6305 129.227 33.6241C124.336 35.1364 121.152 37.5545 121.152 40.1064C121.152 42.6663 124.352 45.0922 129.258 46.5966C128.126 51.606 128.629 55.5914 130.846 56.8674C131.357 57.1667 131.955 57.3085 132.615 57.3085C134.777 57.3085 137.608 55.7647 140.469 53.0867C143.331 55.749 146.162 57.277 148.324 57.277C148.984 57.277 149.581 57.1352 150.1 56.8359C152.31 55.5599 152.805 51.5823 151.665 46.5887C156.539 45.0843 159.724 42.6584 159.724 40.1064ZM149.487 34.8529C149.196 35.8689 148.835 36.9165 148.426 37.964C148.103 37.3339 147.765 36.7038 147.396 36.0737C147.034 35.4436 146.649 34.8292 146.264 34.2306C147.38 34.396 148.457 34.6008 149.487 34.8529ZM145.886 43.2412C145.273 44.3045 144.644 45.3127 143.992 46.25C142.82 46.3524 141.633 46.4075 140.438 46.4075C139.251 46.4075 138.064 46.3524 136.9 46.2579C136.247 45.3206 135.611 44.3203 134.997 43.2649C134.4 42.2331 133.857 41.1855 133.362 40.1301C133.85 39.0746 134.4 38.0192 134.99 36.9874C135.603 35.9241 136.232 34.9159 136.884 33.9786C138.056 33.8762 139.243 33.8211 140.438 33.8211C141.625 33.8211 142.812 33.8762 143.976 33.9707C144.628 34.908 145.265 35.9083 145.878 36.9637C146.476 37.9955 147.018 39.0431 147.514 40.0985C147.018 41.154 146.476 42.2094 145.886 43.2412ZM148.426 42.2173C148.85 43.2727 149.212 44.3282 149.511 45.3521C148.481 45.6042 147.396 45.8168 146.272 45.9822C146.657 45.3757 147.042 44.7535 147.404 44.1155C147.765 43.4854 148.103 42.8474 148.426 42.2173ZM140.454 50.6214C139.722 49.8653 138.991 49.0225 138.268 48.101C138.976 48.1325 139.699 48.1561 140.43 48.1561C141.169 48.1561 141.9 48.1404 142.616 48.101C141.908 49.0225 141.177 49.8653 140.454 50.6214ZM134.604 45.9822C133.488 45.8168 132.411 45.612 131.381 45.36C131.672 44.3439 132.033 43.2964 132.442 42.2488C132.765 42.8789 133.103 43.509 133.472 44.1391C133.842 44.7693 134.219 45.3836 134.604 45.9822ZM140.414 29.5914C141.146 30.3476 141.877 31.1903 142.6 32.1119C141.892 32.0804 141.169 32.0567 140.438 32.0567C139.699 32.0567 138.968 32.0725 138.252 32.1119C138.96 31.1903 139.691 30.3476 140.414 29.5914ZM134.596 34.2306C134.211 34.8371 133.826 35.4593 133.464 36.0973C133.103 36.7274 132.765 37.3576 132.442 37.9877C132.018 36.9322 131.656 35.8768 131.357 34.8529C132.387 34.6087 133.472 34.396 134.596 34.2306ZM127.481 44.0919C124.698 42.9025 122.898 41.343 122.898 40.1064C122.898 38.8698 124.698 37.3024 127.481 36.121C128.157 35.8295 128.896 35.5696 129.659 35.3254C130.107 36.8692 130.697 38.476 131.428 40.1222C130.705 41.7605 130.123 43.3594 129.683 44.8953C128.904 44.6511 128.165 44.3833 127.481 44.0919ZM131.711 55.3473C130.642 54.7329 130.178 52.3936 130.54 49.3848C130.626 48.6444 130.768 47.8647 130.941 47.0692C132.482 47.4472 134.164 47.7387 135.933 47.9277C136.994 49.3848 138.095 50.7081 139.204 51.8659C136.641 54.2524 134.235 55.5599 132.599 55.5599C132.246 55.5521 131.947 55.4812 131.711 55.3473ZM150.36 49.3454C150.729 52.3542 150.273 54.6935 149.212 55.3158C148.976 55.4575 148.669 55.5205 148.308 55.5205C146.68 55.5205 144.267 54.2209 141.704 51.8501C142.804 50.6923 143.905 49.377 144.951 47.9198C146.728 47.7308 148.41 47.4394 149.951 47.0534C150.132 47.8489 150.273 48.6129 150.36 49.3454ZM153.387 44.0919C152.711 44.3833 151.972 44.6432 151.209 44.8874C150.761 43.3436 150.171 41.7368 149.44 40.0907C150.163 38.4524 150.745 36.8535 151.185 35.3176C151.964 35.5617 152.703 35.8295 153.395 36.121C156.178 37.3103 157.978 38.8698 157.978 40.1064C157.97 41.343 156.17 42.9104 153.387 44.0919Z" fill="#61DAFB"/>
<path d="M140.431 43.7059C142.415 43.7059 144.024 42.0943 144.024 40.1064C144.024 38.1184 142.415 36.5068 140.431 36.5068C138.447 36.5068 136.838 38.1184 136.838 40.1064C136.838 42.0943 138.447 43.7059 140.431 43.7059Z" fill="#61DAFB"/>
</g>
<g filter="url(#filter0_d_60_5839)">
<circle cx="85.0499" cy="40.1027" r="36.1027" fill="#282A31"/>
<circle cx="85.0499" cy="40.1027" r="36.1027" stroke="#131315" stroke-width="4"/>
</g>
<g clip-path="url(#clip3_60_5839)">
<path d="M69.0982 58.4962L66 20.0723L103 20.1495L99.724 58.4962L84.6396 62.9286L69.0982 58.4962Z" fill="#E34F26"/>
<path d="M84.6387 59.2176V23.7314L99.8755 23.7829L97.1584 55.5321L84.6387 59.2176Z" fill="#EF652A"/>
<path d="M95.6874 32.5967L96.1189 27.9062H72.6797L73.9747 42.2864H90.1511L89.5168 48.4197L84.3362 49.8368L79.0795 48.2907L78.8002 44.6313H74.1525L74.7875 52.1048L84.3359 54.8106L93.9604 52.1048L95.2554 37.5187H78.2667L77.7842 32.5967H95.6874Z" fill="white"/>
</g>
</g>
<defs>
<filter id="filter0_d_60_5839" x="42.9473" y="-2" width="84.2051" height="84.2051" filterUnits="userSpaceOnUse" color-interpolation-filters="sRGB">
<feFlood flood-opacity="0" result="BackgroundImageFix"/>
<feColorMatrix in="SourceAlpha" type="matrix" values="0 0 0 0 0 0 0 0 0 0 0 0 0 0 0 0 0 0 127 0" result="hardAlpha"/>
<feOffset/>
<feGaussianBlur stdDeviation="2"/>
<feComposite in2="hardAlpha" operator="out"/>
<feColorMatrix type="matrix" values="0 0 0 0 0 0 0 0 0 0 0 0 0 0 0 0 0 0 0.2 0"/>
<feBlend mode="normal" in2="BackgroundImageFix" result="effect1_dropShadow_60_5839"/>
<feBlend mode="normal" in="SourceGraphic" in2="effect1_dropShadow_60_5839" result="shape"/>
</filter>
<clipPath id="clip0_60_5839">
<rect width="168" height="80" fill="white"/>
</clipPath>
<clipPath id="clip1_60_5839">
<rect width="38.7759" height="38.7759" fill="white" transform="translate(11.4727 21.7559)"/>
</clipPath>
<clipPath id="clip2_60_5839">
<rect width="38.5712" height="44.031" fill="white" transform="translate(121.152 18.0869)"/>
</clipPath>
<clipPath id="clip3_60_5839">
<rect width="37" height="43" fill="white" transform="translate(66 20)"/>
</clipPath>
</defs>
</svg>
