<svg width="200" height="120" viewBox="0 0 200 120" fill="none" xmlns="http://www.w3.org/2000/svg">
<path d="M82.3115 82.6641H82.2881C81.7255 89.3361 69.9195 94.665 55.4355 94.665C40.9518 94.665 29.1466 89.3361 28.584 82.6641H28.5605V34.6709H82.3115V82.6641Z" fill="#235DEA"/>
<path d="M82.3027 82.293C82.3027 86.607 77.4467 90.4078 70.0703 92.6416V33.792H82.3027V82.293Z" fill="#1F50C8"/>
<ellipse cx="55.432" cy="34.6718" rx="26.8754" ry="9.99893" fill="#6187F7"/>
<path d="M28.5654 48.7744C28.6222 54.279 40.6318 58.7343 55.4395 58.7344C70.1278 58.7344 82.0627 54.3505 82.3096 48.9072V52.6592H82.3086C82.3087 52.6691 82.3096 52.6796 82.3096 52.6895C82.3086 57.6132 70.2758 61.6055 55.4336 61.6055C40.5916 61.6054 28.5596 57.6131 28.5586 52.6895C28.5586 52.6796 28.5594 52.6691 28.5596 52.6592H28.5586V48.7744H28.5654Z" fill="black"/>
<path d="M28.5654 48.7744C28.6222 54.279 40.6318 58.7343 55.4395 58.7344C70.1278 58.7344 82.0627 54.3505 82.3096 48.9072V52.6592H82.3086C82.3087 52.6691 82.3096 52.6796 82.3096 52.6895C82.3086 57.6132 70.2758 61.6055 55.4336 61.6055C40.5916 61.6054 28.5596 57.6131 28.5586 52.6895C28.5586 52.6796 28.5594 52.6691 28.5596 52.6592H28.5586V48.7744H28.5654Z" fill="black"/>
<path d="M28.5654 67.6738C28.6212 73.1787 40.6312 77.6347 55.4395 77.6348C70.1267 77.6348 82.0599 73.2512 82.3086 67.8086V71.5576C82.3087 71.5677 82.3095 71.5787 82.3096 71.5889C82.3096 76.5129 70.2765 80.5049 55.4336 80.5049C40.5909 80.5048 28.5586 76.5128 28.5586 71.5889C28.5586 71.5787 28.5595 71.5677 28.5596 71.5576H28.5586V67.6738H28.5654Z" fill="black"/>
<ellipse cx="74.0109" cy="48.7745" rx="2.17495" ry="2.17786" fill="black"/>
<ellipse cx="74.0109" cy="67.674" rx="2.17495" ry="2.17786" fill="black"/>
<ellipse cx="74.0109" cy="84.3204" rx="2.17495" ry="2.17786" fill="black"/>
<path d="M173.99 83.3594H173.982C173.645 89.7872 162.336 94.9492 148.434 94.9492C134.531 94.9492 123.222 89.7872 122.885 83.3594H122.877V51.3633H173.99V83.3594Z" fill="#235DEA"/>
<path d="M173.998 82.9434H173.98C173.682 87.1641 169.14 90.8605 162.359 93.0635V51.3643H173.998V82.9434Z" fill="#1F50C8"/>
<ellipse cx="166.719" cy="64.7741" rx="2.06825" ry="2.07102" fill="black"/>
<ellipse cx="166.719" cy="81.8708" rx="2.06825" ry="2.07102" fill="black"/>
<ellipse cx="148.434" cy="51.3629" rx="25.5569" ry="9.50838" fill="#6187F7"/>
<path d="M122.883 64.7725C122.936 70.0074 134.357 74.2451 148.439 74.2451C162.407 74.2451 173.756 70.0756 173.99 64.8994V68.4668H173.989C173.989 68.4764 173.99 68.4865 173.99 68.4961C173.99 73.1783 162.548 76.9736 148.434 76.9736C134.319 76.9736 122.878 73.1783 122.877 68.4961V64.7725H122.883Z" fill="black"/>
<path d="M108.565 54.5581C109.723 55.834 110.92 57.3606 111.619 58.8396L111.752 59.1352L111.808 59.2887C111.919 59.6537 111.887 60.0501 111.715 60.3951C111.711 60.4031 111.706 60.411 111.702 60.419C111.69 60.4568 111.677 60.4948 111.662 60.5322C111.561 60.7775 111.402 60.9806 111.208 61.1348C110.765 61.6517 110.2 62.0927 109.691 62.4419C108.889 62.9922 107.947 63.5094 107.075 63.946C106.196 64.3858 105.353 64.762 104.732 65.0268C104.42 65.1594 104.162 65.2649 103.981 65.338C103.891 65.3744 103.819 65.4032 103.77 65.4227C103.745 65.4324 103.725 65.4398 103.712 65.445C103.705 65.4476 103.699 65.4499 103.695 65.4513C103.694 65.4518 103.693 65.4527 103.692 65.4531L103.69 65.4536L103.689 65.4543C102.916 65.7527 102.048 65.3683 101.749 64.596C101.451 63.8234 101.835 62.9552 102.608 62.6565L102.61 62.6546C102.612 62.6537 102.616 62.6524 102.621 62.6506C102.631 62.6466 102.647 62.6399 102.668 62.6316C102.711 62.6148 102.776 62.5895 102.858 62.5562C103.024 62.4893 103.264 62.3904 103.555 62.2663C104.14 62.017 104.925 61.6678 105.733 61.2635C106.255 61.0022 106.771 60.7218 107.245 60.4404C103.505 59.2206 100.119 58.9787 96.0347 60.2063C95.2413 60.4448 94.405 59.9948 94.1665 59.2015C93.9285 58.4083 94.3782 57.5718 95.1714 57.3334C99.4864 56.0365 103.164 56.175 106.893 57.2008C106.715 56.9918 106.532 56.7825 106.343 56.575C105.189 55.3034 103.977 54.1955 103.216 53.5809C102.572 53.0606 102.47 52.1164 102.991 51.4718C103.511 50.8276 104.455 50.7264 105.1 51.2464C105.983 51.9595 107.308 53.1737 108.565 54.5581Z" fill="#FAD459"/>
<path d="M98.2864 82.7588C97.0292 81.5806 95.7124 80.1556 94.8966 78.7379L94.7398 78.454L94.6715 78.3056C94.5315 77.9507 94.5318 77.5529 94.6756 77.1952C94.6777 77.19 94.6804 77.1852 94.6825 77.18C94.692 77.1381 94.7024 77.096 94.7156 77.0543C94.797 76.7989 94.9416 76.5816 95.1251 76.4114C95.5241 75.8629 96.0495 75.3795 96.5269 74.9917C97.2821 74.3784 98.1791 73.7869 99.0135 73.2813C99.8542 72.7719 100.664 72.3289 101.262 72.0148C101.562 71.8574 101.81 71.7315 101.985 71.644C102.072 71.6003 102.141 71.566 102.189 71.5425C102.212 71.5308 102.231 71.5219 102.245 71.5156C102.251 71.5124 102.257 71.5097 102.26 71.508C102.262 71.5073 102.263 71.5064 102.264 71.5059L102.266 71.5052L102.267 71.5045C103.012 71.1447 103.909 71.4578 104.269 72.2033C104.629 72.9493 104.316 73.8458 103.57 74.2059C103.57 74.206 103.569 74.2074 103.568 74.208C103.566 74.209 103.563 74.2105 103.558 74.2128C103.548 74.2176 103.532 74.2255 103.512 74.2356C103.47 74.2558 103.408 74.2861 103.329 74.326C103.169 74.4061 102.938 74.5239 102.657 74.6713C102.095 74.967 101.341 75.3783 100.568 75.8466C100.068 76.1493 99.5759 76.4709 99.1261 76.7899C102.953 77.7034 106.347 77.6706 110.318 76.1173C111.09 75.8157 111.959 76.1961 112.261 76.9673C112.562 77.7388 112.181 78.6088 111.41 78.9105C107.215 80.5512 103.539 80.7114 99.74 79.9905C99.9341 80.1842 100.134 80.3777 100.338 80.5692C101.591 81.7434 102.889 82.7498 103.697 83.3009C104.381 83.7675 104.558 84.7005 104.092 85.3849C103.625 86.0693 102.692 86.2463 102.008 85.7799C101.07 85.1404 99.6507 84.0373 98.2864 82.7588Z" fill="#FAD459"/>
</svg>
