<svg width="109" height="88" viewBox="0 0 109 88" fill="none" xmlns="http://www.w3.org/2000/svg">
<g clip-path="url(#clip0_60_6362)">
<rect x="1.04297" y="0.588867" width="78.6607" height="68.2527" rx="3" transform="rotate(0.460345 1.04297 0.588867)" fill="#303035"/>
<circle cx="7.8337" cy="6.54249" r="1.75017" transform="rotate(0.460345 7.8337 6.54249)" fill="#EC6A5E"/>
<circle cx="14.3474" cy="6.59327" r="1.75017" transform="rotate(0.460345 14.3474 6.59327)" fill="#F5BE4F"/>
<circle cx="21.3708" cy="6.64991" r="1.75017" transform="rotate(0.460345 21.3708 6.64991)" fill="#62C554"/>
<path d="M61.6483 33.2603L61.5622 37.5684L47.2873 42.2517L47.3568 38.7737L58.8114 35.4046L47.5009 31.5673L47.5723 27.9971L61.6483 33.2603Z" fill="#AEAEAE" fill-opacity="0.8"/>
<path d="M45.7744 22.7156L39.797 47.466L36.2531 47.3952L42.2305 22.6447L45.7744 22.7156Z" fill="#AEAEAE" fill-opacity="0.8"/>
<path d="M20.3905 36.7449L20.4766 32.4369L34.7518 27.7404L34.6822 31.2184L23.2143 34.6004L34.5382 38.4248L34.4668 41.995L20.3905 36.7449Z" fill="#AEAEAE" fill-opacity="0.8"/>
<g filter="url(#filter0_d_60_6362)">
<g clip-path="url(#clip1_60_6362)">
<rect x="57" y="36" width="52" height="52" rx="26" fill="#2561F2"/>
<path d="M59.682 75.0686C57.7708 71.4473 59.6996 61.6062 61.0314 56.6204C61.1309 56.248 61.3097 55.9044 61.5524 55.6049L67.1656 48.6781C67.8696 47.8093 69.142 47.67 70.0174 48.3657C70.6118 48.8382 71.4165 48.9309 72.1361 48.6886C72.6805 48.5054 73.2646 48.3506 73.6628 48.3506H74.7134C75.9204 48.3506 76.4752 49.8533 75.5572 50.6369L72.4111 53.1988C71.5792 53.8762 71.3343 55.043 71.8236 55.9977L72.0174 56.3759C72.7398 57.7856 74.7255 57.8643 75.5572 56.5162L76.1265 55.312C76.7614 53.9689 78.3306 53.3503 79.7111 53.8988L81.2479 54.5093C81.7547 54.7106 82.1921 55.0547 82.5069 55.4999L84.9489 58.9524C86.1876 60.7036 85.0912 63.1413 82.9591 63.3765L79.9287 63.7107C79.2186 63.789 78.5648 64.1344 78.0998 64.6769L74.512 68.8627L72.6596 70.8274C72.4607 71.0383 72.319 71.2966 72.2479 71.5777L71.7271 73.6359C71.4906 74.5706 70.1988 74.663 69.8317 73.7714C69.6961 73.442 69.3956 73.2096 69.0427 73.1611L67.5854 72.9607C65.8941 72.7281 64.3866 74.0425 64.3866 75.7498V76.8492C64.3866 77.8849 64.9553 78.837 65.8672 79.328L66.5309 79.6854C66.7981 79.8293 67.0403 80.0154 67.2481 80.2366L70.3367 83.5245C70.757 83.9719 71.312 84.2697 71.9173 84.3725L77.045 85.2432C77.6077 85.3388 78.128 85.603 78.537 86.001L82.4473 89.8056C82.6434 89.9964 82.8663 90.1576 83.1089 90.2841L89.331 93.5285C90.7334 94.2597 91.2584 96.0023 90.4934 97.3866L84.2165 108.745C83.8584 109.393 83.77 110.156 83.9704 110.869L84.2548 111.88C84.8048 113.835 83.5048 114.8 82.3986 113.096C79.6378 108.844 76.8566 101.471 76.6678 101.329C76.5231 101.221 75.849 100.939 75.2382 100.697C74.7644 100.509 74.3452 100.203 74.0293 99.8032L70.3904 95.194C69.8954 94.567 69.69 93.7592 69.8256 92.9719L70.7433 87.6401C70.895 86.7591 70.6192 85.8585 70.0003 85.2134L66.8279 81.9069C66.5116 81.5773 66.12 81.3296 65.6867 81.1852L64.3866 80.7518L63.4132 80.4898C62.9381 80.3619 62.5224 80.0956 62.2604 79.6793C61.8085 78.961 60.9942 77.5547 59.682 75.0686Z" fill="#FAD459"/>
<path d="M83.5555 41.2802L79.3471 44.4765C79.2167 44.5756 79.1062 44.6985 79.0216 44.8387L77.5705 47.2433C77.3551 47.6003 77.7298 48.0214 78.1094 47.8489C78.2298 47.7942 78.3688 47.7987 78.4854 47.8611L78.8489 48.0559C79.5245 48.4178 79.7224 49.2945 79.2677 49.9115L79.1474 50.0748C78.679 50.7105 78.8126 51.6051 79.4462 52.0763L79.8048 52.3429C80.4327 52.8098 81.2841 52.8397 81.9432 52.4178L81.9688 52.4015C82.3023 52.188 82.562 51.877 82.7124 51.5107L83.3195 50.0325C83.7104 49.0808 83.407 47.9852 82.5822 47.3701L80.7983 46.0398C80.4664 45.7922 80.4694 45.2938 80.8043 45.0503C80.8334 45.0291 80.8644 45.0105 80.8969 44.9947L85.108 42.946C85.482 42.7641 85.9023 42.6997 86.3136 42.7614C87.4165 42.9268 88.1869 43.9406 88.0509 45.0474L87.9261 46.0637C87.869 46.5293 87.6577 46.9623 87.3261 47.294C86.6624 47.9577 86.5191 48.981 86.9749 49.8015L88.1999 52.0064C88.5812 52.6929 89.3049 53.1187 90.0902 53.1187H90.4751C91.5965 53.1187 92.4547 52.1201 92.286 51.0114C92.1999 50.4458 92.383 49.8725 92.781 49.4615L96.1474 45.9854C97.2497 44.8471 97.1959 43.0238 96.0285 41.9525L94.0118 40.1019C93.2225 39.3776 92.0057 39.3934 91.2355 40.1379C90.8579 40.5029 90.3534 40.7069 89.8282 40.7069H85.2583C84.6433 40.7069 84.0452 40.9083 83.5555 41.2802Z" fill="#FAD459"/>
<path d="M117.529 45.5507L118.116 45.0088C118.48 44.6726 118.927 44.4385 119.411 44.3302L121.241 43.9204C122.338 43.6748 123.476 44.1056 124.136 45.0163L139.896 66.7744C140.315 67.3524 140.457 68.0856 140.285 68.7784L138.484 76.0484C138.17 77.3159 136.325 77.1759 136.206 75.8756C136.188 75.6882 136.126 75.5078 136.023 75.3501L135.94 75.2225C135.248 74.1574 133.693 74.1439 132.983 75.1968L132.962 75.2273C132.801 75.4658 132.585 75.6622 132.333 75.8L130.199 76.9639C129.963 77.0927 129.746 77.2541 129.558 77.4464C128.864 78.1568 127.917 79.1832 128.144 79.1832C129.575 79.1832 130.453 80.7495 129.706 81.9695L127.518 85.5471C127.37 85.7888 127.26 86.0513 127.19 86.3259L125.938 91.278C125.885 91.4886 125.807 91.6923 125.707 91.8851L124.094 94.9919L122.461 97.8235C122.246 98.1954 121.949 98.5133 121.593 98.7529L118.943 100.535C117.073 101.792 114.557 100.452 114.557 98.1985V91.9869L113.793 85.2108C113.633 83.7869 112.428 82.7107 110.996 82.7107H110.707C110.53 82.7107 110.354 82.7274 110.18 82.7604L107.328 83.3037C106.68 83.4271 106.01 83.3193 105.434 82.9992L102.05 81.119C101.399 80.7578 100.919 80.1539 100.712 79.4393L99.6946 75.9172C99.4669 75.1291 99.5943 74.2809 100.043 73.5944L102.798 69.3844L104.111 67.1814C104.56 66.4288 105.334 65.928 106.204 65.8266L110.59 65.3157C111.213 65.243 111.843 65.3809 112.379 65.7072L113.981 66.6822C114.359 66.9126 114.787 67.0504 115.229 67.0844L121.361 67.5561C122.272 67.6261 123.049 66.9062 123.049 65.9929V65.8394C123.049 65.4394 122.86 65.0631 122.538 64.8249L120.437 63.2668C120.079 63.0014 119.593 63.3577 119.738 63.7788C119.901 64.2498 119.295 64.6002 118.968 64.2242L117.956 63.0605C117.911 63.0089 117.858 62.9653 117.798 62.9315L116.315 62.0904C115.91 61.8605 115.511 62.3993 115.849 62.7203C116.003 62.8667 116.013 63.1087 115.873 63.268L115.772 63.3822C115.492 63.6998 114.973 63.5974 114.835 63.1972L114.707 62.8295C114.614 62.5612 114.383 62.3645 114.103 62.316L111.276 61.826C110.276 61.6526 109.26 62.0314 108.617 62.8172L108.092 63.4584C107.594 64.0668 106.85 64.4197 106.064 64.4197H105.338C104.475 64.4197 103.739 63.7963 103.598 62.9459L103.447 62.0417C103.347 61.4399 103.811 60.8921 104.421 60.8921H104.655C105.276 60.8921 105.683 60.242 105.411 59.6836C105.14 59.1252 105.546 58.4751 106.167 58.4751H106.432C106.698 58.4751 106.954 58.3691 107.143 58.1804L110.679 54.6444C111.029 54.2947 111.225 53.8205 111.225 53.326V53.2044C111.225 52.3632 110.617 51.6452 109.787 51.5069C108.593 51.3079 107.972 49.9711 108.59 48.9305L109.909 46.7106C110.654 45.4568 112.233 44.9793 113.548 45.6104L114.401 46.02C115.442 46.5194 116.681 46.3334 117.529 45.5507Z" fill="#FAD459"/>
<path d="M127.864 94.2281L125.94 96.6523C125.886 96.7209 125.84 96.7962 125.805 96.8764C125.423 97.7474 126.335 98.6214 127.189 98.2018L128.12 97.7441C128.39 97.6113 128.61 97.3948 128.748 97.1269L129.646 95.3761C129.772 95.1297 129.798 94.8437 129.717 94.5789C129.466 93.7583 128.397 93.556 127.864 94.2281Z" fill="#FAD459"/>
<path d="M99.5157 47.1408L98.1923 46.9262C97.8845 46.8763 97.5715 46.9773 97.3509 47.1979C96.9011 47.6477 96.9986 48.4015 97.5481 48.7221L97.7583 48.8447C97.9354 48.948 98.1368 49.0024 98.3418 49.0024H99.3657C99.9786 49.0024 100.426 48.4237 100.273 47.8304C100.179 47.4708 99.8824 47.2002 99.5157 47.1408Z" fill="#FAD459"/>
<path d="M123.969 46.6729C133.27 54.2453 139.214 65.7839 139.214 78.7129C139.214 101.521 120.723 120.012 97.915 120.012C84.4125 120.012 72.424 113.531 64.8887 103.511C71.9958 109.297 81.0634 112.768 90.9424 112.768C113.751 112.768 132.241 94.2771 132.241 71.4688C132.241 62.1635 129.162 53.5782 123.969 46.6729Z" fill="black" fill-opacity="0.2"/>
<path d="M99.3447 41.6992C105.234 46.492 108.998 53.7965 108.998 61.9814C108.998 76.4171 97.295 88.12 82.8594 88.1201C74.3157 88.1201 66.7305 84.0195 61.9609 77.6807C66.4584 81.3402 72.1951 83.5361 78.4453 83.5361C92.881 83.536 104.584 71.8331 104.584 57.3975C104.584 51.506 102.633 46.0705 99.3447 41.6992Z" fill="black" fill-opacity="0.2"/>
</g>
</g>
</g>
<defs>
<filter id="filter0_d_60_6362" x="53" y="32" width="60" height="60" filterUnits="userSpaceOnUse" color-interpolation-filters="sRGB">
<feFlood flood-opacity="0" result="BackgroundImageFix"/>
<feColorMatrix in="SourceAlpha" type="matrix" values="0 0 0 0 0 0 0 0 0 0 0 0 0 0 0 0 0 0 127 0" result="hardAlpha"/>
<feOffset/>
<feGaussianBlur stdDeviation="2"/>
<feComposite in2="hardAlpha" operator="out"/>
<feColorMatrix type="matrix" values="0 0 0 0 0 0 0 0 0 0 0 0 0 0 0 0 0 0 0.25 0"/>
<feBlend mode="normal" in2="BackgroundImageFix" result="effect1_dropShadow_60_6362"/>
<feBlend mode="normal" in="SourceGraphic" in2="effect1_dropShadow_60_6362" result="shape"/>
</filter>
<clipPath id="clip0_60_6362">
<rect width="109" height="88" fill="white"/>
</clipPath>
<clipPath id="clip1_60_6362">
<rect x="57" y="36" width="52" height="52" rx="26" fill="white"/>
</clipPath>
</defs>
</svg>
