<svg width="200" height="120" viewBox="0 0 200 120" fill="none" xmlns="http://www.w3.org/2000/svg">
<rect x="45.043" y="16.5889" width="78.6607" height="68.2527" rx="3" transform="rotate(0.460345 45.043 16.5889)" fill="#303035"/>
<circle cx="51.8337" cy="22.5425" r="1.75017" transform="rotate(0.460345 51.8337 22.5425)" fill="#EC6A5E"/>
<circle cx="58.3474" cy="22.5933" r="1.75017" transform="rotate(0.460345 58.3474 22.5933)" fill="#F5BE4F"/>
<circle cx="65.3708" cy="22.6499" r="1.75017" transform="rotate(0.460345 65.3708 22.6499)" fill="#62C554"/>
<path d="M105.648 49.2603L105.562 53.5684L91.2873 58.2517L91.3568 54.7737L102.811 51.4046L91.5009 47.5673L91.5723 43.9971L105.648 49.2603Z" fill="#AEAEAE" fill-opacity="0.8"/>
<path d="M89.7744 38.7156L83.797 63.466L80.2531 63.3952L86.2305 38.6447L89.7744 38.7156Z" fill="#AEAEAE" fill-opacity="0.8"/>
<path d="M64.3905 52.7449L64.4766 48.4369L78.7518 43.7404L78.6822 47.2184L67.2143 50.6004L78.5382 54.4248L78.4668 57.995L64.3905 52.7449Z" fill="#AEAEAE" fill-opacity="0.8"/>
<g filter="url(#filter0_d_60_6362)">
<g clip-path="url(#clip0_60_6362)">
<rect x="101" y="52" width="52" height="52" rx="26" fill="#2561F2"/>
<path d="M105.778 87.1232C103.929 83.6194 105.791 74.1045 107.081 69.2692C107.18 68.8967 107.359 68.5533 107.601 68.2538L113.028 61.5577C113.71 60.7161 114.942 60.5811 115.79 61.2552C116.366 61.7129 117.146 61.8026 117.843 61.568C118.37 61.3905 118.936 61.2405 119.322 61.2405H120.34C121.509 61.2405 122.046 62.6962 121.157 63.4554L118.109 65.9371C117.303 66.5934 117.066 67.7237 117.54 68.6486L117.728 69.0149C118.428 70.3805 120.351 70.4568 121.157 69.1508L121.673 68.0589C122.308 66.7159 123.877 66.0973 125.258 66.6457L126.645 67.197C127.152 67.3983 127.59 67.7425 127.904 68.1877L130.169 71.389C131.407 73.1401 130.311 75.5779 128.179 75.813L125.426 76.1166C124.716 76.195 124.062 76.5403 123.597 77.0828L120.144 81.1113L118.35 83.0146C118.157 83.219 118.02 83.4692 117.951 83.7414L117.447 85.7353C117.217 86.6409 115.966 86.7304 115.61 85.8666C115.479 85.5476 115.188 85.3224 114.846 85.2754L113.534 85.095C111.843 84.8624 110.336 86.1768 110.336 87.8841V88.7956C110.336 89.8314 110.904 90.7834 111.816 91.2744L112.4 91.5889C112.667 91.7328 112.91 91.9189 113.117 92.1401L116.079 95.2932C116.5 95.7407 117.055 96.0385 117.66 96.1412L122.571 96.9752C123.134 97.0708 123.654 97.335 124.063 97.733L127.822 101.391C128.018 101.581 128.241 101.743 128.484 101.869L134.42 104.964C135.823 105.696 136.348 107.438 135.583 108.822L129.563 119.715C129.205 120.363 129.116 121.126 129.317 121.839L129.546 122.654C130.096 124.609 128.807 125.558 127.711 123.848C125.061 119.713 122.414 112.699 122.233 112.563C122.094 112.459 121.456 112.192 120.871 111.959C120.397 111.771 119.978 111.466 119.662 111.066L116.176 106.65C115.681 106.023 115.476 105.215 115.611 104.428L116.486 99.3456C116.638 98.4646 116.362 97.5639 115.743 96.9188L112.716 93.7635C112.399 93.4339 112.008 93.1862 111.574 93.0418L110.336 92.6288L109.415 92.381C108.94 92.2532 108.525 91.9864 108.263 91.5696C107.823 90.8678 107.037 89.5086 105.778 87.1232Z" fill="#FAD459"/>
<path d="M128.881 54.4085L124.828 57.4869C124.702 57.5829 124.595 57.702 124.513 57.8378L123.107 60.1673C122.898 60.5131 123.261 60.921 123.629 60.7539C123.746 60.7009 123.88 60.7053 123.993 60.7658L124.345 60.9544C125 61.305 125.192 62.1543 124.751 62.7521L124.635 62.9103C124.181 63.526 124.31 64.3927 124.924 64.8491L125.271 65.1074C125.88 65.5598 126.704 65.5887 127.343 65.18L127.368 65.1642C127.691 64.9574 127.942 64.6561 128.088 64.3012L128.676 62.8693C129.055 61.9473 128.761 60.8859 127.962 60.2901L126.234 59.0013C125.912 58.7615 125.915 58.2787 126.24 58.0428C126.268 58.0222 126.298 58.0042 126.329 57.9889L130.409 56.0043C130.771 55.828 131.178 55.7657 131.577 55.8255C132.645 55.9857 133.391 56.9678 133.26 58.04L133.139 59.0245C133.084 59.4755 132.879 59.8951 132.558 60.2164C131.915 60.8593 131.776 61.8506 132.217 62.6455L133.404 64.7815C133.774 65.4465 134.475 65.859 135.235 65.859H135.608C136.695 65.859 137.526 64.8916 137.362 63.8175C137.279 63.2696 137.456 62.7142 137.842 62.3161L141.04 59.0136C142.143 57.8753 142.089 56.052 140.921 54.9807L139.034 53.2491C138.27 52.5475 137.091 52.5628 136.345 53.284C135.979 53.6376 135.49 53.8352 134.982 53.8352H130.584C129.969 53.8352 129.371 54.0366 128.881 54.4085Z" fill="#FAD459"/>
<path d="M158.737 57.8557L159.244 57.3873C159.608 57.0511 160.055 56.817 160.539 56.7087L162.232 56.3296C163.329 56.084 164.467 56.5148 165.127 57.4254L180.36 78.4565C180.766 79.0164 180.904 79.7267 180.738 80.3978L178.992 87.4406C178.688 88.6684 176.901 88.5329 176.785 87.2732C176.769 87.0916 176.708 86.9169 176.609 86.764L176.528 86.6404C175.858 85.6087 174.352 85.5956 173.663 86.6156L173.643 86.6452C173.487 86.8762 173.278 87.0664 173.034 87.1999L170.977 88.3214C170.741 88.4502 170.525 88.6114 170.337 88.8039C169.665 89.4917 168.756 90.4773 168.976 90.4773C170.362 90.4773 171.212 91.9947 170.489 93.1766L168.376 96.631C168.229 96.8726 168.118 97.1351 168.049 97.4097L166.841 102.184C166.788 102.395 166.711 102.598 166.611 102.791L165.053 105.792L163.48 108.517C163.266 108.889 162.969 109.207 162.613 109.447L160.2 111.069C158.329 112.327 155.813 110.987 155.813 108.733V102.881L155.082 96.3947C154.922 94.9708 153.718 93.8946 152.285 93.8946H152.092C151.915 93.8946 151.739 93.9113 151.565 93.9443L148.842 94.4631C148.194 94.5865 147.524 94.4787 146.948 94.1586L143.729 92.3703C143.079 92.009 142.598 91.4052 142.391 90.6906L141.427 87.3523C141.199 86.5642 141.327 85.7159 141.776 85.0295L144.422 80.9849L145.672 78.8881C146.121 78.1355 146.894 77.6347 147.765 77.5333L151.94 77.0469C152.564 76.9742 153.194 77.112 153.73 77.4384L155.238 78.3562C155.616 78.5866 156.044 78.7244 156.485 78.7584L162.405 79.2137C163.287 79.2816 164.04 78.5841 164.04 77.6994V77.5507C164.04 77.1632 163.857 76.7987 163.545 76.568L161.509 75.0585C161.163 74.8015 160.692 75.1466 160.833 75.5545C160.991 76.0108 160.403 76.3502 160.087 75.986L159.106 74.8587C159.063 74.8087 159.011 74.7664 158.954 74.7337L157.517 73.9189C157.124 73.6962 156.737 74.2182 157.065 74.5291C157.214 74.6709 157.224 74.9053 157.088 75.0597L156.99 75.1703C156.719 75.478 156.217 75.3788 156.082 74.9911L155.959 74.6349C155.869 74.3749 155.645 74.1844 155.374 74.1375L152.686 73.6716C151.686 73.4982 150.669 73.8769 150.026 74.6628L149.551 75.2442C149.069 75.8336 148.347 76.1754 147.586 76.1754H146.882C146.047 76.1754 145.334 75.5715 145.197 74.7476L145.051 73.8717C144.954 73.2888 145.403 72.7581 145.994 72.7581H146.221C146.823 72.7581 147.217 72.1283 146.954 71.5873C146.691 71.0464 147.084 70.4166 147.686 70.4166H147.942C148.201 70.4166 148.449 70.3139 148.631 70.1311L152.057 66.7057C152.396 66.3669 152.586 65.9075 152.586 65.4285V65.3107C152.586 64.4958 151.997 63.8003 151.193 63.6663C150.036 63.4735 149.435 62.1785 150.034 61.1704L151.27 59.0892C152.015 57.8353 153.594 57.3579 154.909 57.989L155.609 58.3251C156.649 58.8244 157.889 58.6384 158.737 57.8557Z" fill="#FAD459"/>
<path d="M168.705 105.052L166.841 107.4C166.788 107.467 166.744 107.54 166.71 107.617C166.339 108.461 167.224 109.308 168.051 108.901L168.953 108.458C169.214 108.329 169.428 108.12 169.561 107.86L170.431 106.164C170.553 105.925 170.578 105.648 170.499 105.392C170.256 104.597 169.221 104.401 168.705 105.052Z" fill="#FAD459"/>
<path d="M143.356 60.614L142.074 60.4061C141.776 60.3578 141.472 60.4557 141.259 60.6693C140.823 61.1051 140.917 61.8353 141.45 62.1459L141.653 62.2646C141.825 62.3647 142.02 62.4174 142.219 62.4174H143.21C143.804 62.4174 144.238 61.8568 144.089 61.2821C143.999 60.9337 143.711 60.6716 143.356 60.614Z" fill="#FAD459"/>
<path d="M167.969 62.6729C177.27 70.2453 183.214 81.7839 183.214 94.7129C183.214 117.521 164.723 136.012 141.915 136.012C128.412 136.012 116.424 129.531 108.889 119.511C115.996 125.297 125.063 128.768 134.942 128.768C157.751 128.768 176.241 110.277 176.241 87.4688C176.241 78.1635 173.162 69.5782 167.969 62.6729Z" fill="black" fill-opacity="0.2"/>
<path d="M143.346 57.6992C149.235 62.492 152.998 69.7967 152.998 77.9814C152.998 92.4173 141.295 104.12 126.859 104.12C118.316 104.12 110.73 100.02 105.961 93.6807C110.458 97.3403 116.195 99.5361 122.445 99.5361C136.881 99.5361 148.584 87.8333 148.584 73.3975C148.584 67.5061 146.634 62.0705 143.346 57.6992Z" fill="black" fill-opacity="0.2"/>
</g>
</g>
<defs>
<filter id="filter0_d_60_6362" x="97" y="48" width="60" height="60" filterUnits="userSpaceOnUse" color-interpolation-filters="sRGB">
<feFlood flood-opacity="0" result="BackgroundImageFix"/>
<feColorMatrix in="SourceAlpha" type="matrix" values="0 0 0 0 0 0 0 0 0 0 0 0 0 0 0 0 0 0 127 0" result="hardAlpha"/>
<feOffset/>
<feGaussianBlur stdDeviation="2"/>
<feComposite in2="hardAlpha" operator="out"/>
<feColorMatrix type="matrix" values="0 0 0 0 0 0 0 0 0 0 0 0 0 0 0 0 0 0 0.25 0"/>
<feBlend mode="normal" in2="BackgroundImageFix" result="effect1_dropShadow_60_6362"/>
<feBlend mode="normal" in="SourceGraphic" in2="effect1_dropShadow_60_6362" result="shape"/>
</filter>
<clipPath id="clip0_60_6362">
<rect x="101" y="52" width="52" height="52" rx="26" fill="white"/>
</clipPath>
</defs>
</svg>
