<svg width="200" height="120" viewBox="0 0 200 120" fill="none" xmlns="http://www.w3.org/2000/svg">
<rect x="53.001" y="35.1993" width="60.0833" height="68.6468" transform="rotate(-18.6355 53.001 35.1993)" fill="#3A3C45"/>
<rect x="67.6252" y="26.0168" width="60.3873" height="68.994" transform="rotate(-5.13307 67.6252 26.0168)" fill="#2F6BFF"/>
<path d="M112.603 83.7684C112.778 83.2425 113.479 83.1448 113.791 83.603L116.574 87.6994C116.698 87.8814 116.903 87.9909 117.123 87.9922L122.076 88.0216C122.63 88.0249 122.94 88.662 122.6 89.0998L119.564 93.0129C119.429 93.1867 119.389 93.4158 119.455 93.6254L120.958 98.3446C121.126 98.8725 120.616 99.364 120.094 99.1763L115.435 97.4983C115.228 97.4238 114.997 97.4559 114.819 97.5841L110.795 100.471C110.345 100.794 109.719 100.461 109.737 99.9072L109.893 94.9571C109.9 94.7372 109.798 94.528 109.621 94.3976L105.631 91.4628C105.185 91.1345 105.309 90.437 105.841 90.2824L110.597 88.901C110.808 88.8397 110.976 88.6783 111.045 88.4694L112.603 83.7684Z" fill="#111111"/>
<path d="M134.452 80.7258C134.626 80.1999 135.328 80.1022 135.639 80.5604L138.423 84.6568C138.546 84.8388 138.752 84.9483 138.972 84.9496L143.924 84.979C144.478 84.9823 144.788 85.6194 144.448 86.0572L141.412 89.9703C141.278 90.1441 141.237 90.3732 141.304 90.5828L142.806 95.302C142.974 95.8299 142.464 96.3214 141.943 96.1337L137.283 94.4557C137.076 94.3812 136.846 94.4133 136.667 94.5415L132.643 97.4288C132.193 97.7518 131.568 97.4184 131.585 96.8646L131.741 91.9145C131.748 91.6946 131.646 91.4854 131.469 91.355L127.48 88.4202C127.033 88.0919 127.157 87.3944 127.689 87.2398L132.445 85.8584C132.657 85.7971 132.824 85.6357 132.893 85.4268L134.452 80.7258Z" fill="#111111"/>
<path d="M156.3 77.6833C156.474 77.1574 157.176 77.0597 157.487 77.5179L160.271 81.6144C160.395 81.7963 160.6 81.9058 160.82 81.9071L165.772 81.9365C166.326 81.9398 166.636 82.5769 166.297 83.0147L163.261 86.9278C163.126 87.1016 163.085 87.3307 163.152 87.5403L164.654 92.2595C164.823 92.7875 164.312 93.279 163.791 93.0912L159.131 91.4132C158.924 91.3387 158.694 91.3708 158.515 91.4991L154.491 94.3863C154.041 94.7093 153.416 94.3759 153.433 93.8222L153.589 88.872C153.596 88.6521 153.495 88.4429 153.317 88.3125L149.328 85.3777C148.882 85.0494 149.005 84.3519 149.538 84.1973L154.294 82.816C154.505 82.7546 154.672 82.5932 154.742 82.3844L156.3 77.6833Z" fill="#111111"/>
<path d="M110.431 82.2464C110.605 81.7205 111.307 81.6228 111.619 82.0811L114.402 86.1775C114.526 86.3595 114.731 86.4689 114.951 86.4702L119.903 86.4996C120.457 86.5029 120.767 87.14 120.428 87.5778L117.392 91.4909C117.257 91.6647 117.216 91.8938 117.283 92.1034L118.786 96.8226C118.954 97.3506 118.443 97.8421 117.922 97.6544L113.262 95.9764C113.055 95.9018 112.825 95.9339 112.646 96.0622L108.622 98.9494C108.172 99.2724 107.547 98.939 107.564 98.3853L107.72 93.4351C107.727 93.2152 107.626 93.006 107.448 92.8756L103.459 89.9408C103.013 89.6125 103.137 88.915 103.669 88.7604L108.425 87.3791C108.636 87.3177 108.804 87.1563 108.873 86.9475L110.431 82.2464Z" fill="#FAD459"/>
<path d="M132.279 79.2038C132.454 78.6779 133.155 78.5802 133.467 79.0384L136.25 83.1349C136.374 83.3168 136.579 83.4263 136.799 83.4276L141.752 83.457C142.306 83.4603 142.616 84.0974 142.276 84.5352L139.24 88.4483C139.105 88.6221 139.065 88.8512 139.131 89.0608L140.634 93.78C140.802 94.308 140.292 94.7995 139.77 94.6117L135.111 92.9338C134.904 92.8592 134.673 92.8913 134.495 93.0196L130.471 95.9068C130.02 96.2298 129.395 95.8964 129.413 95.3427L129.569 90.3925C129.576 90.1726 129.474 89.9634 129.297 89.833L125.307 86.8982C124.861 86.5699 124.985 85.8724 125.517 85.7178L130.273 84.3365C130.484 84.2751 130.652 84.1137 130.721 83.9049L132.279 79.2038Z" fill="#FAD459"/>
<path d="M154.128 76.1613C154.302 75.6354 155.004 75.5377 155.315 75.996L158.099 80.0924C158.222 80.2744 158.427 80.3838 158.647 80.3852L163.6 80.4145C164.154 80.4178 164.464 81.055 164.124 81.4927L161.088 85.4058C160.954 85.5796 160.913 85.8087 160.98 86.0183L162.482 90.7376C162.65 91.2655 162.14 91.757 161.619 91.5693L156.959 89.8913C156.752 89.8167 156.522 89.8488 156.343 89.9771L152.319 92.8644C151.869 93.1873 151.244 92.854 151.261 92.3002L151.417 87.35C151.424 87.1301 151.322 86.9209 151.145 86.7905L147.156 83.8557C146.709 83.5274 146.833 82.8299 147.365 82.6754L152.121 81.294C152.333 81.2326 152.5 81.0712 152.569 80.8624L154.128 76.1613Z" fill="#FAD459"/>
<g filter="url(#filter0_d_7_49)">
<path d="M85.9597 74.4087C83.1465 74.7326 81.2738 73.3223 80.9666 70.655C80.8779 69.8839 80.9775 68.7322 81.2511 67.6239L85.8419 48.2606C86.714 44.465 88.7125 42.5668 92.2343 42.1613C96.0062 41.7271 98.3558 43.0613 100.137 46.6147L109.071 64.4208C109.62 65.5189 109.882 66.3333 109.993 67.2919C110.281 69.7925 108.632 71.7982 106.069 72.0933C103.464 72.3933 101.973 71.3614 100.887 68.5303L100.131 66.5481L90.3366 67.6758L90.034 69.6321C89.5483 72.7497 88.3562 74.1328 85.9597 74.4087ZM91.2455 60.8987L97.518 60.1765L93.135 49.6169L92.9682 49.6361L91.2455 60.8987ZM118.17 70.7001C115.356 71.0241 113.56 69.5417 113.219 66.5826L110.702 44.7226C110.362 41.7634 111.774 39.9116 114.587 39.5877C117.401 39.2638 119.197 40.7461 119.538 43.7053L122.055 65.5653C122.396 68.5244 120.983 70.3762 118.17 70.7001Z" fill="url(#paint0_linear_7_49)"/>
</g>
<defs>
<filter id="filter0_d_7_49" x="53.1828" y="11.1828" width="98.6344" height="98.6344" filterUnits="userSpaceOnUse" color-interpolation-filters="sRGB">
<feFlood flood-opacity="0" result="BackgroundImageFix"/>
<feColorMatrix in="SourceAlpha" type="matrix" values="0 0 0 0 0 0 0 0 0 0 0 0 0 0 0 0 0 0 127 0" result="hardAlpha"/>
<feOffset/>
<feGaussianBlur stdDeviation="2.22527"/>
<feComposite in2="hardAlpha" operator="out"/>
<feColorMatrix type="matrix" values="0 0 0 0 0 0 0 0 0 0 0 0 0 0 0 0 0 0 0.05 0"/>
<feBlend mode="normal" in2="BackgroundImageFix" result="effect1_dropShadow_7_49"/>
<feBlend mode="normal" in="SourceGraphic" in2="effect1_dropShadow_7_49" result="shape"/>
</filter>
<linearGradient id="paint0_linear_7_49" x1="85.9682" y1="45.6807" x2="104.142" y2="84.7403" gradientUnits="userSpaceOnUse">
<stop stop-color="white"/>
<stop offset="1" stop-color="white" stop-opacity="0.5"/>
</linearGradient>
</defs>
</svg>
