<svg width="200" height="120" viewBox="0 0 200 120" fill="none" xmlns="http://www.w3.org/2000/svg">
<rect x="82.3438" y="35.1992" width="60.0833" height="68.6468" transform="rotate(-18.6355 82.3438 35.1992)" fill="#3A3C45"/>
<rect x="96.9688" y="26.0176" width="60.3873" height="68.994" transform="rotate(-5.13307 96.9688 26.0176)" fill="#2F6BFF"/>
<rect x="112.783" y="41.6904" width="31.6864" height="4.48013" rx="1" transform="rotate(-5.13307 112.783 41.6904)" fill="white" fill-opacity="0.9"/>
<rect x="113.986" y="55.0762" width="31.6864" height="4.48013" rx="1" transform="rotate(-5.13307 113.986 55.0762)" fill="white" fill-opacity="0.9"/>
<rect x="115.189" y="68.4629" width="24.8962" height="4.48013" rx="1" transform="rotate(-5.13307 115.189 68.4629)" fill="white" fill-opacity="0.9"/>
<path d="M141.946 83.7689C142.121 83.243 142.822 83.1453 143.134 83.6035L145.917 87.6999C146.041 87.8819 146.246 87.9914 146.466 87.9927L151.419 88.0221C151.973 88.0253 152.282 88.6625 151.943 89.1002L148.907 93.0134C148.772 93.1872 148.731 93.4162 148.798 93.6259L150.301 98.3451C150.469 98.873 149.959 99.3645 149.437 99.1768L144.778 97.4988C144.571 97.4243 144.34 97.4564 144.161 97.5846L140.137 100.472C139.687 100.795 139.062 100.462 139.08 99.9077L139.236 94.9576C139.242 94.7377 139.141 94.5284 138.964 94.3981L134.974 91.4633C134.528 91.135 134.652 90.4374 135.184 90.2829L139.94 88.9015C140.151 88.8402 140.319 88.6788 140.388 88.4699L141.946 83.7689Z" fill="#111111"/>
<path d="M163.796 80.7259C163.97 80.2 164.672 80.1023 164.983 80.5605L167.767 84.657C167.89 84.8389 168.096 84.9484 168.316 84.9497L173.268 84.9791C173.822 84.9824 174.132 85.6195 173.792 86.0573L170.757 89.9704C170.622 90.1442 170.581 90.3733 170.648 90.5829L172.15 95.3021C172.318 95.8301 171.808 96.3216 171.287 96.1338L166.627 94.4559C166.42 94.3813 166.19 94.4134 166.011 94.5417L161.987 97.4289C161.537 97.7519 160.912 97.4185 160.929 96.8648L161.085 91.9146C161.092 91.6947 160.99 91.4855 160.813 91.3551L156.824 88.4203C156.377 88.092 156.501 87.3945 157.033 87.2399L161.789 85.8586C162.001 85.7972 162.168 85.6358 162.238 85.427L163.796 80.7259Z" fill="#111111"/>
<path d="M185.644 77.6829C185.818 77.157 186.52 77.0593 186.831 77.5176L189.614 81.614C189.738 81.796 189.943 81.9055 190.163 81.9068L195.116 81.9361C195.67 81.9394 195.98 82.5766 195.64 83.0143L192.604 86.9274C192.469 87.1012 192.429 87.3303 192.495 87.5399L193.998 92.2592C194.166 92.7871 193.656 93.2786 193.135 93.0909L188.475 91.4129C188.268 91.3383 188.037 91.3704 187.859 91.4987L183.835 94.386C183.385 94.709 182.759 94.3756 182.777 93.8218L182.933 88.8716C182.94 88.6517 182.838 88.4425 182.661 88.3121L178.671 85.3774C178.225 85.049 178.349 84.3515 178.881 84.197L183.637 82.8156C183.848 82.7542 184.016 82.5928 184.085 82.384L185.644 77.6829Z" fill="#111111"/>
<path d="M139.774 82.2464C139.949 81.7205 140.65 81.6228 140.962 82.0811L143.745 86.1775C143.869 86.3595 144.074 86.4689 144.294 86.4702L149.247 86.4996C149.801 86.5029 150.111 87.14 149.771 87.5778L146.735 91.4909C146.6 91.6647 146.56 91.8938 146.626 92.1034L148.129 96.8226C148.297 97.3506 147.787 97.8421 147.265 97.6544L142.606 95.9764C142.399 95.9018 142.168 95.9339 141.99 96.0622L137.966 98.9494C137.515 99.2724 136.89 98.939 136.908 98.3853L137.064 93.4351C137.071 93.2152 136.969 93.006 136.792 92.8756L132.802 89.9408C132.356 89.6125 132.48 88.915 133.012 88.7604L137.768 87.3791C137.979 87.3177 138.147 87.1563 138.216 86.9475L139.774 82.2464Z" fill="#FAD459"/>
<path d="M161.624 79.2034C161.798 78.6775 162.5 78.5798 162.811 79.0381L165.595 83.1345C165.719 83.3165 165.924 83.426 166.144 83.4273L171.096 83.4566C171.65 83.4599 171.96 84.0971 171.621 84.5348L168.585 88.4479C168.45 88.6218 168.409 88.8508 168.476 89.0605L169.978 93.7797C170.146 94.3076 169.636 94.7991 169.115 94.6114L164.455 92.9334C164.248 92.8589 164.018 92.8909 163.839 93.0192L159.815 95.9065C159.365 96.2295 158.74 95.8961 158.757 95.3423L158.913 90.3921C158.92 90.1722 158.818 89.963 158.641 89.8326L154.652 86.8979C154.206 86.5696 154.329 85.872 154.862 85.7175L159.618 84.3361C159.829 84.2747 159.996 84.1133 160.066 83.9045L161.624 79.2034Z" fill="#FAD459"/>
<path d="M183.472 76.1605C183.646 75.6346 184.348 75.5369 184.659 75.9951L187.443 80.0915C187.566 80.2735 187.771 80.383 187.991 80.3843L192.944 80.4137C193.498 80.4169 193.808 81.0541 193.468 81.4918L190.432 85.405C190.298 85.5788 190.257 85.8078 190.324 86.0175L191.826 90.7367C191.994 91.2646 191.484 91.7561 190.963 91.5684L186.303 89.8904C186.096 89.8159 185.866 89.848 185.687 89.9762L181.663 92.8635C181.213 93.1865 180.588 92.8531 180.605 92.2993L180.761 87.3492C180.768 87.1293 180.666 86.92 180.489 86.7897L176.5 83.8549C176.053 83.5266 176.177 82.829 176.709 82.6745L181.465 81.2931C181.677 81.2318 181.844 81.0704 181.913 80.8615L183.472 76.1605Z" fill="#FAD459"/>
</svg>
