<svg width="95" height="88" viewBox="0 0 95 88" fill="none" xmlns="http://www.w3.org/2000/svg">
<g clip-path="url(#clip0_60_6870)">
<path d="M81.8983 1.69339C92.1164 5.28489 97.4885 16.4799 93.8971 26.6981L88.2976 42.6294C84.7061 52.8476 73.511 58.2197 63.2928 54.6283C53.0746 51.0368 47.7025 39.8417 51.294 29.6235L56.8935 13.6922C60.485 3.47399 71.68 -1.89808 81.8983 1.69339ZM79.0778 9.70041C72.7311 7.46968 65.778 10.8063 63.5472 17.1529L58.6498 31.0868C56.4193 37.4335 59.7556 44.3867 66.1023 46.6174C72.4489 48.848 79.4019 45.5114 81.6328 39.1649L86.5303 25.2309C88.7609 18.8842 85.4244 11.9312 79.0778 9.70041Z" fill="#ABABAB"/>
<path d="M81.8983 1.69339C92.1164 5.28489 97.4885 16.4799 93.8971 26.6981L88.2976 42.6294C84.7061 52.8476 73.511 58.2197 63.2928 54.6283C53.0746 51.0368 47.7025 39.8417 51.294 29.6235L56.8935 13.6922C60.485 3.47399 71.68 -1.89808 81.8983 1.69339ZM79.0778 9.70041C72.7311 7.46968 65.778 10.8063 63.5472 17.1529L58.6498 31.0868C56.4193 37.4335 59.7556 44.3867 66.1023 46.6174C72.4489 48.848 79.4019 45.5114 81.6328 39.1649L86.5303 25.2309C88.7609 18.8842 85.4244 11.9312 79.0778 9.70041Z" fill="black" fill-opacity="0.2"/>
<path d="M86.6959 46.1235C82.0322 54.0222 72.2965 57.7921 63.3143 54.6351C54.3321 51.478 49.0961 42.4458 50.3999 33.3662L58.0155 36.0429C58.3683 40.7182 61.4171 44.9699 66.1238 46.6242C70.8304 48.2785 75.8689 46.8693 79.0693 43.4429L86.6959 46.1235ZM81.9197 1.70023C92.1379 5.29173 97.51 16.4868 93.9186 26.705L92.6796 30.2299L85.6638 27.764L86.5517 25.2378C88.7824 18.8911 85.4459 11.938 79.0992 9.70725C72.7525 7.47652 65.7995 10.8131 63.5687 17.1597L62.6808 19.686L55.6761 17.224L56.915 13.699C60.5065 3.48082 71.7015 -1.89125 81.9197 1.70023Z" fill="#ABABAB"/>
<circle cx="62.607" cy="56.5451" r="31.2643" transform="rotate(19.3654 62.607 56.5451)" fill="#235DEA"/>
<circle cx="62.6087" cy="56.5443" r="22.2458" transform="rotate(19.3654 62.6087 56.5443)" fill="#6187F7"/>
<circle cx="63.6876" cy="53.4873" r="3.62665" transform="rotate(19.3654 63.6876 53.4873)" fill="black"/>
<path d="M61.4677 53.5808L65.3589 54.9485L64.5266 64.4993L56.1414 61.552L61.4677 53.5808Z" fill="black"/>
<path d="M20.0159 21.3333C32.1751 19.4932 43.2033 25.7423 44.6483 35.291C45.3435 39.8846 43.6935 44.404 40.4408 48.0634L42.9146 54.3984C43.0451 54.7332 42.9548 55.1136 42.6879 55.3542C42.4208 55.5947 42.0329 55.6455 41.7134 55.4809L35.4287 52.2363C32.5103 54.0397 29.0492 55.3371 25.2489 55.9122C13.0898 57.7522 2.06153 51.5032 0.616474 41.9545C-0.828559 32.4058 7.85686 23.1734 20.0159 21.3333Z" fill="#FACE3C"/>
<path d="M20.0159 21.3333C32.1751 19.4932 43.2033 25.7423 44.6483 35.291C45.3435 39.8846 43.6935 44.404 40.4408 48.0634L42.9146 54.3984C43.0451 54.7332 42.9548 55.1136 42.6879 55.3542C42.4208 55.5947 42.0329 55.6455 41.7134 55.4809L35.4287 52.2363C32.5103 54.0397 29.0492 55.3371 25.2489 55.9122C13.0898 57.7522 2.06153 51.5032 0.616474 41.9545C-0.828559 32.4058 7.85686 23.1734 20.0159 21.3333Z" fill="black" fill-opacity="0.2"/>
<path d="M20.0316 21.431C26.1448 20.5058 31.972 21.626 36.4394 24.1816C38.9382 26.5119 40.6238 29.4532 41.1306 32.8013C42.5756 42.35 33.8903 51.5825 21.7311 53.4225C15.6178 54.3476 9.79067 53.2277 5.32331 50.6719C2.82462 48.3416 1.13877 45.4002 0.632099 42.0522C-0.812934 32.5035 7.87249 23.2711 20.0316 21.431Z" fill="#FACE3C"/>
<path d="M20.9948 28.114L19.9329 28.3843C21.2607 34.2306 17.5511 38.1514 13.5122 39.2706L13.7856 40.3157C19.4853 38.8652 23.8525 43.055 24.6043 46.7403L25.6012 46.4866C24.3075 40.6778 28.4064 36.4734 32.0965 35.6496L31.8373 34.6311C25.6924 35.9641 21.7196 31.5063 20.9948 28.114Z" fill="#235DEA"/>
</g>
<defs>
<clipPath id="clip0_60_6870">
<rect width="95" height="88" fill="white"/>
</clipPath>
</defs>
</svg>
