<svg width="200" height="200" viewBox="0 0 200 200" fill="none" xmlns="http://www.w3.org/2000/svg">
<g filter="url(#filter0_d_16_4944)">
<ellipse cx="107.416" cy="58.332" rx="12.3888" ry="5.75545" transform="rotate(102.512 107.416 58.332)" fill="#FFE900"/>
</g>
<g filter="url(#filter1_d_16_4944)">
<ellipse cx="143.676" cy="38.7718" rx="6.99075" ry="3.24769" transform="rotate(131.305 143.676 38.7718)" fill="#FFE900"/>
</g>
<g filter="url(#filter2_d_16_4944)">
<ellipse cx="72.5696" cy="49.7369" rx="6.04079" ry="2.80637" transform="rotate(-137.551 72.5696 49.7369)" fill="#FFE900"/>
</g>
<ellipse cx="99.113" cy="155.658" rx="57.7198" ry="18.1095" transform="rotate(5.15524 99.113 155.658)" fill="black" fill-opacity="0.5"/>
<path d="M67.0977 150.266L67.9878 129.975L85.3671 136.441L78.7798 150.266H67.0977Z" fill="#2752BA"/>
<ellipse cx="103.639" cy="110.844" rx="45.0762" ry="40.7805" fill="#2F6BFF"/>
<path d="M136.869 72.6982C133.419 73.1424 129.129 75.1997 127.414 76.1728L127.403 76.3849C130.144 82.0253 136.317 92.2304 139.088 87.9281C142.552 82.5503 141.174 84.5673 143.443 80.4018C145.258 77.0694 145.176 74.8334 144.513 74.0862C143.004 72.3847 138.745 72.465 136.869 72.6982Z" fill="#2F6BFF"/>
<path d="M138.555 85.5489L134.163 80.4393C133.636 79.8261 135.466 78.7229 139.249 78.0704C142.466 77.5154 142.157 78.6615 141.876 79.6024C141.524 80.8798 140.486 83.5658 139.778 84.7538C139.159 85.7927 138.754 85.821 138.555 85.5489Z" fill="black"/>
<ellipse cx="116.739" cy="115.457" rx="12.5203" ry="11.2683" fill="#2962EE"/>
<ellipse cx="116.739" cy="115.457" rx="12.5203" ry="11.2683" fill="black" fill-opacity="0.1"/>
<ellipse cx="112.591" cy="114.964" rx="2.03662" ry="3.41626" transform="rotate(-0.915683 112.591 114.964)" fill="black"/>
<ellipse cx="122.767" cy="114.964" rx="2.03662" ry="3.41626" transform="rotate(-0.915683 122.767 114.964)" fill="black"/>
<path d="M108.841 75.0322C106.981 73.8874 102.21 71.9719 100.422 71.8526C104.715 70.1356 112.715 72.0864 115.715 74.0869L108.841 75.0322Z" fill="black"/>
<path d="M102.005 74.5268C99.8803 73.5553 94.6053 72.1936 92.7294 72.3464C96.891 69.7611 105.523 70.6475 108.975 72.3853L102.005 74.5268Z" fill="black"/>
<path d="M83.0742 157.706L84.1474 145.185V144.828L100.603 150.193L96.4889 157.706H83.0742Z" fill="#2F6BFF"/>
<path d="M120.815 157.528L117.059 149.658L132.083 139.284L132.977 157.528H120.815Z" fill="#2F6BFF"/>
<path d="M139.849 34.8241C143.414 31.0484 147.646 28.8131 150.976 28.6231L152.255 27.2683C152.805 27.7872 153.259 28.3694 153.621 28.9913C154.153 29.2007 154.632 29.4965 155.044 29.885C158.119 32.7886 156.302 39.7069 150.986 45.3379C145.669 50.969 138.867 53.1806 135.791 50.2777C135.387 49.8962 135.068 49.445 134.829 48.9369C134.178 48.61 133.562 48.1848 133.005 47.6588L134.298 46.289C134.296 42.9542 136.284 38.5998 139.849 34.8241Z" fill="#CF9912"/>
<ellipse cx="142.642" cy="37.4533" rx="14.0224" ry="7.65795" transform="rotate(-46.6475 142.642 37.4533)" fill="#FACE3C"/>
<path d="M150.557 28.4711C151.515 29.328 151.754 30.8355 151.379 32.6698C151.486 31.3027 151.182 30.1884 150.409 29.4975C148.124 27.4545 142.625 29.8867 138.127 34.9295C135.516 37.8575 133.817 41.0226 133.298 43.5617C133.507 40.886 135.298 37.2408 138.275 33.9031C142.773 28.8603 148.272 26.4285 150.557 28.4711Z" fill="#654816" fill-opacity="0.3"/>
<path d="M86.5879 73.2524C86.0996 73.2524 85.0996 73.6899 84.1934 74.0649L84.3691 76.4644C86.9316 77.7769 89.7871 79.5774 89.7871 77.8774C89.7871 76.1774 86.5879 73.2524 86.5879 73.2524Z" fill="black" fill-opacity="0.1"/>
<path d="M71.1781 73.8534C70.8989 76.9195 74.1633 82.5754 75.8303 85.02L80.7986 91.7842L97.1984 82.0623C96.722 81.5181 94.0735 79.4608 87.2909 75.5853C78.8127 70.7409 72.9787 72.0332 72.0398 72.2784C71.2888 72.4745 71.1524 73.4101 71.1781 73.8534Z" fill="#2F6BFF"/>
<path d="M79.4486 85.4076C78.1577 84.9142 76.145 79.7984 75.3001 77.3022C75.0236 75.5917 81.72 78.3862 84.6866 80.3487C87.2878 82.0694 86.6043 82.847 85.7375 83.3382L83.137 84.8115C82.4454 85.2158 80.7395 85.9011 79.4486 85.4076Z" fill="black"/>
<path d="M75.1375 47.7976C78.5568 50.5856 80.799 53.8747 81.1826 56.3101L82.115 57.1245C81.8076 57.4768 81.4607 57.7747 81.0886 58.0202C80.9968 58.2937 80.8652 58.543 80.6865 58.7621C78.9445 60.8984 73.6361 59.4534 68.8293 55.5342C64.0224 51.6148 61.5377 46.7055 63.2795 44.569C63.5502 44.2369 63.907 43.9911 64.3348 43.828C64.5403 43.3135 64.8344 42.8242 65.2193 42.3831L66.6526 43.6325C69.0413 43.916 72.1843 45.3896 75.1375 47.7976Z" fill="#CF9912"/>
<ellipse cx="73.6961" cy="49.7366" rx="11.2303" ry="4.99124" transform="rotate(39.1927 73.6961 49.7366)" fill="#FACE3C"/>
<path d="M81.388 56.0249C80.8507 56.687 79.806 56.8495 78.4748 56.587C79.4239 56.6504 80.165 56.439 80.5896 55.9158C81.934 54.2582 79.5908 50.1083 75.3554 46.6472C72.8125 44.5692 70.1656 43.2133 68.1655 42.819C70.2225 42.9563 73.2557 44.3879 76.1538 46.7563C80.3893 50.2174 82.7325 54.3673 81.388 56.0249Z" fill="#654816" fill-opacity="0.3"/>
<path d="M101.312 59.0425C103.111 52.6509 106.227 47.5075 109.362 45.1655L110.014 42.8474C110.815 43.0727 111.551 43.4132 112.212 43.8445C112.775 43.7562 113.324 43.7811 113.852 43.9297C118.092 45.1233 119.353 53.8247 116.667 63.3651C113.982 72.9056 108.367 79.6722 104.126 78.4785C103.597 78.3294 103.113 78.0639 102.679 77.6935C101.891 77.7159 101.087 77.6209 100.289 77.3962L100.94 75.0819C99.4878 71.4486 99.5128 65.4344 101.312 59.0425Z" fill="#CF9912"/>
<ellipse cx="105.158" cy="60.1249" rx="17.946" ry="7.97601" transform="rotate(-74.278 105.158 60.1249)" fill="#FACE3C"/>
<path d="M139.351 85.9619C145.22 92.8475 148.714 101.476 148.714 110.845C148.714 133.367 128.536 151.625 103.645 151.625C85.8952 151.625 70.5445 142.34 63.1953 128.847C71.4367 138.515 84.3652 144.745 98.9033 144.745C123.795 144.745 143.973 126.487 143.973 103.965C143.973 97.502 142.308 91.3919 139.351 85.9619Z" fill="black" fill-opacity="0.2"/>
<path d="M122.906 82.2698C116.849 72.7081 100.192 71.5758 92.6211 72.2048L98.9305 85.4153L109.656 97.3675C116.597 96.319 128.963 91.8315 122.906 82.2698Z" fill="#2F6BFF"/>
<path d="M108.931 46.3469C110.469 46.7989 111.574 48.4593 112.161 50.8431C111.529 49.0823 110.55 47.8761 109.275 47.5013C105.847 46.4939 101.579 51.8758 99.7408 59.5225C98.7276 63.7376 98.6662 67.7606 99.3879 70.6917C98.3218 67.7189 98.2423 63.1677 99.3959 58.3678C101.234 50.721 105.503 45.3393 108.931 46.3469Z" fill="#654816" fill-opacity="0.3"/>
<defs>
<filter id="filter0_d_16_4944" x="71.1875" y="16.1724" width="72.457" height="84.3193" filterUnits="userSpaceOnUse" color-interpolation-filters="sRGB">
<feFlood flood-opacity="0" result="BackgroundImageFix"/>
<feColorMatrix in="SourceAlpha" type="matrix" values="0 0 0 0 0 0 0 0 0 0 0 0 0 0 0 0 0 0 127 0" result="hardAlpha"/>
<feMorphology radius="5" operator="dilate" in="SourceAlpha" result="effect1_dropShadow_16_4944"/>
<feOffset/>
<feGaussianBlur stdDeviation="12.5"/>
<feComposite in2="hardAlpha" operator="out"/>
<feColorMatrix type="matrix" values="0 0 0 0 1 0 0 0 0 0.913725 0 0 0 0 0 0 0 0 0.3 0"/>
<feBlend mode="normal" in2="BackgroundImageFix" result="effect1_dropShadow_16_4944"/>
<feBlend mode="normal" in="SourceGraphic" in2="effect1_dropShadow_16_4944" result="shape"/>
</filter>
<filter id="filter1_d_16_4944" x="108.455" y="3.09814" width="70.4414" height="71.3472" filterUnits="userSpaceOnUse" color-interpolation-filters="sRGB">
<feFlood flood-opacity="0" result="BackgroundImageFix"/>
<feColorMatrix in="SourceAlpha" type="matrix" values="0 0 0 0 0 0 0 0 0 0 0 0 0 0 0 0 0 0 127 0" result="hardAlpha"/>
<feMorphology radius="5" operator="dilate" in="SourceAlpha" result="effect1_dropShadow_16_4944"/>
<feOffset/>
<feGaussianBlur stdDeviation="12.5"/>
<feComposite in2="hardAlpha" operator="out"/>
<feColorMatrix type="matrix" values="0 0 0 0 1 0 0 0 0 0.913725 0 0 0 0 0 0 0 0 0.3 0"/>
<feBlend mode="normal" in2="BackgroundImageFix" result="effect1_dropShadow_16_4944"/>
<feBlend mode="normal" in="SourceGraphic" in2="effect1_dropShadow_16_4944" result="shape"/>
</filter>
<filter id="filter2_d_16_4944" x="37.7246" y="15.1631" width="69.6895" height="69.1475" filterUnits="userSpaceOnUse" color-interpolation-filters="sRGB">
<feFlood flood-opacity="0" result="BackgroundImageFix"/>
<feColorMatrix in="SourceAlpha" type="matrix" values="0 0 0 0 0 0 0 0 0 0 0 0 0 0 0 0 0 0 127 0" result="hardAlpha"/>
<feMorphology radius="5" operator="dilate" in="SourceAlpha" result="effect1_dropShadow_16_4944"/>
<feOffset/>
<feGaussianBlur stdDeviation="12.5"/>
<feComposite in2="hardAlpha" operator="out"/>
<feColorMatrix type="matrix" values="0 0 0 0 1 0 0 0 0 0.913725 0 0 0 0 0 0 0 0 0.3 0"/>
<feBlend mode="normal" in2="BackgroundImageFix" result="effect1_dropShadow_16_4944"/>
<feBlend mode="normal" in="SourceGraphic" in2="effect1_dropShadow_16_4944" result="shape"/>
</filter>
</defs>
</svg>
