<svg width="36" height="36" viewBox="0 0 36 36" fill="none" xmlns="http://www.w3.org/2000/svg">
<g clip-path="url(#clip0_3_7302)">
<path d="M26.4339 7.65039H9.56141C8.75316 7.65039 8.09961 8.28848 8.09961 9.07738V26.0195C8.09961 26.8084 8.75316 27.4504 9.56141 27.4504H26.4339C27.2422 27.4504 27.8996 26.8084 27.8996 26.0234V9.07738C27.8996 8.28848 27.2422 7.65039 26.4339 7.65039ZM13.9739 24.5229H11.0348V15.0715H13.9739V24.5229ZM12.5043 13.7838C11.5607 13.7838 10.7989 13.0219 10.7989 12.0822C10.7989 11.1425 11.5607 10.3806 12.5043 10.3806C13.4441 10.3806 14.2059 11.1425 14.2059 12.0822C14.2059 13.018 13.4441 13.7838 12.5043 13.7838ZM24.9721 24.5229H22.037V19.9287C22.037 18.8343 22.0176 17.4228 20.5094 17.4228C18.9819 17.4228 18.7498 18.6177 18.7498 19.8514V24.5229H15.8185V15.0715H18.6338V16.3632H18.6725C19.0631 15.6207 20.0221 14.8356 21.4491 14.8356C24.423 14.8356 24.9721 16.7924 24.9721 19.337V24.5229Z" fill="white"/>
</g>
<defs>
<clipPath id="clip0_3_7302">
<rect width="19.8" height="19.8" fill="white" transform="translate(8.09961 7.65039)"/>
</clipPath>
</defs>
</svg>
