<svg width="200" height="200" viewBox="0 0 200 200" fill="none" xmlns="http://www.w3.org/2000/svg">
<ellipse cx="99.1953" cy="155.013" rx="46.2983" ry="14.526" transform="rotate(1.52781 99.1953 155.013)" fill="black" fill-opacity="0.5"/>
<path fill-rule="evenodd" clip-rule="evenodd" d="M86.4771 152.517C71.033 136.366 56.3902 113.959 61.6156 99.5074L77.8517 54.6048C84.0428 54.9939 122.27 54.1813 122.27 54.1813C122.27 54.1813 150.928 79.1788 155.885 82.5843L139.701 127.742C134.475 142.193 108.888 150.054 86.6856 152.593L86.5728 152.587C86.5474 152.577 86.5104 152.552 86.4771 152.517Z" fill="#4FCB76"/>
<path d="M151.798 79.0964C153.465 80.635 154.824 81.8578 155.881 82.5842L139.697 127.742C134.472 142.192 108.885 150.054 86.6824 152.593L86.5696 152.586C86.5443 152.577 86.5072 152.552 86.474 152.517C73.9452 139.415 61.9449 122.194 60.65 108.445C64.8578 120.213 74.4424 133.165 84.3598 143.537C84.3931 143.572 84.4308 143.597 84.4563 143.606L84.5682 143.612C106.77 141.073 132.358 133.212 137.584 118.761L151.798 79.0964Z" fill="#28653B" fill-opacity="0.5"/>
<path d="M111.312 76.7723C117.025 78.838 119.982 85.1444 117.916 90.8573L116.752 94.0789C114.686 99.7919 108.38 102.749 102.667 100.683C96.9538 98.6172 93.9977 92.3113 96.0634 86.5984L97.2283 83.3767C99.294 77.6639 105.599 74.7068 111.312 76.7723ZM109.997 80.388C106.448 79.105 102.532 80.9414 101.249 84.4898L99.8655 88.3148C98.5825 91.8632 100.419 95.7798 103.967 97.0629C107.516 98.3459 111.432 96.5095 112.715 92.9611L114.098 89.1361C115.381 85.5877 113.545 81.6711 109.997 80.388Z" fill="black"/>
<path d="M111.312 76.7723C117.025 78.838 119.982 85.1444 117.916 90.8573L116.752 94.0789C114.686 99.7919 108.38 102.749 102.667 100.683C96.9538 98.6172 93.9977 92.3113 96.0634 86.5984L97.2283 83.3767C99.294 77.6639 105.599 74.7068 111.312 76.7723ZM109.997 80.388C106.448 79.105 102.532 80.9414 101.249 84.4898L99.8655 88.3148C98.5825 91.8632 100.419 95.7798 103.967 97.0629C107.516 98.3459 111.432 96.5095 112.715 92.9611L114.098 89.1361C115.381 85.5877 113.545 81.6711 109.997 80.388Z" fill="black" fill-opacity="0.5"/>
<path d="M111.333 76.78C117.045 78.8459 120.002 85.151 117.936 90.8637L116.771 94.0863C114.705 99.7985 108.4 102.755 102.687 100.69C96.9747 98.6241 94.0178 92.3184 96.0829 86.6057L97.2482 83.3832C99.314 77.6703 105.62 74.7143 111.333 76.78ZM109.953 80.5835C106.857 79.464 103.44 81.0664 102.321 84.1622L101.114 87.5005C99.9946 90.5964 101.597 94.0138 104.692 95.1332C107.788 96.2526 111.205 94.65 112.325 91.5544L113.532 88.2161C114.651 85.1202 113.049 81.703 109.953 80.5835Z" fill="black"/>
<rect x="91.7012" y="84.0332" width="31.9471" height="23.8616" rx="3" transform="rotate(19.8793 91.7012 84.0332)" fill="black"/>
<circle cx="103.31" cy="98.9116" r="2.22432" transform="rotate(19.8793 103.31 98.9116)" fill="#4FCB76"/>
<path d="M101.958 98.9586L104.337 99.8188L103.774 105.672L98.6473 103.818L101.958 98.9586Z" fill="#4FCB76"/>
<path d="M62.6699 33.582C75.7425 31.6037 87.6 38.322 89.1539 48.588C89.901 53.5249 88.1282 58.3827 84.6337 62.3163L87.2962 69.1344C87.4367 69.4943 87.3397 69.904 87.0528 70.1628C86.7657 70.4214 86.3481 70.4756 86.0047 70.2987L79.241 66.8066C76.1032 68.7455 72.3821 70.141 68.2961 70.7593C55.2235 72.7375 43.3666 66.0183 41.813 55.7522C40.2597 45.4863 49.5976 35.5605 62.6699 33.582Z" fill="#3B9859"/>
<path d="M62.6699 33.582C75.7425 31.6037 87.6 38.322 89.1539 48.588C89.901 53.5249 88.1282 58.3827 84.6337 62.3163L87.2962 69.1344C87.4367 69.4943 87.3397 69.904 87.0528 70.1628C86.7657 70.4214 86.3481 70.4756 86.0047 70.2987L79.241 66.8066C76.1032 68.7455 72.3821 70.141 68.2961 70.7593C55.2235 72.7375 43.3666 66.0183 41.813 55.7522C40.2597 45.4863 49.5976 35.5605 62.6699 33.582Z" fill="black" fill-opacity="0.2"/>
<path d="M62.6895 33.6875C69.2632 32.6927 75.5294 33.8976 80.3328 36.6463C83.0192 39.1516 84.8321 42.3142 85.3769 45.9138C86.9302 56.1799 77.5916 66.1058 64.5189 68.0842C57.9451 69.079 51.679 67.8742 46.8756 65.1254C44.1894 62.6201 42.3773 59.4572 41.8325 55.8577C40.2792 45.5918 49.6171 35.6659 62.6895 33.6875Z" fill="#3B9859"/>
<path d="M63.7251 40.872L62.5834 41.1626C64.011 47.4482 60.0227 51.6635 55.6803 52.8669L55.9743 53.9905C62.1023 52.431 66.7976 56.9356 67.6058 60.8979L68.6776 60.6251C67.2868 54.3798 71.6936 49.8594 75.661 48.9738L75.3823 47.8787C68.7757 49.312 64.5044 44.5191 63.7251 40.872Z" fill="#FFE900" stroke="#FFE900" stroke-linecap="round" stroke-linejoin="round"/>
</svg>
