<svg width="18" height="18" viewBox="0 0 18 18" fill="none" xmlns="http://www.w3.org/2000/svg">
<g opacity="0.01">
<rect width="18" height="18" fill="#191A1F"/>
<rect opacity="0.7" x="1.5" y="1.5" width="15" height="15" fill="#191A1F"/>
</g>
<path fill-rule="evenodd" clip-rule="evenodd" d="M7.578 10.9207C7.395 10.6313 7.1925 10.2998 6.89775 9.74925C6.82125 9.70575 6.52875 9.52125 6.43875 8.91C6.3975 8.622 6.51525 8.41875 6.5835 8.32725C6.5835 8.31975 6.58275 8.31375 6.58275 8.30625C6.58275 6.783 7.63275 5.724 9 5.724C10.3665 5.724 11.4165 6.783 11.4165 8.30625C11.4165 8.31375 11.4158 8.31975 11.4158 8.32725C11.484 8.41875 11.6018 8.622 11.5605 8.91C11.4705 9.52125 11.178 9.70575 11.1015 9.74925C10.8068 10.2998 10.6042 10.6313 10.4213 10.9207C10.2067 11.2598 10.167 11.859 10.563 12.1372C10.812 12.3112 11.9032 13.062 12.7395 13.638C11.7157 14.4653 10.4152 14.9633 9 14.9633C7.584 14.9633 6.2835 14.4653 5.25975 13.638C5.9385 13.1708 7.221 12.2872 7.43625 12.1372C7.83225 11.859 7.7925 11.2598 7.578 10.9207ZM9 2.0625C5.17425 2.0625 2.0625 5.175 2.0625 9C2.0625 12.8258 5.17425 15.9375 9 15.9375C12.825 15.9375 15.9375 12.8258 15.9375 9C15.9375 5.175 12.825 2.0625 9 2.0625Z" fill="white"/>
</svg>
