<svg width="20" height="20" viewBox="0 0 20 20" fill="none" xmlns="http://www.w3.org/2000/svg">
<g opacity="0.01">
<rect width="20" height="20" fill="white"/>
<rect opacity="0.7" x="1.66602" y="1.66675" width="16.6667" height="16.6667" fill="white"/>
</g>
<circle cx="10.3" cy="10.3" r="8.30005" stroke="white" stroke-width="1.2"/>
<path d="M15.6559 16.6412C14.5804 15.9014 12.6912 14.6012 12.3131 14.3359C11.8035 13.9784 11.8539 13.207 12.1299 12.7711C12.3658 12.3984 12.6257 11.9716 13.0059 11.2639C13.1036 11.2072 13.4805 10.9702 13.5957 10.1838C13.6497 9.81268 13.4979 9.55104 13.4098 9.43397C13.4098 9.42422 13.4113 9.41621 13.4113 9.40646C13.4113 7.44669 12.0589 6.08374 10.3006 6.08374C8.54223 6.08374 7.1899 7.44669 7.1899 9.40646C7.1899 9.41621 7.19134 9.42422 7.19134 9.43397C7.10323 9.55104 6.95151 9.81259 7.00546 10.1838C7.1207 10.9702 7.49758 11.2072 7.59525 11.2639C7.97551 11.9716 8.23532 12.3984 8.47129 12.7711C8.74722 13.207 8.7976 13.9783 8.28811 14.3359C7.90997 14.6011 6.02075 15.9013 4.94531 16.6411" stroke="white" stroke-width="1.2"/>
</svg>
