<svg width="18" height="18" viewBox="0 0 18 18" fill="none" xmlns="http://www.w3.org/2000/svg">
<path d="M9.16174 3.75C10.7089 3.75 12.4464 4.56016 12.9928 6.16406C13.2494 6.77198 13.2497 7.23066 13.2496 7.8125V7.81738C15.0672 8.05001 16.3459 9.5129 16.1725 11.334L16.1715 11.3389C15.9892 13.069 14.374 14.25 12.5367 14.25H6.38635C4.17362 14.2498 2.20297 12.8489 1.85607 10.7676L1.8551 10.7617C1.51108 8.52562 3.20578 6.60768 5.33947 6.24219C5.3572 6.23383 5.37204 6.22728 5.38537 6.2207L5.4049 6.16602C5.93326 4.75721 7.40424 3.75003 9.16174 3.75Z" fill="white"/>
</svg>
