<svg width="36" height="36" viewBox="0 0 36 36" fill="none" xmlns="http://www.w3.org/2000/svg">
<g clip-path="url(#clip0_3_7299)">
<path d="M18.4496 7.19922C12.7335 7.19922 8.09961 11.8331 8.09961 17.5492C8.09961 22.403 11.4414 26.4759 15.9495 27.5945V20.7122H13.8153V17.5492H15.9495V16.1863C15.9495 12.6636 17.5438 11.0308 21.0023 11.0308C21.6581 11.0308 22.7896 11.1595 23.2524 11.2879V14.1548C23.0082 14.1292 22.5838 14.1163 22.0568 14.1163C20.3598 14.1163 19.704 14.7593 19.704 16.4306V17.5492H23.0848L22.5039 20.7122H19.704V27.8235C24.8289 27.2045 28.8 22.841 28.8 17.5492C28.7996 11.8331 24.1657 7.19922 18.4496 7.19922Z" fill="white"/>
</g>
<defs>
<clipPath id="clip0_3_7299">
<rect width="20.7" height="20.7" fill="white" transform="translate(8.09961 7.19922)"/>
</clipPath>
</defs>
</svg>
