<svg width="36" height="36" viewBox="0 0 36 36" fill="none" xmlns="http://www.w3.org/2000/svg">
<g clip-path="url(#clip0_3_7313)">
<path d="M26.1099 10.3525C24.6184 9.66819 23.0191 9.164 21.3469 8.87523C21.3164 8.86966 21.286 8.88359 21.2703 8.91145C21.0646 9.27728 20.8368 9.75454 20.6772 10.1297C18.8787 9.8604 17.0893 9.8604 15.3276 10.1297C15.1681 9.7462 14.932 9.27728 14.7253 8.91145C14.7097 8.88452 14.6792 8.87059 14.6488 8.87523C12.9775 9.16308 11.3782 9.66727 9.88579 10.3525C9.87287 10.3581 9.8618 10.3674 9.85445 10.3795C6.82084 14.9116 5.9898 19.3324 6.39748 23.6983C6.39933 23.7197 6.41132 23.7401 6.42792 23.7531C8.42941 25.2229 10.3682 26.1153 12.271 26.7067C12.3014 26.716 12.3337 26.7049 12.3531 26.6798C12.8032 26.0651 13.2044 25.417 13.5484 24.7355C13.5687 24.6955 13.5493 24.6482 13.5078 24.6324C12.8714 24.391 12.2654 24.0966 11.6825 23.7624C11.6364 23.7354 11.6327 23.6695 11.6751 23.6379C11.7978 23.546 11.9205 23.4504 12.0376 23.3538C12.0588 23.3362 12.0884 23.3324 12.1133 23.3436C15.9428 25.092 20.0888 25.092 23.8732 23.3436C23.8981 23.3315 23.9276 23.3352 23.9497 23.3529C24.0669 23.4494 24.1896 23.546 24.3131 23.6379C24.3556 23.6695 24.3528 23.7354 24.3067 23.7624C23.7238 24.1031 23.1178 24.391 22.4804 24.6315C22.4389 24.6473 22.4205 24.6955 22.4408 24.7355C22.7922 25.4161 23.1934 26.0642 23.6352 26.6789C23.6537 26.7049 23.6868 26.716 23.7173 26.7067C25.6293 26.1153 27.5681 25.2229 29.5696 23.7531C29.5871 23.7401 29.5982 23.7206 29.6 23.6992C30.0879 18.6517 28.7828 14.2672 26.1403 10.3804C26.1338 10.3674 26.1228 10.3581 26.1099 10.3525ZM14.1203 21.0399C12.9673 21.0399 12.0173 19.9814 12.0173 18.6814C12.0173 17.3815 12.9489 16.323 14.1203 16.323C15.3009 16.323 16.2417 17.3908 16.2232 18.6814C16.2232 19.9814 15.2917 21.0399 14.1203 21.0399ZM21.8957 21.0399C20.7427 21.0399 19.7927 19.9814 19.7927 18.6814C19.7927 17.3815 20.7243 16.323 21.8957 16.323C23.0763 16.323 24.0171 17.3908 23.9986 18.6814C23.9986 19.9814 23.0763 21.0399 21.8957 21.0399Z" fill="white"/>
</g>
<defs>
<clipPath id="clip0_3_7313">
<rect width="23.4" height="23.4" fill="white" transform="translate(6.30078 6.30078)"/>
</clipPath>
</defs>
</svg>
