<svg width="36" height="36" viewBox="0 0 36 36" fill="none" xmlns="http://www.w3.org/2000/svg">
<g clip-path="url(#clip0_3_7304)">
<path d="M29.4677 12.8697C29.4677 12.8697 29.2392 11.2564 28.5354 10.548C27.6441 9.61567 26.6478 9.6111 26.1908 9.55626C22.9184 9.3186 18.0054 9.3186 18.0054 9.3186H17.9962C17.9962 9.3186 13.0831 9.3186 9.81078 9.55626C9.35375 9.6111 8.35742 9.61567 7.46621 10.548C6.76238 11.2564 6.53844 12.8697 6.53844 12.8697C6.53844 12.8697 6.30078 14.7664 6.30078 16.6585V18.4318C6.30078 20.3239 6.53387 22.2206 6.53387 22.2206C6.53387 22.2206 6.76238 23.8339 7.46164 24.5423C8.35285 25.4747 9.52285 25.4427 10.0439 25.5432C11.9177 25.7215 18.0008 25.7763 18.0008 25.7763C18.0008 25.7763 22.9184 25.7672 26.1908 25.5341C26.6478 25.4792 27.6441 25.4747 28.5354 24.5423C29.2392 23.8339 29.4677 22.2206 29.4677 22.2206C29.4677 22.2206 29.7008 20.3285 29.7008 18.4318V16.6585C29.7008 14.7664 29.4677 12.8697 29.4677 12.8697ZM15.5831 20.5844V14.0077L21.9038 17.3075L15.5831 20.5844Z" fill="white"/>
</g>
<defs>
<clipPath id="clip0_3_7304">
<rect width="23.4" height="23.4" fill="white" transform="translate(6.30078 5.84961)"/>
</clipPath>
</defs>
</svg>
