<svg width="36" height="36" viewBox="0 0 36 36" fill="none" xmlns="http://www.w3.org/2000/svg">
<g clip-path="url(#clip0_3_7307)">
<path d="M17.9996 9.43316C20.6448 9.43316 20.958 9.44477 21.9983 9.49117C22.9651 9.53371 23.4871 9.69613 23.8352 9.83148C24.2954 10.0094 24.628 10.2259 24.9721 10.5701C25.3202 10.9182 25.5329 11.2469 25.7108 11.7071C25.8461 12.0551 26.0086 12.5811 26.0511 13.544C26.0975 14.5881 26.1091 14.9014 26.1091 17.5427C26.1091 20.1878 26.0975 20.5011 26.0511 21.5413C26.0086 22.5081 25.8461 23.0302 25.7108 23.3782C25.5329 23.8384 25.3163 24.171 24.9721 24.5152C24.6241 24.8632 24.2954 25.0759 23.8352 25.2538C23.4871 25.3892 22.9612 25.5516 21.9983 25.5941C20.9541 25.6405 20.6409 25.6521 17.9996 25.6521C15.3545 25.6521 15.0412 25.6405 14.0009 25.5941C13.0341 25.5516 12.5121 25.3892 12.164 25.2538C11.7038 25.0759 11.3713 24.8594 11.0271 24.5152C10.679 24.1671 10.4663 23.8384 10.2884 23.3782C10.1531 23.0302 9.99066 22.5043 9.94813 21.5413C9.90172 20.4972 9.89012 20.1839 9.89012 17.5427C9.89012 14.8975 9.90172 14.5843 9.94813 13.544C9.99066 12.5772 10.1531 12.0551 10.2884 11.7071C10.4663 11.2469 10.6829 10.9143 11.0271 10.5701C11.3751 10.2221 11.7038 10.0094 12.164 9.83148C12.5121 9.69613 13.038 9.53371 14.0009 9.49117C15.0412 9.44477 15.3545 9.43316 17.9996 9.43316ZM17.9996 7.65039C15.3119 7.65039 14.9755 7.66199 13.9197 7.7084C12.8679 7.7548 12.1447 7.92496 11.5182 8.16859C10.8646 8.42383 10.3116 8.76027 9.7625 9.31328C9.20949 9.86242 8.87305 10.4154 8.61781 11.0651C8.37418 11.6955 8.20402 12.4148 8.15762 13.4666C8.11121 14.5262 8.09961 14.8627 8.09961 17.5504C8.09961 20.2381 8.11121 20.5745 8.15762 21.6303C8.20402 22.6821 8.37418 23.4053 8.61781 24.0318C8.87305 24.6854 9.20949 25.2384 9.7625 25.7875C10.3116 26.3366 10.8646 26.677 11.5143 26.9283C12.1447 27.172 12.864 27.3421 13.9159 27.3885C14.9716 27.4349 15.308 27.4465 17.9957 27.4465C20.6834 27.4465 21.0199 27.4349 22.0756 27.3885C23.1275 27.3421 23.8507 27.172 24.4771 26.9283C25.1268 26.677 25.6798 26.3366 26.229 25.7875C26.7781 25.2384 27.1184 24.6854 27.3698 24.0357C27.6134 23.4053 27.7836 22.686 27.83 21.6341C27.8764 20.5784 27.888 20.242 27.888 17.5543C27.888 14.8666 27.8764 14.5301 27.83 13.4744C27.7836 12.4225 27.6134 11.6993 27.3698 11.0729C27.1262 10.4154 26.7897 9.86242 26.2367 9.31328C25.6876 8.76414 25.1346 8.42383 24.4849 8.17246C23.8545 7.92883 23.1352 7.75867 22.0834 7.71227C21.0238 7.66199 20.6873 7.65039 17.9996 7.65039Z" fill="white"/>
<path d="M17.9994 12.4651C15.1918 12.4651 12.9141 14.7429 12.9141 17.5504C12.9141 20.358 15.1918 22.6358 17.9994 22.6358C20.807 22.6358 23.0848 20.358 23.0848 17.5504C23.0848 14.7429 20.807 12.4651 17.9994 12.4651ZM17.9994 20.8491C16.178 20.8491 14.7007 19.3719 14.7007 17.5504C14.7007 15.729 16.178 14.2517 17.9994 14.2517C19.8209 14.2517 21.2981 15.729 21.2981 17.5504C21.2981 19.3719 19.8209 20.8491 17.9994 20.8491Z" fill="white"/>
<path d="M24.4741 12.2639C24.4741 12.9213 23.9404 13.4511 23.2868 13.4511C22.6294 13.4511 22.0996 12.9174 22.0996 12.2639C22.0996 11.6065 22.6333 11.0767 23.2868 11.0767C23.9404 11.0767 24.4741 11.6103 24.4741 12.2639Z" fill="white"/>
</g>
<defs>
<clipPath id="clip0_3_7307">
<rect width="19.8" height="19.8" fill="white" transform="translate(8.09961 7.65039)"/>
</clipPath>
</defs>
</svg>
