<svg width="18" height="18" viewBox="0 0 18 18" fill="none" xmlns="http://www.w3.org/2000/svg">
<g opacity="0.01">
<rect width="18" height="18" fill="#191A1F"/>
<rect opacity="0.7" x="1.5" y="1.5" width="15" height="15" fill="#191A1F"/>
</g>
<path fill-rule="evenodd" clip-rule="evenodd" d="M13.9073 5.76544L9.00003 9.88294L4.09278 5.76544C3.93378 5.63194 3.91353 5.39644 4.04703 5.23744C4.17903 5.07919 4.41678 5.05819 4.57503 5.19094L9.00003 8.90494L13.425 5.19094C13.5833 5.05669 13.8203 5.07844 13.9538 5.23744C14.0865 5.39644 14.0663 5.63194 13.9073 5.76544ZM14.0235 3.39844H3.97653C3.08703 3.39844 2.36328 4.12219 2.36328 5.01094V12.9797C2.36328 13.8692 3.08703 14.5929 3.97653 14.5929H14.0235C14.913 14.5929 15.6368 13.8692 15.6368 12.9797V5.01094C15.6368 4.12219 14.913 3.39844 14.0235 3.39844Z" fill="white"/>
</svg>
