<svg width="18" height="18" viewBox="0 0 18 18" fill="none" xmlns="http://www.w3.org/2000/svg">
<g opacity="0.01">
<path fill-rule="evenodd" clip-rule="evenodd" d="M0 18H18V0H0V18Z" fill="#191A1F"/>
<path fill-rule="evenodd" clip-rule="evenodd" d="M1.5 16.5H16.5V1.5H1.5V16.5Z" fill="#191A1F"/>
</g>
<path fill-rule="evenodd" clip-rule="evenodd" d="M10.9519 14.0569C11.2939 13.3616 11.5451 12.4819 11.7019 11.5181H13.8476C13.2304 12.6829 12.1991 13.5919 10.9519 14.0569ZM4.30086 11.5181H6.44661C6.60411 12.4819 6.85536 13.3616 7.19661 14.0569C5.94936 13.5919 4.91811 12.6829 4.30086 11.5181ZM7.19661 3.94389C6.85461 4.63914 6.60411 5.51889 6.44661 6.48339H4.30011C4.91736 5.31864 5.94861 4.40889 7.19661 3.94389ZM13.8484 6.48339H11.7019C11.5451 5.51889 11.2939 4.63914 10.9519 3.94389C12.1999 4.40889 13.2319 5.31864 13.8484 6.48339ZM11.8474 7.68339H14.3051C14.4116 8.10564 14.4746 8.54514 14.4746 9.00039C14.4746 9.45564 14.4116 9.89589 14.3051 10.3189H11.8466C11.8819 9.88389 11.9014 9.44214 11.9014 9.00039C11.9014 8.55939 11.8819 8.11764 11.8474 7.68339ZM9.07461 3.60039C9.47436 3.60039 10.1464 4.60464 10.4876 6.48339H7.66086C8.00211 4.60464 8.67411 3.60039 9.07461 3.60039ZM3.67386 9.00039C3.67386 8.54514 3.73686 8.10564 3.84336 7.68339H6.30111C6.26661 8.11764 6.24786 8.55939 6.24786 9.00039C6.24786 9.44214 6.26661 9.88389 6.30186 10.3189H3.84336C3.73686 9.89589 3.67386 9.45564 3.67386 9.00039ZM7.50261 10.3189C7.46736 9.90789 7.44711 9.46914 7.44711 9.00039C7.44711 8.53164 7.46736 8.09439 7.50261 7.68339H10.6459C10.6811 8.09439 10.7014 8.53164 10.7014 9.00039C10.7014 9.46914 10.6811 9.90789 10.6459 10.3189H7.50261ZM9.07461 14.4004C8.67411 14.4004 8.00211 13.3961 7.66086 11.5181H10.4876C10.1464 13.3961 9.47436 14.4004 9.07461 14.4004ZM9.07461 2.40039C5.43486 2.40039 2.47461 5.36064 2.47461 9.00039C2.47461 12.6394 5.43486 15.6004 9.07461 15.6004C12.7136 15.6004 15.6739 12.6394 15.6739 9.00039C15.6739 5.36064 12.7136 2.40039 9.07461 2.40039Z" fill="white"/>
</svg>
