<svg width="20" height="20" viewBox="0 0 20 20" fill="none" xmlns="http://www.w3.org/2000/svg">
<g opacity="0.01">
<rect width="20" height="20" fill="white"/>
<rect opacity="0.7" x="1.66602" y="1.66675" width="16.6667" height="16.6667" fill="white"/>
</g>
<path fill-rule="evenodd" clip-rule="evenodd" d="M10.0075 2C5.50505 2 1.86523 5.66665 1.86523 10.2028C1.86523 13.8288 4.19739 16.8981 7.43271 17.9844C7.83721 18.0661 7.98538 17.8079 7.98538 17.5908C7.98538 17.4006 7.97204 16.7488 7.97204 16.0696C5.70705 16.5586 5.23539 15.0918 5.23539 15.0918C4.87139 14.1411 4.33206 13.8968 4.33206 13.8968C3.59073 13.3943 4.38606 13.3943 4.38606 13.3943C5.20839 13.4486 5.63989 14.2363 5.63989 14.2363C6.36772 15.4856 7.54054 15.1326 8.01238 14.9153C8.07971 14.3856 8.29554 14.0189 8.52471 13.8153C6.71821 13.6251 4.81756 12.919 4.81756 9.76813C4.81756 8.8718 5.14089 8.13847 5.65322 7.56814C5.57239 7.36448 5.28922 6.52231 5.73422 5.39515C5.73422 5.39515 6.42172 5.17782 7.97188 6.23715C8.63555 6.05759 9.32 5.96625 10.0075 5.96548C10.695 5.96548 11.3959 6.06065 12.043 6.23715C13.5934 5.17782 14.2809 5.39515 14.2809 5.39515C14.7258 6.52231 14.4425 7.36448 14.3617 7.56814C14.8875 8.13847 15.1975 8.8718 15.1975 9.76813C15.1975 12.919 13.2969 13.6115 11.4769 13.8153C11.7735 14.0733 12.0295 14.5621 12.0295 15.3363C12.0295 16.4363 12.0162 17.3191 12.0162 17.5906C12.0162 17.8079 12.1645 18.0661 12.5689 17.9846C15.8042 16.8979 18.1363 13.8288 18.1363 10.2028C18.1497 5.66665 14.4965 2 10.0075 2Z" fill="white"/>
</svg>
