<svg width="18" height="18" viewBox="0 0 18 18" fill="none" xmlns="http://www.w3.org/2000/svg">
<path d="M14.709 15.7881L12.1556 13.2347M12.1556 13.2347L14.709 10.6814M12.1556 13.2347L16.7517 13.2347" stroke="white" stroke-width="1.3"/>
<path d="M9.26367 2.08691C11.1728 2.08691 12.6124 3.54581 12.6904 5.53516C12.8099 5.75879 12.9156 6.08879 12.8535 6.49707L12.8525 6.49609C12.7878 6.94006 12.6416 7.27044 12.4658 7.51074C12.3686 7.64352 12.268 7.73871 12.1826 7.80762C11.8728 8.38011 11.6532 8.73902 11.4561 9.05859L11.4531 9.06348C11.4049 9.14018 11.3656 9.27582 11.373 9.40625C11.38 9.52415 11.418 9.56685 11.4395 9.58301L12.877 10.5186L10.1963 13.2002L12.9131 15.917H2.83594V13.5195C2.83608 12.7915 3.21018 12.1133 3.81445 11.7139L3.81738 11.7109L7.09473 9.57617C7.11602 9.56058 7.15509 9.51914 7.16211 9.39941C7.1697 9.26904 7.13024 9.13348 7.08203 9.05664C6.88121 8.73809 6.66146 8.37452 6.35449 7.80664C6.26606 7.73765 6.16424 7.64271 6.06641 7.51172C5.88594 7.26997 5.73826 6.93815 5.67383 6.49219V6.49121C5.6136 6.08606 5.71821 5.75874 5.83691 5.53613C5.91424 3.53889 7.35523 2.08714 9.26367 2.08691Z" fill="white"/>
</svg>
