<svg width="42" height="42" viewBox="0 0 42 42" fill="none" xmlns="http://www.w3.org/2000/svg">
<circle cx="21" cy="21" r="20" fill="#2C2C2C" fill-opacity="0.5"/>
<circle cx="21" cy="21" r="20.5" stroke="white" stroke-opacity="0.1"/>
<g opacity="0.01">
<rect x="10.707" y="10.1733" width="20.5867" height="20.5867" fill="white" fill-opacity="0.8"/>
<rect opacity="0.7" x="12.4219" y="11.8889" width="17.1556" height="17.1556" fill="white" fill-opacity="0.8"/>
</g>
<path d="M21 12.5183C23.1821 12.5183 24.8331 14.1701 24.9482 16.4441L24.9512 16.5388L24.9688 16.5701C25.1114 16.8375 25.1876 17.1538 25.1562 17.5115L25.1436 17.6199C25.074 18.0942 24.9222 18.4773 24.7051 18.7732C24.6136 18.8979 24.5206 18.9963 24.4248 19.0769L24.3711 19.1189L24.2393 19.3601C24.0744 19.6582 23.925 19.9171 23.7725 20.1697L23.5869 20.4724L23.4902 20.6257C23.3165 20.9005 23.3391 21.3017 23.4932 21.4109L27.417 23.9685C28.1061 24.4177 28.5214 25.185 28.5215 26.0076V28.7351H13.4785V26.0076C13.4786 25.185 13.894 24.4177 14.583 23.9685L18.4883 21.4236C18.6609 21.3025 18.6837 20.9006 18.5098 20.6257C18.4447 20.523 18.3821 20.4216 18.3203 20.321L18.1367 20.0173C18.0455 19.8636 17.9541 19.7051 17.8584 19.5349L17.6279 19.1189L17.5762 19.0769C17.5043 19.0165 17.4336 18.9461 17.3643 18.8621L17.2949 18.7732C17.0778 18.4773 16.926 18.0939 16.8564 17.6189C16.7979 17.2169 16.8744 16.8642 17.0312 16.5701L17.0488 16.5388L17.0527 16.4441C17.1657 14.2123 18.7579 12.5799 20.8799 12.5203L21 12.5183ZM21 13.8015C19.4604 13.8016 18.3291 14.9897 18.3291 16.699L18.3311 16.9431L18.2021 17.114C18.1418 17.1942 18.1064 17.2986 18.126 17.4333C18.1658 17.7052 18.2401 17.8908 18.3301 18.0134C18.3751 18.0748 18.4068 18.1017 18.4414 18.1218L18.5986 18.2136L18.7861 18.5603L18.9746 18.9031L19.1533 19.2136C19.1824 19.2636 19.2113 19.3134 19.2402 19.3621L19.4141 19.6501L19.5947 19.9392C20.1002 20.7382 20.0338 21.9069 19.208 22.4861L15.2842 25.0437C14.9585 25.256 14.7618 25.6187 14.7617 26.0076V27.4519H27.2383V26.0076C27.2382 25.6465 27.0691 25.308 26.7842 25.0916L26.7158 25.0437L22.7744 22.4744C21.9664 21.9075 21.9005 20.7384 22.4062 19.9392L22.5869 19.6501C22.6162 19.6025 22.6449 19.5545 22.6738 19.5066L22.8477 19.2136L23.0254 18.9021L23.2148 18.5603L23.4014 18.2136L23.5586 18.1218C23.5933 18.1017 23.6257 18.075 23.6709 18.0134C23.7608 17.8908 23.8343 17.7053 23.874 17.4343C23.8937 17.299 23.8592 17.1942 23.7988 17.114L23.6699 16.9431L23.6689 16.5828C23.6201 14.9742 22.556 13.8547 21.1045 13.8035L21 13.8015Z" fill="white" fill-opacity="0.8"/>
</svg>
