<svg width="18" height="18" viewBox="0 0 18 18" fill="none" xmlns="http://www.w3.org/2000/svg">
<g opacity="0.01">
<rect width="18" height="18" fill="#191A1F"/>
<rect opacity="0.7" x="1.5" y="1.5" width="15" height="15" fill="#191A1F"/>
</g>
<path fill-rule="evenodd" clip-rule="evenodd" d="M9.00352 14.0256C7.88827 14.0256 6.86077 13.6558 6.02527 13.0386L13.0415 6.02234C13.658 6.85709 14.0278 7.88534 14.0278 9.00059C14.0278 11.7711 11.774 14.0256 9.00352 14.0256ZM3.97852 9.00059C3.97852 6.22934 6.23302 3.97559 9.00352 3.97559C10.118 3.97559 11.1463 4.34459 11.981 4.96184L4.96477 11.9781C4.34827 11.1433 3.97852 10.1158 3.97852 9.00059ZM9.00352 2.47559C5.40577 2.47559 2.47852 5.40209 2.47852 9.00059C2.47852 12.5983 5.40577 15.5256 9.00352 15.5256C12.6013 15.5256 15.5278 12.5983 15.5278 9.00059C15.5278 5.40209 12.6013 2.47559 9.00352 2.47559Z" fill="white"/>
</svg>
