<svg width="21" height="20" viewBox="0 0 21 20" fill="none" xmlns="http://www.w3.org/2000/svg">
<g opacity="0.01">
<rect x="0.666016" width="20" height="20" fill="white"/>
<rect opacity="0.7" x="2.33203" y="1.66675" width="16.6667" height="16.6667" fill="white"/>
</g>
<path fill-rule="evenodd" clip-rule="evenodd" d="M9.47674 17.3315C9.32407 17.3315 9.19382 17.2175 9.17241 17.0666L8.89374 15.0752L8.59365 14.9496C8.18465 14.7781 7.79707 14.5556 7.4429 14.2885L7.18482 14.0939L5.3079 14.8531C5.27099 14.8681 5.23249 14.8759 5.19299 14.8759C5.08324 14.8759 4.98116 14.8167 4.92716 14.7224L3.72157 12.6358C3.64615 12.5042 3.67865 12.334 3.79874 12.2405L5.38499 11.002L5.34382 10.68C5.31557 10.454 5.30015 10.2264 5.30015 10C5.30015 9.78521 5.31382 9.56704 5.33957 9.35012L5.37732 9.03112L3.78424 7.78654C3.66332 7.69262 3.63074 7.52246 3.70707 7.39037L4.9109 5.30462C4.96582 5.20946 5.06782 5.15029 5.17757 5.15029C5.21699 5.15029 5.25557 5.15804 5.29332 5.17304L7.1599 5.92804L7.41799 5.72996C7.76957 5.46154 8.1554 5.23696 8.5644 5.06287L8.86199 4.93637L9.1424 2.93337C9.16382 2.78246 9.29415 2.66846 9.44674 2.66846H11.8553C12.008 2.66846 12.1382 2.78246 12.1597 2.93337L12.4383 4.92479L12.7384 5.05037C13.1474 5.22187 13.535 5.44437 13.8892 5.71146L14.1472 5.90612L16.0242 5.14687C16.0611 5.13187 16.0996 5.12412 16.1391 5.12412C16.2488 5.12412 16.3509 5.18329 16.4049 5.27762L17.6105 7.36421C17.6859 7.49579 17.6534 7.66604 17.5332 7.75946L15.9462 8.99846L15.9882 9.32171C16.0173 9.54721 16.0318 9.77404 16.0318 9.99996C16.0318 10.2148 16.0182 10.4321 15.9916 10.6482L15.953 10.9685L17.5487 12.2135C17.6687 12.3074 17.7014 12.4775 17.6251 12.61L16.4212 14.6953C16.3663 14.7905 16.2643 14.8496 16.1546 14.8496C16.116 14.8496 16.0774 14.8419 16.0406 14.8269L14.1722 14.0719L13.9142 14.27C13.5617 14.5392 13.1759 14.7639 12.7677 14.937L12.4702 15.063L12.1897 17.0665C12.1683 17.2174 12.038 17.3314 11.8854 17.3314H9.47674V17.3315Z" stroke="white" stroke-width="1.3"/>
<circle cx="10.665" cy="9.99997" r="2.02633" stroke="white" stroke-width="1.3"/>
</svg>
