<svg width="36" height="36" viewBox="0 0 36 36" fill="none" xmlns="http://www.w3.org/2000/svg">
<path d="M22.5555 15.0638C23.9136 16.0381 25.5774 16.6113 27.3744 16.6113V13.1411C27.0343 13.1412 26.6951 13.1056 26.3624 13.0348V15.7664C24.5655 15.7664 22.902 15.1931 21.5435 14.2189V21.3007C21.5435 24.8433 18.6818 27.715 15.1519 27.715C13.8348 27.715 12.6107 27.3154 11.5938 26.6301C12.7544 27.8211 14.373 28.5599 16.1637 28.5599C19.6938 28.5599 22.5556 25.6882 22.5556 22.1454V15.0638H22.5555ZM23.8039 11.5627C23.1098 10.8017 22.6541 9.81826 22.5555 8.73102V8.28467H21.5964C21.8378 9.66655 22.6612 10.8471 23.8039 11.5627ZM13.8264 23.9116C13.4386 23.4013 13.229 22.7771 13.23 22.1352C13.23 20.515 14.5389 19.2012 16.1537 19.2012C16.4547 19.2011 16.7538 19.2474 17.0406 19.3387V15.7909C16.7055 15.7448 16.3672 15.7252 16.0291 15.7324V18.4939C15.742 18.4025 15.4428 18.3561 15.1417 18.3564C13.5269 18.3564 12.218 19.67 12.218 21.2905C12.218 22.4363 12.8723 23.4283 13.8264 23.9116Z" fill="white" fill-opacity="0.8"/>
<path d="M21.5429 14.2188C22.9014 15.1931 24.5649 15.7663 26.3618 15.7663V13.0347C25.3588 12.8203 24.4709 12.2943 23.8033 11.5627C22.6605 10.8471 21.8372 9.66648 21.5958 8.28467H19.0768V22.1452C19.0711 23.7611 17.7644 25.0695 16.153 25.0695C15.2034 25.0695 14.3598 24.6152 13.8256 23.9116C12.8715 23.4283 12.2173 22.4363 12.2173 21.2906C12.2173 19.6702 13.5261 18.3565 15.141 18.3565C15.4504 18.3565 15.7486 18.4048 16.0283 18.4939V15.7325C12.5605 15.8044 9.77148 18.648 9.77148 22.1453C9.77148 23.8911 10.466 25.4738 11.5932 26.6302C12.6101 27.3154 13.8343 27.7151 15.1514 27.7151C18.6813 27.7151 21.5429 24.8433 21.5429 21.3007V14.2188H21.5429Z" fill="white"/>
<path d="M26.362 13.0348V12.2962C25.4576 12.2976 24.5709 12.0434 23.8035 11.5627C24.4828 12.309 25.3773 12.8237 26.362 13.0348ZM21.5961 8.28473C21.573 8.15266 21.5553 8.01973 21.5431 7.88629V7.43994H18.0649V21.3007C18.0593 22.9163 16.7527 24.2247 15.1412 24.2247C14.6681 24.2247 14.2214 24.112 13.8258 23.9117C14.3601 24.6153 15.2036 25.0695 16.1532 25.0695C17.7645 25.0695 19.0713 23.7612 19.077 22.1454V8.28473H21.5961ZM16.0287 15.7325V14.9462C15.7381 14.9064 15.445 14.8864 15.1517 14.8865C11.6215 14.8864 8.75977 17.7583 8.75977 21.3007C8.75977 23.5215 9.88446 25.4788 11.5935 26.6301C10.4663 25.4738 9.77177 23.891 9.77177 22.1453C9.77177 18.6481 12.5607 15.8044 16.0287 15.7325Z" fill="white"/>
</svg>
