<svg width="36" height="36" viewBox="0 0 36 36" fill="none" xmlns="http://www.w3.org/2000/svg">
<path d="M12.435 15.7636C12.2271 15.6277 12.0188 15.5597 11.8109 15.5597H10.8766V20.4567H11.8114C12.0193 20.4567 12.2277 20.3887 12.4355 20.2528C12.6434 20.1169 12.7473 19.913 12.7473 19.6406V16.3758C12.7468 16.1039 12.6423 15.8995 12.435 15.7636ZM27.6482 7.5H8.35179C7.05536 7.5 6.00321 8.41828 6 9.55313V26.4469C6.00321 27.5817 7.05536 28.5 8.35179 28.5H27.6482C28.9452 28.5 29.9968 27.5817 30 26.4469V9.55313C29.9968 8.41828 28.9446 7.5 27.6482 7.5ZM14.2607 19.6495C14.2607 20.5313 13.6388 21.8672 11.67 21.8644H9.18429V14.1084H11.7225C13.6211 14.1084 14.2596 15.4425 14.2602 16.3247L14.2607 19.6495ZM19.6543 15.4936H16.8V17.2945H18.5448V18.6806H16.8V20.4811H19.6548V21.8672H16.3238C15.7259 21.8808 15.2288 21.4673 15.2138 20.9442V15.0797C15.1993 14.557 15.6723 14.123 16.2696 14.1098H19.6548L19.6543 15.4936ZM25.2064 20.8978C24.4993 22.3392 23.2323 22.0523 22.665 20.8978L20.6009 14.1103H22.3457L23.9373 19.4409L25.5214 14.1103H27.2668L25.2064 20.8978Z" fill="white"/>
</svg>
