<svg width="170" height="30" viewBox="0 0 170 30" fill="none" xmlns="http://www.w3.org/2000/svg">
<path d="M14.0866 2.04906C14.439 1.25857 15.561 1.25857 15.9134 2.04906L18.9091 8.76963C19.0544 9.09566 19.3625 9.3195 19.7175 9.35697L27.0348 10.1293C27.8955 10.2201 28.2422 11.2872 27.5993 11.8666L22.1334 16.7924C21.8682 17.0314 21.7506 17.3936 21.8246 17.7428L23.3513 24.9407C23.5309 25.7873 22.6231 26.4468 21.8734 26.0144L15.4996 22.3382C15.1904 22.1598 14.8096 22.1598 14.5004 22.3382L8.12656 26.0144C7.37685 26.4468 6.46913 25.7873 6.6487 24.9407L8.17538 17.7428C8.24944 17.3936 8.13176 17.0314 7.8666 16.7924L2.40068 11.8666C1.75776 11.2872 2.10448 10.2201 2.96517 10.1293L10.2825 9.35697C10.6375 9.3195 10.9456 9.09566 11.0909 8.76963L14.0866 2.04906Z" fill="#FABD3C"/>
<path d="M49.0866 2.04906C49.439 1.25857 50.561 1.25857 50.9134 2.04906L53.9091 8.76963C54.0544 9.09566 54.3625 9.3195 54.7175 9.35697L62.0348 10.1293C62.8955 10.2201 63.2422 11.2872 62.5993 11.8666L57.1334 16.7924C56.8682 17.0314 56.7506 17.3936 56.8246 17.7428L58.3513 24.9407C58.5309 25.7873 57.6231 26.4468 56.8734 26.0144L50.4996 22.3382C50.1904 22.1598 49.8096 22.1598 49.5004 22.3382L43.1266 26.0144C42.3769 26.4468 41.4691 25.7873 41.6487 24.9407L43.1754 17.7428C43.2494 17.3936 43.1318 17.0314 42.8666 16.7924L37.4007 11.8666C36.7578 11.2872 37.1045 10.2201 37.9652 10.1293L45.2825 9.35697C45.6375 9.3195 45.9456 9.09566 46.0909 8.76963L49.0866 2.04906Z" fill="#FABD3C"/>
<path d="M84.0866 2.04906C84.439 1.25857 85.561 1.25857 85.9134 2.04906L88.9091 8.76963C89.0544 9.09566 89.3625 9.3195 89.7175 9.35697L97.0348 10.1293C97.8955 10.2201 98.2422 11.2872 97.5993 11.8666L92.1334 16.7924C91.8682 17.0314 91.7506 17.3936 91.8246 17.7428L93.3513 24.9407C93.5309 25.7873 92.6231 26.4468 91.8734 26.0144L85.4996 22.3382C85.1904 22.1598 84.8096 22.1598 84.5004 22.3382L78.1266 26.0144C77.3769 26.4468 76.4691 25.7873 76.6487 24.9407L78.1754 17.7428C78.2494 17.3936 78.1318 17.0314 77.8666 16.7924L72.4007 11.8666C71.7578 11.2872 72.1045 10.2201 72.9652 10.1293L80.2825 9.35697C80.6375 9.3195 80.9456 9.09566 81.0909 8.76963L84.0866 2.04906Z" fill="#FABD3C"/>
<path d="M119.087 2.04906C119.439 1.25857 120.561 1.25857 120.913 2.04906L123.909 8.76963C124.054 9.09566 124.362 9.3195 124.717 9.35697L132.035 10.1293C132.896 10.2201 133.242 11.2872 132.599 11.8666L127.133 16.7924C126.868 17.0314 126.751 17.3936 126.825 17.7428L128.351 24.9407C128.531 25.7873 127.623 26.4468 126.873 26.0144L120.5 22.3382C120.19 22.1598 119.81 22.1598 119.5 22.3382L113.127 26.0144C112.377 26.4468 111.469 25.7873 111.649 24.9407L113.175 17.7428C113.249 17.3936 113.132 17.0314 112.867 16.7924L107.401 11.8666C106.758 11.2872 107.104 10.2201 107.965 10.1293L115.283 9.35697C115.638 9.3195 115.946 9.09566 116.091 8.76963L119.087 2.04906Z" fill="#FABD3C"/>
<path d="M154.087 2.04906C154.439 1.25857 155.561 1.25857 155.913 2.04906L158.909 8.76963C159.054 9.09566 159.362 9.3195 159.717 9.35697L167.035 10.1293C167.896 10.2201 168.242 11.2872 167.599 11.8666L162.133 16.7924C161.868 17.0314 161.751 17.3936 161.825 17.7428L163.351 24.9407C163.531 25.7873 162.623 26.4468 161.873 26.0144L155.5 22.3382C155.19 22.1598 154.81 22.1598 154.5 22.3382L148.127 26.0144C147.377 26.4468 146.469 25.7873 146.649 24.9407L148.175 17.7428C148.249 17.3936 148.132 17.0314 147.867 16.7924L142.401 11.8666C141.758 11.2872 142.104 10.2201 142.965 10.1293L150.283 9.35697C150.638 9.3195 150.946 9.09566 151.091 8.76963L154.087 2.04906Z" fill="#FABD3C"/>
</svg>
