<svg width="32" height="32" viewBox="0 0 32 32" fill="none" xmlns="http://www.w3.org/2000/svg">
<path d="M9.5 21.5L11.9375 16.2187M11.9375 16.2187L14.9856 9.09606C15.3371 8.30131 16.6629 8.30131 17.0144 9.09606L20.0625 16.2188M11.9375 16.2187L20.0625 16.2188M20.0625 16.2188L22.5 21.5" stroke="#F8FAFB" stroke-width="1.5" stroke-linecap="round"/>
<path d="M3.72227 7.01398L16.0009 2L28.2796 7.01398C28.2796 7.01398 29.1291 7.39961 28.9831 8.04976L26.835 24.2048C26.835 24.6382 26.6966 24.7043 26.1127 24.921L16.4295 29.2187C16.1375 29.3271 15.8456 29.3271 15.6996 29.2187L5.88909 24.921C5.88909 24.921 5.16682 24.7465 5.16682 24.2048L3 8.04976C3 7.39961 3.72227 7.01398 3.72227 7.01398Z" stroke="#F7F9FC" stroke-width="1.5" stroke-miterlimit="10" stroke-linecap="round" stroke-linejoin="round"/>
</svg>
