<svg width="140" height="30" viewBox="0 0 140 30" fill="none" xmlns="http://www.w3.org/2000/svg">
<g clip-path="url(#clip0_298_11588)">
<path d="M4.78137 22V5.08984H8.87122L13.6759 17.2422H13.7462L18.5509 5.08984H22.6407V22H19.4884V10.5625H19.3829L14.8243 22H12.5978L8.02747 10.5625H7.93372V22H4.78137ZM27.249 26.1367C26.5811 26.1367 25.9014 26.0547 25.5029 25.9844V23.4414C25.749 23.4883 26.1475 23.5586 26.6514 23.5586C27.6709 23.5586 28.2334 23.2656 28.5381 22.4102L28.6904 22L24.249 9.4375H28.0107L30.6592 19.2578H30.7529L33.4131 9.4375H37.0225L32.71 22.2227C31.7256 25.1875 30.0381 26.1367 27.249 26.1367ZM48.3836 22.2578C44.9031 22.2578 42.9695 20.6523 42.7 18.2734L42.6882 18.168H46.0281L46.0515 18.2734C46.2742 19.2578 47.0125 19.832 48.3836 19.832C49.6726 19.832 50.4578 19.3281 50.4578 18.5195V18.5078C50.4578 17.8398 50.0359 17.4531 48.8054 17.1836L46.6726 16.7383C44.2351 16.2227 43.0047 15.0039 43.0047 13.1289V13.1172C43.0047 10.7266 45.0672 9.17969 48.2664 9.17969C51.6062 9.17969 53.4695 10.9492 53.5515 13.1523V13.2695H50.3992L50.3875 13.1758C50.2703 12.2734 49.532 11.5938 48.2664 11.5938C47.0828 11.5938 46.3445 12.1211 46.3445 12.9297V12.9414C46.3445 13.5859 46.7781 14.0078 48.0437 14.2773L50.1765 14.7344C52.8015 15.2852 53.8797 16.3164 53.8797 18.168V18.1797C53.8797 20.6406 51.6179 22.2578 48.3836 22.2578ZM61.4059 22.2578C57.5622 22.2578 55.2301 19.7617 55.2301 15.7422V15.7305C55.2301 11.7344 57.5856 9.17969 61.2653 9.17969C64.945 9.17969 67.2536 11.6758 67.2536 15.4727V16.5273H58.6051C58.6403 18.5312 59.7301 19.7031 61.4762 19.7031C62.8825 19.7031 63.7379 18.9297 63.984 18.2266L64.0075 18.1562H67.1481L67.1129 18.2852C66.7262 20.1367 64.9918 22.2578 61.4059 22.2578ZM61.3239 11.7344C59.9176 11.7344 58.8629 12.6719 58.6403 14.3711H63.9723C63.7614 12.6367 62.7418 11.7344 61.3239 11.7344ZM69.1431 22V9.4375H72.565V11.6289H72.6353C73.0103 10.082 74.0298 9.17969 75.4947 9.17969C75.8697 9.17969 76.2212 9.23828 76.479 9.30859V12.3203C76.1978 12.2031 75.729 12.1328 75.2368 12.1328C73.5493 12.1328 72.565 13.1406 72.565 14.9688V22H69.1431ZM81.7436 22L77.3959 9.4375H81.0522L83.6772 18.9766H83.7475L86.3373 9.4375H89.9115L85.599 22H81.7436ZM93.0081 7.82031C91.9768 7.82031 91.18 7.01172 91.18 6.03906C91.18 5.06641 91.9768 4.25781 93.0081 4.25781C94.0393 4.25781 94.8362 5.06641 94.8362 6.03906C94.8362 7.01172 94.0393 7.82031 93.0081 7.82031ZM91.2971 22V9.4375H94.719V22H91.2971ZM102.878 22.2578C99.0461 22.2578 96.6789 19.7617 96.6789 15.707V15.6953C96.6789 11.6758 99.0812 9.17969 102.843 9.17969C106.253 9.17969 108.421 11.2773 108.55 13.9961V14.0781H105.374L105.351 13.9727C105.14 12.7773 104.308 11.8633 102.89 11.8633C101.214 11.8633 100.159 13.3047 100.159 15.707V15.7188C100.159 18.1797 101.214 19.5742 102.902 19.5742C104.273 19.5742 105.128 18.7305 105.362 17.4648L105.374 17.3594H108.562V17.4297C108.398 20.1719 106.23 22.2578 102.878 22.2578ZM116.053 22.2578C112.209 22.2578 109.877 19.7617 109.877 15.7422V15.7305C109.877 11.7344 112.232 9.17969 115.912 9.17969C119.592 9.17969 121.9 11.6758 121.9 15.4727V16.5273H113.252C113.287 18.5312 114.377 19.7031 116.123 19.7031C117.529 19.7031 118.385 18.9297 118.631 18.2266L118.654 18.1562H121.795L121.76 18.2852C121.373 20.1367 119.639 22.2578 116.053 22.2578ZM115.971 11.7344C114.564 11.7344 113.51 12.6719 113.287 14.3711H118.619C118.408 12.6367 117.389 11.7344 115.971 11.7344ZM128.958 22.2578C125.477 22.2578 123.544 20.6523 123.274 18.2734L123.263 18.168H126.602L126.626 18.2734C126.849 19.2578 127.587 19.832 128.958 19.832C130.247 19.832 131.032 19.3281 131.032 18.5195V18.5078C131.032 17.8398 130.61 17.4531 129.38 17.1836L127.247 16.7383C124.809 16.2227 123.579 15.0039 123.579 13.1289V13.1172C123.579 10.7266 125.642 9.17969 128.841 9.17969C132.181 9.17969 134.044 10.9492 134.126 13.1523V13.2695H130.974L130.962 13.1758C130.845 12.2734 130.106 11.5938 128.841 11.5938C127.657 11.5938 126.919 12.1211 126.919 12.9297V12.9414C126.919 13.5859 127.352 14.0078 128.618 14.2773L130.751 14.7344C133.376 15.2852 134.454 16.3164 134.454 18.168V18.1797C134.454 20.6406 132.192 22.2578 128.958 22.2578Z" fill="white"/>
</g>
<defs>
<clipPath id="clip0_298_11588">
<rect width="140" height="30" fill="white"/>
</clipPath>
</defs>
</svg>
