<svg width="32" height="32" viewBox="0 0 32 32" fill="none" xmlns="http://www.w3.org/2000/svg">
<path d="M32 0V32H0V0H32Z" fill="white" fill-opacity="0.01"/>
<path d="M16.6667 16.0001C16.6667 16.3683 16.3682 16.6668 16 16.6668C15.6318 16.6668 15.3333 16.3683 15.3333 16.0001C15.3333 15.6319 15.6318 15.3334 16 15.3334C16.3682 15.3334 16.6667 15.6319 16.6667 16.0001Z" fill="#F7F9FC"/>
<path d="M20.6191 18.6669C16.569 25.6819 11.8845 29.02 9.33365 27.5473C6.78275 26.0745 7.33142 20.3485 11.3815 13.3336C15.4316 6.31862 20.1161 2.98048 22.667 4.45324C25.2179 5.926 24.6692 11.652 20.6191 18.6669Z" stroke="#F7F9FC" stroke-width="1.5"/>
<path d="M16.0003 10.6668C24.1005 10.6668 29.3337 13.0546 29.3337 16.0001C29.3337 18.9456 24.1005 21.3334 16.0003 21.3334C7.90015 21.3334 2.66699 18.9456 2.66699 16.0001C2.66699 13.0546 7.90015 10.6668 16.0003 10.6668Z" stroke="#F7F9FC" stroke-width="1.5"/>
<path d="M20.6191 13.3333C16.569 6.31836 11.8845 2.98022 9.33365 4.45298C6.78275 5.92574 7.33142 11.6517 11.3815 18.6667C15.4316 25.6816 20.1161 29.0197 22.667 27.547C25.2179 26.0742 24.6692 20.3483 20.6191 13.3333Z" stroke="#F7F9FC" stroke-width="1.5"/>
<path d="M16.6667 16.0001C16.6667 16.3683 16.3682 16.6668 16 16.6668C15.6318 16.6668 15.3333 16.3683 15.3333 16.0001C15.3333 15.6319 15.6318 15.3334 16 15.3334C16.3682 15.3334 16.6667 15.6319 16.6667 16.0001Z" stroke="#F7F9FC" stroke-width="1.5"/>
</svg>
